<svg xmlns="http://www.w3.org/2000/svg" width="199" height="177" fill="none" viewBox="0 0 199 177">
  <path fill="#92E3A9" d="M97.877 176.998c19.452 0 35.22-1.649 35.22-3.683s-15.768-3.683-35.22-3.683c-19.451 0-35.22 1.649-35.22 3.683s15.769 3.683 35.22 3.683Z"/>
  <path fill="#fff" d="M97.877 176.998c19.452 0 35.22-1.649 35.22-3.683s-15.768-3.683-35.22-3.683c-19.451 0-35.22 1.649-35.22 3.683s15.769 3.683 35.22 3.683Z" opacity=".5"/>
  <path stroke="#2E353A" stroke-miterlimit="10" stroke-width=".662" d="M177.465 142.883v-5.621h-6.271v-10.907h-9.01V82.056h-8.618v26.777h-7.836v-9.586h-10.575v24.792h-4.309v7.933h-10.184v-2.974h3.131v-1.653h-12.928v1.984h1.57v8.596h-6.662v-16.201H82.27v11.569H65.42v-8.595h-6.266v9.59h-13.32v-17.523h-5.483v-5.948h-9.797v27.108h-9.792v5.948h-6.266v18.181H189.61v-19.171h-12.145Z"/>
  <path fill="#2E353A" d="M34.408 116.687H32.29v2.118h2.118v-2.118Zm4.41 0H36.7v2.118h2.118v-2.118Zm-4.41 4.415H32.29v2.118h2.118v-2.118Zm4.41 0H36.7v2.118h2.118v-2.118Zm4.765 0h-2.117v2.118h2.117v-2.118Zm0 4.411h-2.117v2.117h2.117v-2.117Zm0 4.415h-2.117v2.118h2.117v-2.118Zm0 4.41h-2.117v2.118h2.117v-2.118Zm0 4.415h-2.117v2.118h2.117v-2.118Zm0 4.416h-2.117v2.117h2.117v-2.117Zm-9.175-17.656H32.29v2.117h2.118v-2.117Zm4.41 0H36.7v2.117h2.118v-2.117Zm-4.41 4.415H32.29v2.118h2.118v-2.118Zm4.41 0H36.7v2.118h2.118v-2.118Zm-4.41 4.41H32.29v2.118h2.118v-2.118Zm4.41 0H36.7v2.118h2.118v-2.118Zm-4.41 4.415H32.29v2.118h2.118v-2.118Zm-9.71 2.473H22.58v2.118h2.118v-2.118Zm30.538-4.77h-2.118v2.118h2.118v-2.118Zm4.235 0h-2.117v2.118h2.117v-2.118Zm97.622-51.9h-2.118v2.118h2.118v-2.118Zm2.647 0h-2.118v2.118h2.118v-2.118Zm-2.647 4.415h-2.118v2.118h2.118v-2.118Zm2.647 0h-2.118v2.118h2.118v-2.118Zm-2.647 4.416h-2.118v2.117h2.118v-2.117Zm2.647 0h-2.118v2.117h2.118v-2.117Zm-2.647 4.41h-2.118v2.118h2.118v-2.118Zm2.647 0h-2.118v2.118h2.118v-2.118Zm-2.647 4.415h-2.118v2.118h2.118v-2.118Zm2.647 0h-2.118v2.118h2.118v-2.118Zm-2.647 4.411h-2.118v2.118h2.118v-2.118Zm2.647 0h-2.118v2.118h2.118v-2.118Zm-2.647 4.415h-2.118v2.118h2.118v-2.118Zm2.647 0h-2.118v2.118h2.118v-2.118Zm-2.647 4.415h-2.118v2.118h2.118v-2.118Zm2.647 0h-2.118v2.118h2.118v-2.118Zm-2.647 4.411h-2.118v2.117h2.118v-2.117Zm2.647 0h-2.118v2.117h2.118v-2.117Zm-20.653 0h-2.118v2.117h2.118v-2.117Zm4.59 0h-2.118v2.117h2.118v-2.117Zm4.59 0h-2.118v2.117h2.118v-2.117Zm-9.18 9.534h-2.118v2.118h2.118v-2.118Zm4.59 0h-2.118v2.118h2.118v-2.118Zm4.59 0h-2.118v2.118h2.118v-2.118Zm-9.18 9.53h-2.118v2.118h2.118v-2.118Zm4.59 0h-2.118v2.118h2.118v-2.118Zm4.59 0h-2.118v2.118h2.118v-2.118Zm8.826-14.649h-2.118v2.118h2.118v-2.118Zm2.647 0h-2.118v2.118h2.118v-2.118Zm-2.647 4.41h-2.118v2.118h2.118v-2.118Zm2.647 0h-2.118v2.118h2.118v-2.118Zm-2.647 4.415h-2.118v2.118h2.118v-2.118Zm2.647 0h-2.118v2.118h2.118v-2.118Zm4.415-4.415h-2.118v2.118h2.118v-2.118Zm4.944 0h-2.117v2.118h2.117v-2.118Zm-4.944 4.24h-2.118v2.118h2.118v-2.118Zm4.944 0h-2.117v2.118h2.117v-2.118Zm-4.944 4.236h-2.118v2.118h2.118v-2.118Zm4.944 0h-2.117v2.118h2.117v-2.118Zm-4.944 4.236h-2.118v2.117h2.118v-2.117Zm4.944 0h-2.117v2.117h2.117v-2.117Zm-12.006-3.881h-2.118v2.117h2.118v-2.117Zm2.647 0h-2.118v2.117h2.118v-2.117Zm-2.647 4.41h-2.118v2.118h2.118v-2.118Zm2.647 0h-2.118v2.118h2.118v-2.118Zm-120.922-3.177H36.7v2.118h2.118v-2.118Zm-4.41 4.416H32.29v2.117h2.118v-2.117Zm4.41 0H36.7v2.117h2.118v-2.117Zm-4.41 4.41H32.29v2.118h2.118v-2.118Zm4.41 0H36.7v2.118h2.118v-2.118Zm-4.41 4.415H32.29v2.118h2.118v-2.118Zm4.41 0H36.7v2.118h2.118v-2.118Z"/>
  <path stroke="#2E353A" stroke-miterlimit="10" stroke-width=".662" d="M150.385 153.32v8.734h-17.652v-17.366h17.652v7.076m32.485 7.652v2.638h-17.656v-9.18h3.646m2.15 0h11.86v5.11m-130.111-5.11h12.54v9.18H47.645v-9.18h3.439m-25.944 0h1.676v9.18h-6.533v-9.18h3.54"/>
  <path stroke="#2E353A" stroke-miterlimit="10" stroke-width=".662" d="M142.967 144.688h-2.822v17.366h2.822v-17.366Zm-21.937 2.362h-2.771v-4.59h9.355v4.59h-4.07m-52.066-7.767H60.71v3.886h10.768v-3.886Z"/>
  <path stroke="#2E353A" stroke-miterlimit="10" stroke-width=".662" d="M66.888 139.283H65.83v22.771h1.06v-22.771Z"/>
  <path fill="#2E353A" stroke="#2E353A" stroke-linecap="round" stroke-linejoin="round" stroke-width=".662" d="M99.922.959a59.39 59.39 0 0 0-59.39 59.39c0 29.626 54.786 99.444 54.786 99.444h4.604s59.39-66.646 59.39-99.444A59.39 59.39 0 0 0 99.922.959Zm0 88.395a29.005 29.005 0 1 1 0-58.01 29.005 29.005 0 0 1 0 58.01Z"/>
  <path fill="#92E3A9" stroke="#2E353A" stroke-linecap="round" stroke-linejoin="round" stroke-width=".662" d="M95.318.959a59.39 59.39 0 0 0-59.39 59.39c0 32.798 59.39 99.444 59.39 99.444s59.39-66.646 59.39-99.444A59.39 59.39 0 0 0 95.318.959Zm0 88.395a29.005 29.005 0 1 1 0-58.011 29.005 29.005 0 0 1 0 58.01Z"/>
  <path fill="#fff" stroke="#2E353A" stroke-linecap="round" stroke-linejoin="round" stroke-width=".662" d="M76.64 96.545 83.2 85.38l.116 4.029-3.914 7.826-2.762-.69Z"/>
  <path fill="#fff" d="M83.316 134.26a11.905 11.905 0 0 1-2.468 5.299c-2.095 2.592-4.93 7.647-5.064 12.454-.134 4.806-5.677 18.107-5.065 19.092.613.985 6.04 2.343 8.135 2.343 1.1 0 2.924.424 3.651-.649.042-.06-4.304-2.302-4.604-2.518-.299-.216-2.72-1.92-2.642-2.136 0 0 5.681-15.396 8.517-19.337 2.836-3.941 4.93-6.906 5.792-9.369.86-2.463 1.634-4.797 1.634-4.797l-7.886-.382Z"/>
  <mask id="a" width="22" height="40" x="70" y="134" maskUnits="userSpaceOnUse" style="mask-type:luminance">
    <path fill="#fff" d="M83.316 134.26a11.905 11.905 0 0 1-2.468 5.299c-2.095 2.592-4.93 7.647-5.064 12.454-.134 4.806-5.677 18.107-5.065 19.092.613.985 6.04 2.343 8.135 2.343 1.1 0 2.924.424 3.651-.649.042-.06-4.304-2.302-4.604-2.518-.299-.216-2.72-1.92-2.642-2.136 0 0 5.681-15.396 8.517-19.337 2.836-3.941 4.93-6.906 5.792-9.369.86-2.463 1.634-4.797 1.634-4.797l-7.886-.382Z"/>
  </mask>
  <g mask="url(#a)">
    <path fill="#92E3A9" d="M81.773 138.242a30.532 30.532 0 0 0 7.459 2.123c.138-.318.262-.626.368-.921.866-2.468 1.602-4.811 1.602-4.811l-7.886-.368a11.577 11.577 0 0 1-1.543 3.977Z" style="mix-blend-mode:multiply"/>
  </g>
  <path stroke="#2E353A" stroke-linecap="round" stroke-linejoin="round" stroke-width=".662" d="M83.316 134.26a11.905 11.905 0 0 1-2.468 5.299c-2.095 2.592-4.93 7.647-5.064 12.454-.134 4.806-5.677 18.107-5.065 19.092.613.985 6.04 2.343 8.135 2.343 1.1 0 2.924.424 3.651-.649.042-.06-4.304-2.302-4.604-2.518-.299-.216-2.72-1.92-2.642-2.136 0 0 5.681-15.396 8.517-19.337 2.836-3.941 4.93-6.906 5.792-9.369.86-2.463 1.634-4.797 1.634-4.797l-7.886-.382Z"/>
  <path fill="#fff" d="M101.156 135.268a11.911 11.911 0 0 1 2.302 5.378c.52 3.291 2.38 8.779 5.875 12.089 3.494 3.311 9.668 17.233 10.81 17.431 1.339.239 3.383-1.473 4.378-2.169 1.266-.884 4.171-2.688 4.604-4.249.52-1.796-1.326-.893-2.104-.313-1.009.75-6.041 1.381-6.041 1.381s-7.647-15.441-8.678-20.183c-1.031-4.742-1.842-8.287-3.089-10.589-1.248-2.302-2.5-4.406-2.5-4.406l-5.557 5.63Z"/>
  <mask id="b" width="29" height="42" x="101" y="129" maskUnits="userSpaceOnUse" style="mask-type:luminance">
    <path fill="#fff" d="M101.156 135.268a11.911 11.911 0 0 1 2.302 5.378c.52 3.291 2.38 8.779 5.875 12.089 3.494 3.311 9.668 17.233 10.81 17.431 1.339.239 3.383-1.473 4.378-2.169 1.266-.884 4.171-2.688 4.604-4.249.52-1.796-1.326-.893-2.104-.313-1.009.75-6.041 1.381-6.041 1.381s-7.647-15.441-8.678-20.183c-1.031-4.742-1.842-8.287-3.089-10.589-1.248-2.302-2.5-4.406-2.5-4.406l-5.557 5.63Z"/>
  </mask>
  <g mask="url(#b)">
    <path fill="#92E3A9" d="M109.213 134.057c-1.257-2.302-2.505-4.406-2.505-4.406l-5.552 5.617a11.654 11.654 0 0 1 2.021 4.144 45.796 45.796 0 0 0 7.366-1.957 17.883 17.883 0 0 0-1.33-3.398Z" style="mix-blend-mode:multiply"/>
  </g>
  <path stroke="#2E353A" stroke-linecap="round" stroke-linejoin="round" stroke-width=".662" d="M101.156 135.268a11.911 11.911 0 0 1 2.302 5.378c.52 3.291 2.38 8.779 5.875 12.089 3.494 3.311 9.668 17.233 10.81 17.431 1.339.239 3.383-1.473 4.378-2.169 1.266-.884 4.171-2.688 4.604-4.249.52-1.796-1.326-.893-2.104-.313-1.009.75-6.041 1.381-6.041 1.381s-7.647-15.441-8.678-20.183c-1.031-4.742-1.842-8.287-3.089-10.589-1.248-2.302-2.5-4.406-2.5-4.406l-5.557 5.63Z"/>
  <path fill="#fff" stroke="#2E353A" stroke-linecap="round" stroke-linejoin="round" stroke-width=".662" d="M129.129 163.748c.52-1.795-1.326-.893-2.104-.313-1.008.75-6.04 1.381-6.04 1.381s-.544-1.197-1.336-3.002c-.98.776-2.065 1.41-3.222 1.883 1.726 3.403 3.158 6.391 3.72 6.487 1.339.24 3.384-1.473 4.378-2.168 1.252-.903 4.157-2.707 4.604-4.268Z"/>
  <path fill="#fff" d="m83.481 109.657-4.277 23.604a32.565 32.565 0 0 0 6.128 3.066c3.37 1.225 9.208.921 9.208.921l2.302-11.487.92 10.723s4.443.46 7.661-.152c3.218-.613 8.425-3.987 8.425-3.987l-10.128-18.839-2.302-4.443-17.923-.461-.014 1.055Z"/>
  <mask id="c" width="35" height="30" x="79" y="108" maskUnits="userSpaceOnUse" style="mask-type:luminance">
    <path fill="#fff" d="m83.481 109.657-4.277 23.604a32.565 32.565 0 0 0 6.128 3.066c3.37 1.225 9.208.921 9.208.921l2.302-11.487.92 10.723s4.443.46 7.661-.152c3.218-.613 8.425-3.987 8.425-3.987l-10.128-18.839-2.302-4.443-17.923-.461-.014 1.055Z"/>
  </mask>
  <g mask="url(#c)">
    <path fill="#92E3A9" d="M96.989 123.206c1.556-1.947 2.118-13.397 2.118-13.397l-15.626-1.183v1.031L81.53 120.37c4.374 1.409 14.25 4.346 15.46 2.836Z" style="mix-blend-mode:multiply"/>
  </g>
  <path stroke="#2E353A" stroke-miterlimit="10" stroke-width=".662" d="m83.481 109.657-4.277 23.604a32.565 32.565 0 0 0 6.128 3.066c3.37 1.225 9.208.921 9.208.921l2.302-11.487.92 10.723s4.443.46 7.661-.152c3.218-.613 8.425-3.987 8.425-3.987l-10.128-18.839-2.302-4.443-17.923-.461-.014 1.055Z"/>
  <path fill="#2E353A" stroke="#2E353A" stroke-linecap="round" stroke-linejoin="round" stroke-width=".662" d="m109.903 91.02 8.748 2.302 3.568-10.589-13.352-2.532-2.992 9.783 4.028 1.036Z"/>
  <path stroke="#fff" stroke-linecap="round" stroke-linejoin="round" stroke-width=".662" d="m111.611 86.122 5.562 1.358m-6.1 0 5.561 1.358"/>
  <path fill="#fff" stroke="#2E353A" stroke-linecap="round" stroke-linejoin="round" stroke-width=".662" d="M100.81 91.596s2.763-1.497 3.684-2.763c.92-1.266 1.956-3.453 2.417-3.798.46-.345 2.762-1.496 3.222-1.841.461-.346 1.151.345.346 1.035-.806.691-2.532 2.187-2.532 2.187s.46 2.072-.116 2.763c-.307.38-.655.728-1.035 1.035l3.107.806s-2.072 1.496-2.992 1.727c-.913.175-1.835.29-2.763.345l-3.798 2.993.46-4.49Z"/>
  <path fill="#2E353A" stroke="#2E353A" stroke-linecap="round" stroke-linejoin="round" stroke-width=".662" d="M88.38 66.454s-3.683 5.363-4.604 11.643c-.921 6.28-.304 31.56-.304 31.56s4.898 1.989 8.747 1.989c3.85 0 9.498.308 9.668-1.842.171-2.15-1.072-26.808-2.762-32.784a44.119 44.119 0 0 0-5.064-11.05s-3.84-2.582-5.681.484Z"/>
  <path fill="#fff" stroke="#2E353A" stroke-linecap="round" stroke-linejoin="round" stroke-width=".662" d="m96.782 71.108-4.95 31.537 4.375 1.611 1.956-30.27-1.381-2.878ZM85.825 54.235s.612 2.91 1.841 4.443c1.23 1.533 3.522 2.302 3.522 2.302l-.658 3.485 4.29 2.606 1.575-7.472.46-8.886s-10.745 1.837-11.03 3.522Z"/>
  <path fill="#2E353A" stroke="#2E353A" stroke-linecap="round" stroke-linejoin="round" stroke-width=".662" d="M85.825 54.235s.612 2.91 1.841 4.443c1.23 1.533 3.522 2.302 3.522 2.302s3.683-1.073 3.982-3.522c.221-1.768-.11-4.802-.317-6.363-3.126.617-8.807 1.92-9.028 3.14Z"/>
  <path fill="#fff" d="M92.095 54.995s-1.533-1.842-2.45-1.073c-.915.769-.616 2.914.461 3.987s2.454.152 2.454.152.612 1.989 1.685 2.91c1.073.92 4.747 1.533 5.985.612 1.239-.92.764-4.291.764-4.291s2.146-1.073 1.994-1.842c-.152-.768-1.69-1.38-1.69-1.989a8.544 8.544 0 0 0-.152-1.38v-1.23l-7.044 1.533s-.925 3.531-2.007 2.61Z"/>
  <mask id="d" width="14" height="13" x="89" y="50" maskUnits="userSpaceOnUse" style="mask-type:luminance">
    <path fill="#fff" d="M92.095 54.995s-1.533-1.842-2.45-1.073c-.915.769-.616 2.914.461 3.987s2.454.152 2.454.152.612 1.989 1.685 2.91c1.073.92 4.747 1.533 5.985.612 1.239-.92.764-4.291.764-4.291s2.146-1.073 1.994-1.842c-.152-.768-1.69-1.38-1.69-1.989a8.544 8.544 0 0 0-.152-1.38v-1.23l-7.044 1.533s-.925 3.531-2.007 2.61Z"/>
  </mask>
  <g mask="url(#d)">
    <path fill="#92E3A9" d="M94.098 52.398a9.376 9.376 0 0 1-.856 2.122c2.762-.124 5.713-.299 8.356-.529a.832.832 0 0 1-.304-.52 8.543 8.543 0 0 0-.152-1.381v-1.24l-7.044 1.547Z" opacity=".5" style="mix-blend-mode:multiply"/>
  </g>
  <path stroke="#2E353A" stroke-linecap="round" stroke-linejoin="round" stroke-width=".662" d="M92.095 54.995s-1.533-1.842-2.45-1.073c-.915.769-.616 2.914.461 3.987s2.454.152 2.454.152.612 1.989 1.685 2.91c1.073.92 4.747 1.533 5.985.612 1.239-.92.764-4.291.764-4.291s2.146-1.073 1.994-1.842c-.152-.768-1.69-1.38-1.69-1.989a8.544 8.544 0 0 0-.152-1.38v-1.23l-7.044 1.533s-.925 3.531-2.007 2.61Z"/>
  <path fill="#fff" stroke="#2E353A" stroke-linecap="round" stroke-linejoin="round" stroke-width=".662" d="m85.825 54.235 15.317-3.384s-2.146-7.509-4.747-8.121c-2.601-.612-7.66-.92-10.418 1.841-2.758 2.763-.152 9.664-.152 9.664Z"/>
  <path fill="#2E353A" stroke="#2E353A" stroke-linecap="round" stroke-linejoin="round" stroke-width=".662" d="M96.087 52.09a44.71 44.71 0 0 0 6.128.92c2.762.152 9.037-2.302 7.509-2.453-1.529-.152-8.582.308-8.582.308l-5.055 1.225Z"/>
  <path fill="#fff" stroke="#2E353A" stroke-linecap="round" stroke-linejoin="round" stroke-width=".662" d="m88.997 63.236-1.382 3.066 6.897 4.286 1.377-4.286-6.892-3.066ZM74.799 95.279l24.515 6.33-2.546 17.928a2.095 2.095 0 0 1-1.733 1.775 2.095 2.095 0 0 1-.877-.04l-22.287-5.791a1.665 1.665 0 0 1-1.207-1.975L74.8 95.279Z"/>
  <path stroke="#2E353A" stroke-linecap="round" stroke-linejoin="round" stroke-width=".662" d="M74.799 95.279s5.787 14.042 9.332 15.883c3.545 1.842 15.193-9.539 15.193-9.539"/>
  <path fill="#fff" stroke="#2E353A" stroke-linecap="round" stroke-linejoin="round" stroke-width=".662" d="M79.665 89.128s-1.534 3.37-1.073 4.604c.46 1.234 19.456 8.121 19.456 8.121s.152 2.601.612 3.223c.395.674.704 1.395.921 2.145 0 0-.92 2.146-.46 2.606.46.461 1.841-2.145 1.841-2.91 0-.764.152-4.903-.304-5.985-.455-1.082-13.484-9.037-13.484-9.037l-7.51-2.767Z"/>
  <path fill="#2E353A" d="m88.076 70.745-8.885 18.839 7.964 2.302 6.437-15.014"/>
  <path stroke="#2E353A" stroke-linecap="round" stroke-linejoin="round" stroke-width=".662" d="m88.076 70.745-8.885 18.839 7.964 2.302 6.437-15.014"/>
  <path stroke="#fff" stroke-linecap="round" stroke-linejoin="round" stroke-width=".662" d="m87.155 91.886 5.865-13.154m-2.011 4.83 2.95-2.951"/>
  <path stroke="#2E353A" stroke-linecap="round" stroke-linejoin="round" stroke-width=".662" d="M82.261 132.768a22.52 22.52 0 0 0 11.943 2.473m-13.941-3.679s.355.267 1.013.663m28.848-.539a18.251 18.251 0 0 0 1.699-1.045m-13.485 4.001a26.806 26.806 0 0 0 10.433-2.265m-11.961-6.634 3.305-5.723m-3.125 5.424 5.51-6.248m-19.567 3.766-.46 3.398a14.046 14.046 0 0 0 3.683 1.841c2.206.737 6.906.645 6.906.645l.645-3.223s-8.177-.921-9.83-2.302"/>
  <path stroke="#2E353A" stroke-linecap="round" stroke-linejoin="round" stroke-width=".662" d="M82.386 127.644s-1.29 3.126-.46 3.863c.828.737 6.703 2.937 8.286 2.762 1.584-.175 2.477-4.042 2.477-4.042"/>
  <path fill="#2E353A" stroke="#2E353A" stroke-linecap="round" stroke-linejoin="round" stroke-width=".662" d="M129.129 163.748c.52-1.795-1.326-.893-2.104-.313-1.008.75-6.04 1.381-6.04 1.381l-.613-1.381a10.611 10.611 0 0 1-3.121 1.906c1.34 2.661 2.412 4.751 2.882 4.83 1.34.239 3.384-1.474 4.378-2.169 1.266-.888 4.171-2.693 4.618-4.254Z"/>
  <path fill="#fff" stroke="#2E353A" stroke-linecap="round" stroke-linejoin="round" stroke-width=".662" d="M125.303 166.262c-2.072 1.077-4.489 2.385-5.884 3.117.304.46.548.759.714.787 1.34.239 3.384-1.473 4.378-2.169 1.266-.884 4.171-2.688 4.604-4.249.221-.755 0-1.031-.345-1.054-.765 1.28-1.952 2.794-3.467 3.568Zm-47.369 4.019c-.221-.166-2.721-1.92-2.643-2.136 0 0 .502-1.349 1.27-3.347a14.338 14.338 0 0 1-3.83-1.032c-1.224 3.72-2.302 6.879-1.998 7.339.612.985 6.04 2.343 8.135 2.343 1.1 0 2.924.424 3.651-.649.041-.06-4.305-2.311-4.585-2.518Z"/>
  <path fill="#2E353A" stroke="#2E353A" stroke-linecap="round" stroke-linejoin="round" stroke-width=".662" d="M82.52 172.799c.04-.06-4.305-2.302-4.605-2.518-.299-.216-2.72-1.92-2.642-2.136l.488-1.303a19.608 19.608 0 0 1-3.711-1.059c-.92 2.79-1.57 4.945-1.335 5.322.612.985 6.04 2.343 8.135 2.343 1.119 0 2.942.424 3.67-.649Z"/>
  <path fill="#fff" stroke="#2E353A" stroke-linecap="round" stroke-linejoin="round" stroke-width=".662" d="M78.21 172.431c-2.822-.17-5.958-1.331-7.49-1.966a1.133 1.133 0 0 0 0 .64c.612.985 6.04 2.343 8.134 2.343 1.1 0 2.924.424 3.651-.649a4.534 4.534 0 0 0-.649-.382 26.256 26.256 0 0 1-3.646.014Z"/>
  <path stroke="#000" stroke-linecap="round" stroke-linejoin="round" stroke-width=".662" d="m95.29 52.103-2.459-5.842m-.308-1.073s-.768-1.694-.151-2.463"/>
</svg>
