<svg width="32" height="32" viewBox="0 0 32 32" fill="none" xmlns="http://www.w3.org/2000/svg">
<path fill-rule="evenodd" clip-rule="evenodd" d="M27.2 16.0004C27.2 16.6631 26.6627 17.2004 26 17.2004L8.97928 17.2004L15.6317 23.5354C16.1094 23.9947 16.1243 24.7544 15.6649 25.2321C15.2056 25.7098 14.4459 25.7247 13.9682 25.2654L5.16822 16.8654C4.93293 16.6391 4.79995 16.3268 4.79995 16.0004C4.79995 15.674 4.93293 15.3616 5.16822 15.1354L13.9682 6.73539C14.4459 6.27604 15.2056 6.29093 15.665 6.76866C16.1243 7.24639 16.1094 8.00604 15.6317 8.46539L8.97928 14.8004L26 14.8004C26.6627 14.8004 27.2 15.3377 27.2 16.0004Z" fill="#71CC9B"/>
</svg>
