<svg width="222" height="128" viewBox="0 0 222 128" fill="none" xmlns="http://www.w3.org/2000/svg">
<path d="M173.305 78.0568V78.3526C172.67 77.6066 172.022 76.867 171.38 76.1275C171.111 75.8188 170.841 75.5101 170.571 75.2014C169.429 73.9023 168.28 72.6076 167.125 71.3171C165.963 70.0309 164.802 68.7447 163.627 67.4649C163.345 67.1562 163.062 66.8476 162.773 66.5389C162.542 66.2795 162.291 66.0386 162.022 65.8185C161.751 65.5925 161.44 65.4201 161.105 65.3105C160.719 65.2033 160.312 65.1989 159.924 65.2977C159.481 65.4006 159.057 65.5614 158.627 65.6964C158.184 65.8443 157.748 65.9858 157.305 66.1272C156.42 66.4167 155.54 66.7061 154.655 66.9955C154.644 66.9998 154.632 67.002 154.621 67.0019C154.609 67.0019 154.598 66.9995 154.587 66.995C154.577 66.9905 154.567 66.984 154.559 66.9758C154.551 66.9675 154.545 66.9578 154.54 66.9471L154.539 66.944C154.534 66.9318 154.532 66.9187 154.532 66.9055C154.533 66.8923 154.536 66.8794 154.543 66.8678C154.549 66.8561 154.557 66.8459 154.568 66.838C154.578 66.8301 154.59 66.8245 154.603 66.8218C154.822 66.7511 155.046 66.6804 155.271 66.6096C156.163 66.3138 157.048 66.0244 157.941 65.735C158.383 65.5871 158.826 65.4456 159.269 65.3041C159.68 65.1478 160.114 65.0609 160.553 65.0469C161.27 65.0985 161.942 65.4147 162.44 65.9344C162.716 66.1916 162.966 66.4617 163.216 66.7382C163.511 67.0598 163.807 67.3813 164.102 67.7029C165.289 69.002 166.468 70.3053 167.638 71.6129C168.813 72.9249 169.977 74.2389 171.13 75.5551C171.213 75.6516 171.297 75.7481 171.38 75.8446C172.028 76.5776 172.664 77.3172 173.305 78.0568Z" fill="white"/>
<path d="M161.923 67.0026C161.68 66.6896 161.357 66.449 160.988 66.3066L160.623 66.3195C163.488 70.7859 167.24 74.6125 171.647 77.5603C168.406 74.041 165.164 70.5218 161.923 67.0026Z" fill="white"/>
<path d="M221.703 113.419L207.163 35.4111C206.914 34.1251 206.237 32.962 205.242 32.1125C204.247 31.263 202.993 30.7774 201.687 30.7354C201.569 30.7327 201.452 30.7327 201.334 30.7354L191.43 31.0914L190.364 31.1306L185.42 31.3087L184.354 31.3453L181.175 31.4605L117.059 33.767C116.963 33.7722 116.863 33.7722 116.767 33.7695L102.4 33.4685L97.0828 33.3585L96.9129 33.3559L92.9887 33.2722L58.7938 32.5601L49.7278 32.3689L45.2575 32.2773L44.1863 32.2537L39.089 32.149L38.0204 32.1255L32.8054 32.0181L31.7368 31.9946L26.0072 31.8741L25.1084 31.8558L19.998 31.7485L19.1907 31.7328H19.0732C17.7164 31.7383 16.4054 32.2243 15.3717 33.1048C14.338 33.9854 13.6483 35.2038 13.4245 36.5446L0.274861 117.492C0.141327 118.312 0.187301 119.151 0.409588 119.952C0.631875 120.752 1.02515 121.495 1.5622 122.128C2.09925 122.761 2.76722 123.269 3.51983 123.618C4.27245 123.967 5.09171 124.147 5.92088 124.147H81.438C82.5495 124.15 83.6311 124.508 84.5262 125.168L85.9579 126.231C86.9447 126.959 88.137 127.353 89.3623 127.357C103.947 123.499 119.282 123.499 133.867 127.357C134.619 127.359 135.364 127.211 136.058 126.923C136.753 126.634 137.384 126.21 137.914 125.676C138.82 124.768 140.03 124.228 141.31 124.16L216.378 120.197C217.192 120.154 217.988 119.938 218.711 119.562C219.435 119.186 220.07 118.66 220.575 118.018C221.079 117.376 221.44 116.634 221.635 115.84C221.829 115.047 221.853 114.222 221.703 113.419Z" fill="#CCCCCC"/>
<path d="M201.131 101.254C201.035 103.898 199.895 106.395 197.962 108.196C196.029 109.998 193.461 110.957 190.823 110.862C186.464 110.707 181.262 110.63 175.616 110.748C157.178 111.143 134.015 113.686 120.082 122.83C118.33 123.982 116.261 124.551 114.168 124.456C114.014 124.447 113.865 124.437 113.711 124.424C111.541 124.225 109.497 123.317 107.893 121.84C100.217 114.803 82.6132 106.281 42.3173 105.681C42.1496 105.681 41.9865 105.672 41.8234 105.663C40.5182 105.581 39.2421 105.242 38.0678 104.665C36.8936 104.088 35.8443 103.285 34.98 102.302C34.1156 101.318 33.4531 100.174 33.0304 98.934C32.6077 97.694 32.433 96.3827 32.5163 95.075L36.4766 32.0958L37.0702 22.6564L38.1123 6.1431C38.2174 4.48009 38.9504 2.91955 40.1623 1.77853C41.3743 0.637508 42.9743 0.00159812 44.6373 0H44.678L68.6843 0.14075C78.7979 0.599325 87.1746 1.8903 93.8143 4.01367C96.0823 4.7184 98.2888 5.60827 100.412 6.67434C103.311 8.0829 105.916 10.0322 108.088 12.4179C109.44 13.9419 111.285 14.9401 113.298 15.2374C113.611 15.2842 113.925 15.313 114.241 15.3237C116.098 15.4007 117.93 14.8752 119.465 13.8254C135.148 3.29631 167.106 2.49721 184.755 2.95125C187.224 3.00893 189.582 3.98519 191.371 5.68986C193.16 7.39454 194.252 9.70554 194.434 12.1727L195.15 21.5667L195.861 30.9334L199.967 85.0681L201.108 100.128C201.136 100.503 201.144 100.879 201.131 101.254Z" fill="#F2F2F2"/>
<path d="M48.2895 22.1609C62.7563 17.536 78.896 18.7604 92.6012 25.276C96.5117 27.1254 100.205 29.4047 103.613 32.0718C104.577 32.8299 105.948 31.4738 104.974 30.7076C92.3861 20.9242 76.5695 16.2766 60.7021 17.6987C56.3123 18.0923 51.9785 18.9647 47.7776 20.3005C46.6016 20.6764 47.1043 22.5398 48.2895 22.1609Z" fill="#3F3D56"/>
<path d="M127.895 32.8213C141.345 25.7373 157.452 24.1925 172.076 28.2137C176.245 29.3574 180.274 30.9626 184.089 32.9998C185.182 33.5841 186.156 31.9192 185.061 31.3339C171.123 23.8817 154.392 22.1662 139.171 26.3203C134.925 27.4813 130.818 29.1025 126.923 31.1553C125.826 31.7333 126.798 33.399 127.895 32.8213Z" fill="#3F3D56"/>
<path d="M127.895 45.6826C141.345 38.5986 157.452 37.0539 172.076 41.075C176.245 42.2187 180.274 43.8239 184.089 45.8611C185.182 46.4454 186.156 44.7806 185.061 44.1952C171.123 36.743 154.392 35.0275 139.171 39.1817C134.925 40.3426 130.818 41.9639 126.923 44.0167C125.826 44.5946 126.798 46.2603 127.895 45.6826Z" fill="#3F3D56"/>
<path d="M185.532 57.8549C185.542 57.6893 185.502 57.5245 185.418 57.3819C185.333 57.2393 185.208 57.1254 185.058 57.0552C173.892 51.1968 161.232 48.8207 148.707 50.2327C148.629 50.239 148.557 50.2516 148.472 50.2579H148.469C148.391 50.2648 148.315 50.2764 148.239 50.2925C140.79 51.1515 133.563 53.3834 126.924 56.8758C126.779 56.9622 126.659 57.0848 126.576 57.2316C126.493 57.3785 126.449 57.5444 126.449 57.7133V81.7071C126.452 81.8547 126.487 81.9999 126.554 82.1316C126.621 82.2633 126.716 82.3781 126.834 82.4673C126.951 82.5565 127.088 82.6177 127.232 82.6464C127.377 82.675 127.526 82.6703 127.668 82.6327C127.964 82.5477 128.259 82.4659 128.561 82.3871C135.273 80.5666 142.163 79.4866 149.11 79.1663C149.257 79.16 149.405 79.1537 149.559 79.1474C155.216 78.9039 160.885 79.1081 166.51 79.7582C166.628 79.7649 166.745 79.7775 166.862 79.7959C167.151 79.8274 167.446 79.8621 167.735 79.8998C167.852 79.9124 167.962 79.925 168.069 79.9439C169.193 80.0856 170.309 80.2462 171.427 80.4193C173.042 80.6775 174.657 80.9651 176.272 81.282C176.373 81.3009 176.477 81.3261 176.58 81.345C179.172 81.8613 181.752 82.4595 184.319 83.1207C184.462 83.1576 184.612 83.1616 184.756 83.1322C184.901 83.1029 185.037 83.0411 185.154 82.9513C185.272 82.8616 185.367 82.7463 185.434 82.6143C185.5 82.4822 185.536 82.3367 185.538 82.1887V57.8927C185.539 57.8798 185.537 57.8668 185.532 57.8549Z" fill="#3F3D56"/>
<path d="M150.217 51.5412C149.511 51.1951 148.703 51.1239 147.948 51.3415C147.615 51.4668 147.309 51.6572 147.05 51.9016C146.791 52.1461 146.582 52.4397 146.437 52.7655C146.175 53.3902 146.008 54.0503 145.94 54.7243C145.9 54.9894 145.897 55.3239 146.163 55.4477C146.26 55.4828 146.364 55.4908 146.465 55.4708C146.565 55.4508 146.659 55.4036 146.735 55.3343C146.872 55.1986 146.985 55.0404 147.069 54.8665C147.531 54.1466 148.166 53.555 148.917 53.1463C149.667 52.7375 150.508 52.5248 151.362 52.5278L152.073 52.8118C151.514 52.307 150.889 51.8797 150.217 51.5412Z" fill="#FF6582"/>
<path d="M157.91 57.0716C157.359 56.2578 156.705 55.389 155.681 55.1233C154.496 54.8156 153.278 55.4269 152.245 56.0301C149.173 57.8226 146.199 59.7774 143.334 61.8861L143.337 61.9177L149.987 61.5087C151.588 61.4102 153.245 61.2981 154.66 60.6224C155.168 60.3031 155.736 60.0912 156.329 59.9996C156.697 60.0196 157.057 60.1123 157.389 60.2725C157.721 60.4327 158.018 60.6572 158.262 60.933C161.327 63.8437 162.214 68.2947 165.652 70.852C163.464 66.0478 160.874 61.4379 157.91 57.0716Z" fill="white"/>
<path d="M149.56 79.1472C149.406 79.1536 149.258 79.16 149.111 79.1665C148.039 78.7806 146.942 78.4398 145.831 78.1439C145.112 77.951 144.381 77.7773 143.649 77.6295C142.821 77.4494 141.987 77.3079 141.152 77.1857C139.564 76.9542 137.963 76.8189 136.358 76.7806C136.346 76.7819 136.334 76.7807 136.322 76.7769C136.31 76.7731 136.3 76.767 136.291 76.7588C136.282 76.7506 136.274 76.7406 136.269 76.7294C136.264 76.7182 136.262 76.706 136.262 76.6938C136.262 76.6815 136.264 76.6694 136.269 76.6582C136.274 76.647 136.282 76.637 136.291 76.6288C136.3 76.6206 136.31 76.6144 136.322 76.6107C136.334 76.6069 136.346 76.6056 136.358 76.607C136.564 76.607 136.769 76.6134 136.968 76.6263C138.576 76.6858 140.179 76.8426 141.769 77.0957C142.597 77.2308 143.425 77.3915 144.246 77.5716C144.99 77.7388 145.735 77.9254 146.467 78.1311C147.513 78.4269 148.544 78.7656 149.56 79.1472Z" fill="white"/>
<path d="M168.07 79.9444C167.961 79.9251 167.852 79.9122 167.736 79.8994C167.293 79.5329 166.844 79.1856 166.375 78.8447C165.791 78.4202 165.188 78.0215 164.572 77.6485C163.207 76.8186 161.783 76.092 160.31 75.4749C157.982 74.5034 155.572 73.7415 153.109 73.1983C150.3 72.5815 147.456 72.1348 144.593 71.8606C141.73 71.5648 138.855 71.3848 135.98 71.2047C135.858 71.1982 135.851 71.0182 135.98 71.0246C136.339 71.0503 136.698 71.0696 137.064 71.0953C139.972 71.2754 142.879 71.4812 145.767 71.8092C148.631 72.1168 151.471 72.6108 154.271 73.2883C156.661 73.8785 158.994 74.6812 161.241 75.6871C162.534 76.269 163.786 76.9372 164.989 77.6871C165.753 78.1694 166.491 78.6839 167.197 79.2306C167.492 79.462 167.787 79.6936 168.07 79.9444Z" fill="white"/>
<path d="M166.863 79.797C166.747 79.7781 166.629 79.7652 166.51 79.7584C166.376 79.6491 166.234 79.5462 166.093 79.4433C165.105 78.7346 164.074 78.0881 163.006 77.5075C162.036 76.9793 161.04 76.5007 160.022 76.0734C157.695 75.0991 155.285 74.3372 152.821 73.7969C150.011 73.1801 147.167 72.7334 144.304 72.4593C141.442 72.1634 138.566 71.9834 135.691 71.8033C135.569 71.7904 135.569 71.6168 135.691 71.6232C136.057 71.649 136.416 71.6682 136.776 71.694C139.683 71.874 142.59 72.0798 145.479 72.4078C148.342 72.7153 151.183 73.2094 153.982 73.887C156.373 74.476 158.705 75.2788 160.952 76.2857C161.8 76.6716 162.627 77.0896 163.436 77.5462C164.635 78.2059 165.781 78.9585 166.863 79.797Z" fill="white"/>
<path d="M176.58 81.3463C176.478 81.327 176.375 81.3013 176.272 81.282C176.157 81.1598 176.048 81.0312 175.938 80.9025C175.387 80.2659 174.841 79.6227 174.302 78.9732C172.178 76.4394 170.162 73.8284 168.263 71.166C166.632 68.8894 165.086 66.5678 163.622 64.2012C162.923 63.0822 162.249 61.9503 161.588 60.8056C161.074 59.9182 160.574 59.0286 160.086 58.1368C159.945 57.8795 159.81 57.6223 159.675 57.365C159.361 56.7605 159.046 56.1496 158.713 55.5515C158.35 54.8188 157.817 54.1837 157.159 53.6994C156.831 53.4788 156.45 53.348 156.055 53.32C155.499 53.322 154.952 53.4635 154.464 53.7315C150.873 55.407 147.486 57.4893 144.368 59.9374C141.323 62.3105 138.57 65.037 136.166 68.0598C136.089 68.1498 135.922 68.0662 135.993 67.9697C136.281 67.6096 136.577 67.2495 136.872 66.8957C139.182 64.1572 141.784 61.6795 144.631 59.5066C144.638 59.5001 144.651 59.4937 144.657 59.4873C144.907 59.2879 145.158 59.095 145.414 58.9085C147.004 57.7357 148.658 56.6535 150.369 55.6673C151.242 55.1592 152.134 54.6769 153.045 54.2203C153.27 54.1046 153.501 53.9888 153.732 53.8794C153.963 53.7637 154.194 53.6544 154.425 53.545C154.883 53.3113 155.383 53.1735 155.895 53.1399C157.679 53.1142 158.597 54.9149 159.232 56.1303C159.431 56.5098 159.637 56.8892 159.836 57.2686C160.606 58.7027 161.408 60.1304 162.242 61.5388C162.749 62.4134 163.276 63.2816 163.808 64.1434C164.572 65.3717 165.355 66.5871 166.17 67.7962C166.17 67.797 166.17 67.7979 166.171 67.7986C166.171 67.7994 166.171 67.8001 166.172 67.8007C166.173 67.8013 166.173 67.8018 166.174 67.8021C166.175 67.8025 166.176 67.8026 166.176 67.8027C167.12 69.2303 168.102 70.6322 169.116 72.0278C170.855 74.4137 172.678 76.746 174.584 79.0247C175.239 79.8093 175.904 80.5831 176.58 81.3463Z" fill="white"/>
<path d="M153.683 52.9433L153.505 53.0211C153.098 52.333 152.528 51.7563 151.846 51.3421C151.163 50.928 150.389 50.6892 149.592 50.6471C146.964 50.4601 144.656 52.2147 144.446 54.5582C144.361 55.5232 144.64 56.4851 145.228 57.2542L145.063 57.3518C144.451 56.5508 144.16 55.5491 144.249 54.5442C144.467 52.1038 146.871 50.2765 149.608 50.4713C150.437 50.5151 151.244 50.7637 151.955 51.1949C152.666 51.6262 153.259 52.2268 153.683 52.9433Z" fill="#FF6582"/>
<path d="M140.699 57.686C140.009 57.3855 139.258 57.2537 138.508 57.3016C137.757 57.3495 137.029 57.5756 136.383 57.9613C138.741 58.3239 141.079 58.8105 143.386 59.4192C142.431 58.9199 141.684 58.1375 140.699 57.686Z" fill="white"/>
<path d="M136.369 57.959L136.109 58.1472C136.197 58.0813 136.289 58.0196 136.382 57.9611L136.369 57.959Z" fill="white"/>
<path d="M144.19 59.0505C144.087 58.9476 143.984 58.8447 143.88 58.7418C143.081 57.8706 142.119 57.1653 141.048 56.6658C140.503 56.4358 139.919 56.3149 139.327 56.31C138.716 56.3243 138.112 56.4418 137.54 56.6575C137.271 56.7534 137.008 56.8622 136.749 56.9781C136.453 57.111 136.162 57.2527 135.873 57.3956C135.329 57.6638 134.793 57.9437 134.264 58.2354C133.211 58.8159 132.191 59.4407 131.204 60.1097C130.692 60.4567 130.191 60.8151 129.7 61.1848C129.244 61.5282 128.797 61.8809 128.359 62.2428C128.266 62.3198 128.126 62.1951 128.219 62.1181C128.335 62.0222 128.452 61.9269 128.568 61.8329C128.898 61.5671 129.233 61.3063 129.573 61.0507C130.194 60.5837 130.83 60.1348 131.483 59.7039C132.497 59.0335 133.547 58.4085 134.632 57.8291C135.174 57.5397 135.723 57.2625 136.28 56.9975C136.448 56.9175 136.619 56.8393 136.791 56.7652C137.184 56.5886 137.589 56.4413 138.004 56.3247C138.599 56.1539 139.221 56.0994 139.836 56.1641C140.426 56.2395 140.998 56.4159 141.527 56.6858C142.576 57.2751 143.523 58.0314 144.33 58.9253C144.414 59.0099 144.275 59.1352 144.19 59.0505Z" fill="white"/>
<path d="M48.2895 35.0242C62.7563 30.3993 78.896 31.6237 92.6012 38.1392C96.5117 39.9887 100.205 42.2679 103.613 44.9351C104.577 45.6932 105.948 44.3371 104.974 43.5709C92.3861 33.7875 76.5695 29.1399 60.7021 30.5619C56.3123 30.9556 51.9785 31.828 47.7776 33.1638C46.6016 33.5397 47.1043 35.4031 48.2895 35.0242Z" fill="#3F3D56"/>
<path d="M48.2895 47.8855C62.7563 43.2606 78.896 44.485 92.6012 51.0006C96.5117 52.85 100.205 55.1293 103.613 57.7964C104.577 58.5545 105.948 57.1984 104.974 56.4322C92.3861 46.6488 76.5695 42.0012 60.7021 43.4233C56.3123 43.8169 51.9785 44.6893 47.7776 46.0251C46.6016 46.4011 47.1043 48.2644 48.2895 47.8855Z" fill="#3F3D56"/>
<path d="M48.2895 60.7478C62.7563 56.1229 78.896 57.3473 92.6012 63.8629C96.5117 65.7123 100.205 67.9916 103.613 70.6587C104.577 71.4168 105.948 70.0608 104.974 69.2945C92.3861 59.5111 76.5695 54.8635 60.7021 56.2856C56.3123 56.6792 51.9785 57.5516 47.7776 58.8874C46.6016 59.2634 47.1043 61.1267 48.2895 60.7478Z" fill="#3F3D56"/>
<path d="M48.2895 73.6101C62.7563 68.9852 78.896 70.2096 92.6012 76.7252C96.5117 78.5746 100.205 80.8539 103.613 83.521C104.577 84.2791 105.948 82.9231 104.974 82.1568C92.3861 72.3734 76.5695 67.7258 60.7021 69.1479C56.3123 69.5415 51.9785 70.4139 47.7776 71.7497C46.6016 72.1257 47.1043 73.989 48.2895 73.6101Z" fill="#3F3D56"/>
<path d="M48.2895 86.4714C62.7563 81.8465 78.896 83.0709 92.6012 89.5865C96.5117 91.4359 100.205 93.7152 103.613 96.3824C104.577 97.1405 105.948 95.7844 104.974 95.0181C92.3861 85.2347 76.5695 80.5872 60.7021 82.0092C56.3123 82.4028 51.9785 83.2753 47.7776 84.611C46.6016 84.987 47.1043 86.8503 48.2895 86.4714Z" fill="#3F3D56"/>
<path d="M100.412 6.67432V37.5169C100.412 38.1299 99.3425 38.6429 97.9016 38.7837C97.8893 38.7829 97.877 38.7845 97.8653 38.7882C97.6252 38.8064 97.3714 38.82 97.1132 38.82C96.3187 38.8346 95.5282 38.7054 94.7796 38.4386C94.7116 38.4114 94.6437 38.3796 94.5757 38.3524C94.5123 38.316 94.4443 38.2843 94.3809 38.2479C94.0229 38.0345 93.8145 37.7848 93.8145 37.5169V4.01367C96.0825 4.71839 98.289 5.60826 100.412 6.67432Z" fill="#8AD6AD"/>
<path d="M114.239 13.8281H113.297V123.811H114.239V13.8281Z" fill="#E6E6E6"/>
</svg>
