<svg xmlns="http://www.w3.org/2000/svg" width="227" height="169" fill="none" viewBox="0 0 227 169">
  <path fill="#EBEBEB" d="M204.255 155.944h-15.037v.114h15.037v-.114Zm-53.881 1.235h-3.945v.114h3.945v-.114Zm38.39-5.448h-8.712v.114h8.712v-.114Zm-145.339.763H23.817v.114h19.608v-.114Zm6.919 0H47.47v.114h2.874v-.114Zm51.874 1.916h-42.53v.113h42.53v-.113Zm6.016-26.019H20.566a2.593 2.593 0 0 1-2.592-2.592V2.569A2.592 2.592 0 0 1 20.566 0h87.668a2.596 2.596 0 0 1 2.395 1.6 2.6 2.6 0 0 1 .197.992V125.8a2.6 2.6 0 0 1-.759 1.833 2.592 2.592 0 0 1-1.833.759ZM20.566.091a2.484 2.484 0 0 0-2.479 2.479v123.229a2.481 2.481 0 0 0 2.48 2.479h87.667a2.481 2.481 0 0 0 2.478-2.479V2.569a2.48 2.48 0 0 0-2.478-2.478H20.566Zm185.868 128.3h-87.668a2.595 2.595 0 0 1-2.592-2.592V2.569A2.594 2.594 0 0 1 118.766 0h87.668a2.593 2.593 0 0 1 2.592 2.592V125.8a2.593 2.593 0 0 1-2.592 2.592ZM118.766.091a2.483 2.483 0 0 0-2.478 2.479v123.229a2.481 2.481 0 0 0 2.478 2.479h87.668a2.484 2.484 0 0 0 2.479-2.479V2.569a2.486 2.486 0 0 0-2.479-2.478h-87.668ZM227 148.64H0v.113h227v-.113Z"/>
  <path fill="#F0F0F0" d="M54.176 117.926c-.382-4.385-4.858-6.024-10.165-5.561-5.307.463-9.425 2.856-9.053 7.241l19.218-1.68Zm-10.338-7.563c2.46-.218 3.246-2.297 3.033-4.758-.214-2.461-1.362-4.372-3.814-4.159-2.451.214-3.246 2.298-3.032 4.758.213 2.461 1.352 4.372 3.813 4.159Z"/>
  <path fill="#F5F5F5" d="M154.405 24.516a2.468 2.468 0 0 1-2.728 2.673 2.474 2.474 0 0 1-2.103-1.764 2.468 2.468 0 0 1 2.157-3.152 2.47 2.47 0 0 1 2.674 2.243Zm13.652-1.208a2.464 2.464 0 1 1-4.91.428 2.464 2.464 0 0 1 4.91-.428Zm13.656-1.194a2.467 2.467 0 0 1-2.728 2.673 2.474 2.474 0 0 1-2.103-1.764 2.476 2.476 0 0 1 .826-2.618 2.47 2.47 0 0 1 4.005 1.71Zm-26.091 16.303a2.468 2.468 0 0 1-2.728 2.673 2.467 2.467 0 0 1-2.087-3.198 2.47 2.47 0 0 1 3.942-1.15c.501.421.815 1.024.873 1.675Zm13.652-1.189a2.466 2.466 0 1 1-4.911.425 2.466 2.466 0 0 1 4.911-.425Zm13.656-1.198a2.468 2.468 0 0 1-2.728 2.672 2.467 2.467 0 0 1-2.087-3.198 2.47 2.47 0 0 1 4.815.525Zm-26.091 16.307a2.465 2.465 0 1 1-4.912.425 2.465 2.465 0 0 1 4.912-.425Zm13.656-1.198a2.468 2.468 0 0 1-2.728 2.672 2.467 2.467 0 0 1-2.087-3.198 2.47 2.47 0 0 1 4.815.526Zm13.652-1.199a2.468 2.468 0 0 1-2.728 2.673 2.467 2.467 0 0 1-2.103-1.764 2.468 2.468 0 0 1 2.157-3.152 2.469 2.469 0 0 1 2.674 2.243Z"/>
  <path fill="#E6E6E6" d="M181.196 50.748 153.148 53.2l24.87-30.219-25.474 2.23a.534.534 0 0 1-.586-.495.543.543 0 0 1 .491-.586l28.052-2.451-24.874 30.218 25.483-2.23a.549.549 0 0 1 .59.495.543.543 0 0 1-.298.53.552.552 0 0 1-.206.056Z"/>
  <path fill="#F0F0F0" d="M181.627 104.697a.705.705 0 0 0-.613-.486 4.893 4.893 0 0 1-3.237-1.43c-1.121-1.13-1.779-2.842-1.888-4.876a.726.726 0 0 0-.718-.68.733.733 0 0 0-.686.48.76.76 0 0 0-.045.29c.128 2.389.936 4.432 2.311 5.808a6.358 6.358 0 0 0 4.027 1.847h.105a.728.728 0 0 0 .771-.6.73.73 0 0 0-.027-.353Z"/>
  <path fill="#F0F0F0" d="M180.174 113.409c-6.015-.526-10.355-4.626-11.726-11.027a.742.742 0 0 1 .102-.565.742.742 0 0 1 .479-.316.72.72 0 0 1 .528.11.722.722 0 0 1 .307.444c1.23 5.752 5.089 9.438 10.442 9.906 5.866.513 12.163-3.346 13.293-13.07a.729.729 0 0 1 1.284-.39.717.717 0 0 1 .16.54c-1.085 9.17-7.114 15.045-14.869 14.368Zm-11.35-17.406a.724.724 0 0 1-.658-.8c1.081-9.17 7.11-15.05 14.86-14.368 6.81.594 11.372 5.68 12.085 13.338a.722.722 0 0 1-.177.533.716.716 0 0 1-1.021.066.728.728 0 0 1-.246-.49c-.658-6.9-4.73-11.472-10.764-11.999-5.843-.513-12.167 3.341-13.293 13.057a.724.724 0 0 1-.504.631.726.726 0 0 1-.282.032Z"/>
  <path fill="#F0F0F0" d="M180.47 109.518a9.83 9.83 0 0 1-3.128-.78.734.734 0 0 1-.35-1.017.718.718 0 0 1 .908-.318c.947.406 1.958.64 2.987.69 4.445.254 9.139-2.897 9.602-10.506.282-4.69-1.325-8.476-4.322-10.287a.725.725 0 0 1 .471-1.34c.1.012.196.045.283.096 3.473 2.097 5.334 6.356 5.017 11.618-.454 7.336-5.022 12.221-11.137 11.872l-.331-.028Zm-6.465-4.526a.738.738 0 0 1-1.049-.241 14.693 14.693 0 0 1-1.703-8.172c.427-7.023 4.636-11.804 10.352-11.885a.729.729 0 0 1 .523 1.25.729.729 0 0 1-.487.203c-4.241.081-8.499 3.286-8.935 10.519-.22 2.555.307 5.12 1.516 7.382a.713.713 0 0 1-.217.953v-.009Z"/>
  <path fill="#F0F0F0" d="M183.929 104.42a.726.726 0 0 1 .295-.908c1.912-1.149 3.083-3.56 3.101-6.47 0-2.329-.658-4.299-1.902-5.547a4.994 4.994 0 0 0-3.682-1.444c-2.238 0-4.054 1.23-5.058 3.391a.722.722 0 0 1-.908.368.742.742 0 0 1-.422-.408.737.737 0 0 1 .014-.587c1.244-2.646 3.573-4.212 6.356-4.217a6.46 6.46 0 0 1 4.717 1.87c1.521 1.526 2.347 3.864 2.329 6.588-.027 3.428-1.471 6.306-3.823 7.718a.73.73 0 0 1-.587.049.75.75 0 0 1-.258-.156.743.743 0 0 1-.172-.247Z"/>
  <path fill="#F0F0F0" d="M178.699 99.058a.728.728 0 0 1-.981-.504 6.32 6.32 0 0 1-.118-.608c-.413-2.724 1.049-5.08 3.396-5.502a3.582 3.582 0 0 1 3.119.803.707.707 0 0 1 .149.865.704.704 0 0 1-.208.234l-.045.031a.722.722 0 0 1-.908-.068 2.155 2.155 0 0 0-1.866-.454c-1.789.323-2.47 2.184-2.216 3.855.027.163.055.322.096.454a.733.733 0 0 1-.432.858l.014.036Zm2.402 2.797a.675.675 0 0 1-.509-1.031l.064-.1a.666.666 0 0 1 .622-.313c.227.013.456 0 .681-.041 1.561-.281 2.27-1.734 2.27-3.214a.73.73 0 0 1 1.188-.588.727.727 0 0 1 .264.529c.041 2.37-1.362 4.327-3.464 4.703a4.134 4.134 0 0 1-1.116.055Z"/>
  <path fill="#F0F0F0" d="M181.423 99.172a1.765 1.765 0 0 1-1.562-1.33.652.652 0 0 1 .686-.813h.168a.656.656 0 0 1 .558.454.313.313 0 0 0 .277.236c.35.032.409-.454.418-.572a.87.87 0 0 0-.096-.513.792.792 0 0 1-.181-.54.724.724 0 0 1 .931-.639.73.73 0 0 1 .354.235c.354.447.517 1.017.454 1.584-.118 1.194-.958 1.989-2.007 1.898Zm-13.656-16.249a.72.72 0 0 1-.659-.785l.55-6.297 6.297.554a.714.714 0 0 1 .492.255.718.718 0 0 1 .166.53.724.724 0 0 1-.504.631.726.726 0 0 1-.282.032l-4.848-.427-.422 4.849a.724.724 0 0 1-.259.493.723.723 0 0 1-.531.165Zm29.932 2.62a.719.719 0 0 1-.629-.504.744.744 0 0 1-.03-.282l.423-4.849-4.849-.422a.723.723 0 0 1-.629-.507.728.728 0 0 1-.029-.283.718.718 0 0 1 .785-.658l6.297.55-.549 6.31a.727.727 0 0 1-.79.645Zm-2.229 33.859-6.297-.549a.737.737 0 0 1-.493-.259.727.727 0 0 1-.165-.531.716.716 0 0 1 .503-.629.747.747 0 0 1 .282-.03l4.849.423.422-4.845a.728.728 0 0 1 1.448.123l-.549 6.297Zm-25.084-2.206-6.297-.554.55-6.293a.732.732 0 0 1 1.062-.582.73.73 0 0 1 .386.709l-.422 4.84 4.844.427a.716.716 0 0 1 .494.255.719.719 0 0 1 .169.53.734.734 0 0 1-.786.668Z"/>
  <path fill="#E0E0E0" d="M33.928 103.571a.455.455 0 0 1-.486-.409l-.336-3.868 3.868-.34a.455.455 0 0 1 .486.408.454.454 0 0 1-.409.482l-2.978.263.258 2.978a.455.455 0 0 1-.404.486Zm18.405-1.612a.455.455 0 0 1-.486-.404l-.259-2.983-2.983.264a.454.454 0 0 1-.486-.409.455.455 0 0 1 .409-.486l3.868-.335.34 3.868a.452.452 0 0 1-.403.485Zm1.907 16.667-3.873.34a.455.455 0 0 1-.486-.408.456.456 0 0 1 .409-.486l2.978-.259-.259-2.978a.455.455 0 0 1 .404-.486.451.451 0 0 1 .486.404l.34 3.873Zm-15.427 1.348-3.855.336-.34-3.873a.455.455 0 0 1 .408-.481.454.454 0 0 1 .481.404l.264 2.983 2.978-.263a.455.455 0 0 1 .486.408.458.458 0 0 1-.251.44.464.464 0 0 1-.172.046Z"/>
  <path fill="#EBEBEB" d="m52.02 39.044-14.792 1.271-.304-3.464a6.552 6.552 0 0 1 13.016-1.144l.173 2.016 2.138-.186-.177-2.016a8.691 8.691 0 0 0-17.316 1.516l.304 3.487a3.477 3.477 0 0 0-2.796 3.714l1.058 12.094a3.477 3.477 0 0 0 3.768 3.178l16.584-1.448a3.477 3.477 0 0 0 3.178-3.768l-1.057-12.095a3.477 3.477 0 0 0-3.778-3.155Zm-6.293 9.32.363 4.164a1.242 1.242 0 0 1-2.057 1.11 1.245 1.245 0 0 1-.417-.892l-.363-4.168a2.089 2.089 0 1 1 2.474-.213Z"/>
  <path fill="#F0F0F0" d="m77.38 46.031-1.494-2.447a8.052 8.052 0 0 1-2.27 0l-1.498 2.438-.286-.077a11.094 11.094 0 0 1-2.77-1.149l-.254-.145.631-2.652a.4.4 0 0 1 .781.187l-.5 2.065a10.53 10.53 0 0 0 2.03.845l1.462-2.388.268.045a8.074 8.074 0 0 0 2.56 0l.264-.045 1.462 2.388a10.305 10.305 0 0 0 2.03-.845l-.65-2.724.218-.159a7.976 7.976 0 0 0 1.575-1.502.4.4 0 0 1 .66.034.394.394 0 0 1-.024.452 8.748 8.748 0 0 1-1.53 1.507l.667 2.783-.259.145c-.865.506-1.795.892-2.764 1.149l-.31.095Zm-9.18-5.33a6.369 6.369 0 0 1-.363-.454l-2.783.667-.15-.254c-.503-.868-.889-1.8-1.149-2.77l-.072-.285 2.438-1.498a8.052 8.052 0 0 1 0-2.27l-2.438-1.494.072-.29a11.39 11.39 0 0 1 1.149-2.765l.15-.26 2.783.668a8.628 8.628 0 0 1 1.616-1.616l-.504-2.107a.4.4 0 0 1 .595-.433.395.395 0 0 1 .177.247l.63 2.624-.217.155a7.972 7.972 0 0 0-1.816 1.816l-.159.218-2.724-.65a10.297 10.297 0 0 0-.844 2.03l2.383 1.462-.04.263a7.26 7.26 0 0 0 0 2.56l.04.268-2.383 1.462c.209.703.492 1.382.844 2.025l2.724-.65.159.219c.141.206.293.404.454.595a.395.395 0 0 1 0 .544.396.396 0 0 1-.572-.027Zm16.226.223-1.026-.246a.4.4 0 0 1 .186-.776l.454.105c.35-.644.632-1.323.84-2.025l-2.384-1.462.046-.268a7.265 7.265 0 0 0 0-2.56l-.046-.264 2.384-1.462a10.281 10.281 0 0 0-.84-2.03l-2.724.65-.154-.218a8.065 8.065 0 0 0-1.816-1.816l-.218-.154.649-2.724a10.282 10.282 0 0 0-2.03-.84l-1.475 2.406-.263-.045a8.074 8.074 0 0 0-2.56 0l-.269.045-1.448-2.397-.272.082a.39.39 0 0 1-.49-.241.4.4 0 0 1 .24-.518c.2-.063.404-.122.604-.177l.286-.077 1.498 2.443a7.717 7.717 0 0 1 2.27 0l1.494-2.443.29.077a11.31 11.31 0 0 1 2.765 1.149l.259.15-.668 2.783a8.514 8.514 0 0 1 1.617 1.616l2.783-.667.15.259c.504.866.89 1.796 1.148 2.764l.077.29-2.442 1.495a7.63 7.63 0 0 1 0 2.27l2.442 1.498-.077.286a11.32 11.32 0 0 1-1.148 2.77l-.132.272Zm-9.797-2.062a3.936 3.936 0 0 1-3.778-3.777 3.895 3.895 0 0 1 3.442-3.977.404.404 0 0 1 .454.4.395.395 0 0 1-.35.39 3.093 3.093 0 1 0 2.883 1.299.386.386 0 0 1 .064-.518.4.4 0 0 1 .594.073 3.886 3.886 0 0 1-3.305 6.11h-.004Z"/>
  <path fill="#E6E6E6" d="m49.173 79.264-.967-1.575a5.07 5.07 0 0 1-1.476 0l-.967 1.575-.186-.05a7.224 7.224 0 0 1-1.789-.74l-.163-.095.408-1.717a.259.259 0 0 1 .31-.19.258.258 0 0 1 .19.313l-.318 1.335c.417.228.856.41 1.312.545l.944-1.54.169.028c.548.09 1.108.09 1.657 0l.168-.028.948 1.54c.454-.137.892-.32 1.308-.545l-.418-1.753.141-.104c.382-.274.724-.6 1.017-.967a.254.254 0 0 1 .354-.055.26.26 0 0 1 .06.364 5.75 5.75 0 0 1-.99.976l.453 1.816-.168.095a7.162 7.162 0 0 1-1.788.74l-.21.032Zm-5.93-3.446-.236-.286-1.816.427-.095-.164a7.227 7.227 0 0 1-.722-1.793l-.05-.186 1.576-.967a5.025 5.025 0 0 1 0-1.476l-1.576-.967.05-.186a7.158 7.158 0 0 1 .74-1.789l.096-.168 1.816.454a5.984 5.984 0 0 1 1.012-1.071l-.322-1.362a.254.254 0 0 1 .384-.277.262.262 0 0 1 .115.159l.409 1.693-.146.105a5.08 5.08 0 0 0-1.166 1.167l-.105.14-1.752-.417a6.977 6.977 0 0 0-.545 1.307l1.54.945-.028.172c-.047.273-.071.55-.073.826.002.279.026.557.073.831l.027.168-1.539.944c.136.455.319.895.545 1.313l1.752-.423.105.141c.094.134.195.263.304.386a.254.254 0 0 1 0 .35.253.253 0 0 1-.372.004Zm10.483.14-.662-.154a.259.259 0 0 1-.15-.404.254.254 0 0 1 .268-.1l.286.069c.228-.417.41-.857.544-1.313l-1.539-.944.028-.168a5.13 5.13 0 0 0 .072-.83 5.063 5.063 0 0 0-.072-.827l-.028-.172 1.54-.945a6.689 6.689 0 0 0-.545-1.307l-1.753.417-.104-.14a5.081 5.081 0 0 0-1.167-1.167l-.14-.105.417-1.752a6.697 6.697 0 0 0-1.308-.545l-.948 1.54-.168-.028a5.074 5.074 0 0 0-1.657 0l-.169.027-.944-1.539-.177.055a.254.254 0 0 1-.318-.16.254.254 0 0 1 .155-.33l.39-.119.186-.045.967 1.575a5.07 5.07 0 0 1 1.476 0l.967-1.575.186.045a7.343 7.343 0 0 1 1.789.745l.168.095-.454 1.816c.39.303.741.653 1.044 1.044l1.816-.454.095.168c.327.56.576 1.162.74 1.79l.05.185-1.575.967c.073.49.073.987 0 1.476l1.575.967-.05.186a7.224 7.224 0 0 1-.74 1.789l-.09.168Zm-6.328-1.33a2.515 2.515 0 0 1-.218-4.993.264.264 0 0 1 .29.258.254.254 0 0 1-.227.255 1.998 1.998 0 1 0 1.862.84.259.259 0 0 1 .427-.291 2.515 2.515 0 0 1-2.134 3.95v-.019Z"/>
  <path fill="#F5F5F5" d="M113.5 168.893c48.616 0 88.026-2.301 88.026-5.14 0-2.838-39.41-5.139-88.026-5.139-48.615 0-88.026 2.301-88.026 5.139 0 2.839 39.41 5.14 88.026 5.14Z"/>
  <path fill="#71CC9B" d="M165.006 41.237h-14.782l-10.442 119.515h14.782a8.497 8.497 0 0 0 8.29-7.627l9.121-104.266a6.872 6.872 0 0 0-1.761-5.386 6.875 6.875 0 0 0-5.208-2.236Z"/>
  <path fill="#71CC9B" d="M161.992 41.237h-50.031a8.5 8.5 0 0 0-8.295 7.622l-9.12 104.266a6.886 6.886 0 0 0 6.959 7.627h50.027a8.502 8.502 0 0 0 8.276-7.627l9.121-104.266a6.885 6.885 0 0 0-1.751-5.374 6.878 6.878 0 0 0-5.186-2.248Z"/>
  <path fill="#fff" d="M161.992 41.237h-50.031a8.5 8.5 0 0 0-8.295 7.622l-9.12 104.266a6.886 6.886 0 0 0 6.959 7.627h50.027a8.502 8.502 0 0 0 8.276-7.627l9.121-104.266a6.885 6.885 0 0 0-1.751-5.374 6.878 6.878 0 0 0-5.186-2.248Z" opacity=".3"/>
  <path fill="#fff" d="M161.779 43.68h-13.194a1.967 1.967 0 0 0-1.816 1.252 7.262 7.262 0 0 1-6.642 4.645h-7.781a5.843 5.843 0 0 1-5.834-4.631 1.574 1.574 0 0 0-1.576-1.253h-13.188a5.767 5.767 0 0 0-5.634 5.18L96.988 153.14a4.672 4.672 0 0 0 4.731 5.184h50.031a5.77 5.77 0 0 0 5.634-5.184l9.121-104.266a4.674 4.674 0 0 0-4.726-5.194Z" opacity=".4"/>
  <path fill="#fff" d="M149.312 100.334h-35.013a1.7 1.7 0 0 1-1.642-1.17c-.074-.228-.1-.47-.074-.71l.177-2.006a2.095 2.095 0 0 1 2.043-1.88h35.017a1.695 1.695 0 0 1 1.642 1.17c.075.228.1.47.074.71l-.172 2.006a2.102 2.102 0 0 1-2.052 1.88Zm-.754 8.626h-35.017a1.684 1.684 0 0 1-.7-.139 1.685 1.685 0 0 1-.939-1.031 1.709 1.709 0 0 1-.073-.71l.173-2.006a2.096 2.096 0 0 1 2.043-1.88h35.017a1.698 1.698 0 0 1 1.716 1.88l-.177 2.006a2.1 2.1 0 0 1-2.043 1.88Z"/>
  <path fill="#000" d="M138.674 45.632a2.32 2.32 0 0 1-2.27 2.084 1.883 1.883 0 0 1-1.82-1.297 1.878 1.878 0 0 1-.082-.787 2.323 2.323 0 0 1 2.27-2.084 1.88 1.88 0 0 1 1.902 2.084Z" opacity=".1"/>
  <path fill="#000" d="M137.73 45.632a1.272 1.272 0 0 1-1.239 1.139 1.025 1.025 0 0 1-1.04-1.14 1.269 1.269 0 0 1 1.239-1.139 1.034 1.034 0 0 1 .995.71c.045.138.061.285.045.43Z" opacity=".1"/>
  <path fill="#fff" d="M155.618 49.11a.553.553 0 0 1-.535-.383.56.56 0 0 1-.024-.23l.1-1.118a.675.675 0 0 1 .663-.608.556.556 0 0 1 .533.379.56.56 0 0 1 .025.23l-.1 1.116a.678.678 0 0 1-.662.613Zm4.885 0a.553.553 0 0 1-.535-.383.56.56 0 0 1-.024-.23l.232-2.62a.673.673 0 0 1 .663-.609.547.547 0 0 1 .415.18.543.543 0 0 1 .143.43l-.232 2.618a.678.678 0 0 1-.662.613Zm-2.443 0a.556.556 0 0 1-.534-.383c-.024-.074-.033-.153-.024-.23l.163-1.867a.683.683 0 0 1 .668-.613.548.548 0 0 1 .554.613l-.164 1.866a.683.683 0 0 1-.663.613Zm-44.269 0h-3.069a.308.308 0 0 1-.314-.346l.141-1.648a.388.388 0 0 1 .377-.345h3.069a.312.312 0 0 1 .235.101c.03.033.052.072.066.114a.32.32 0 0 1 .012.13l-.145 1.648a.376.376 0 0 1-.372.345Zm1.421-.45a.308.308 0 0 1-.237-.101.314.314 0 0 1-.067-.114.302.302 0 0 1-.014-.13l.068-.754a.384.384 0 0 1 .377-.345.305.305 0 0 1 .235.101c.03.033.052.072.066.114a.32.32 0 0 1 .012.13l-.063.754a.385.385 0 0 1-.377.345Z" opacity=".8"/>
  <path fill="#fff" d="M143.542 87.136c6.11-5.848 6.719-15.126 1.361-20.723-5.358-5.596-14.653-5.392-20.763.456-6.109 5.848-6.718 15.127-1.361 20.723 5.358 5.597 14.654 5.393 20.763-.456Z"/>
  <path fill="#71CC9B" d="M133.894 76.445c-3.85 0-7.105 1.466-7.382 4.648l-.309 3.537h13.951l.309-3.537c.277-3.182-2.715-4.648-6.569-4.648Zm.127-1.458c1.789 0 2.615-1.448 2.769-3.237.155-1.789-.413-3.237-2.202-3.237-1.788 0-2.61 1.453-2.769 3.237-.159 1.784.413 3.237 2.202 3.237Zm13.692 22.342c-.948 0-1.752.363-1.816 1.148l-.077.876h3.446l.077-.876c.064-.785-.676-1.148-1.63-1.148Zm.032-.359c.454 0 .645-.359.686-.8.041-.44-.105-.798-.545-.798-.44 0-.645.358-.685.799-.041.44.104.799.544.799Zm-10.637 20.616h-13.62a2.595 2.595 0 0 1-1.968-.847 2.6 2.6 0 0 1-.665-2.036 3.214 3.214 0 0 1 3.137-2.883h13.62a2.608 2.608 0 0 1 2.633 2.883 3.21 3.21 0 0 1-3.137 2.883Zm-1.648 32.152h-14.578a2.72 2.72 0 0 1-2.778-3.046l.93-10.633a3.396 3.396 0 0 1 1.076-2.152 3.391 3.391 0 0 1 2.234-.894h14.583a2.745 2.745 0 0 1 2.778 3.046l-.931 10.633a3.395 3.395 0 0 1-3.314 3.046Z"/>
  <path fill="#fff" d="M130.966 138.742a1.65 1.65 0 0 0-1.671-1.816 2.037 2.037 0 0 0-1.993 1.816 1.657 1.657 0 0 0 .613 1.467l-.318 3.664a.977.977 0 0 0 .588 1.01.974.974 0 0 0 .406.079 1.211 1.211 0 0 0 1.18-1.089l.323-3.664a2.033 2.033 0 0 0 .872-1.467Z" opacity=".6"/>
  <path fill="#71CC9B" d="M137.054 135.228h-1.88l.454-5.261a5.187 5.187 0 0 0-1.323-4.051 5.18 5.18 0 0 0-3.912-1.688 6.397 6.397 0 0 0-6.238 5.739l-.454 5.261h-1.879l.454-5.261a8.476 8.476 0 0 1 2.695-5.376 8.477 8.477 0 0 1 5.581-2.238 6.866 6.866 0 0 1 5.194 2.238 6.879 6.879 0 0 1 1.757 5.376l-.449 5.261Zm10.891-29.841.059-.513a.862.862 0 0 0-.038-.353.86.86 0 0 0-.816-.582 1.043 1.043 0 0 0-1.016.935l-.046.504a.418.418 0 0 0-.404.377l-.118 1.362a.336.336 0 0 0 .084.264.319.319 0 0 0 .117.082.32.32 0 0 0 .14.026h1.87a.416.416 0 0 0 .404-.372l.118-1.362a.342.342 0 0 0-.354-.368Zm-.849-1.208a.64.64 0 0 1 .645.704l-.046.504h-1.407l.045-.504a.786.786 0 0 1 .763-.704Z"/>
  <path fill="#263238" d="m119.788 105.927-.654-.136a.12.12 0 0 1-.05-.023.118.118 0 0 1-.035-.042.12.12 0 0 1-.001-.107l.272-.645a.121.121 0 0 0 .003-.088.127.127 0 0 0-.139-.086.134.134 0 0 0-.077.042l-.495.509a.124.124 0 0 1-.044.035.124.124 0 0 1-.111 0 .12.12 0 0 1-.045-.035l-.404-.509c-.086-.109-.272 0-.24.132l.159.645a.156.156 0 0 1 .002.057.178.178 0 0 1-.021.054.142.142 0 0 1-.095.061l-.676.136c-.146.027-.164.232-.023.259l.654.136a.12.12 0 0 1 .096.12.128.128 0 0 1-.015.053l-.263.649a.13.13 0 0 0-.003.087.124.124 0 0 0 .054.069.13.13 0 0 0 .086.018.131.131 0 0 0 .076-.042l.495-.509a.132.132 0 0 1 .046-.032.124.124 0 0 1 .054-.011.132.132 0 0 1 .1.043l.404.509c.086.109.273 0 .236-.132l-.159-.645a.153.153 0 0 1 .024-.11.148.148 0 0 1 .094-.062l.677-.136c.141-.032.159-.237.018-.264Zm4.295 0-.654-.136a.12.12 0 0 1-.05-.023.118.118 0 0 1-.035-.042.12.12 0 0 1-.001-.107l.272-.645a.127.127 0 0 0-.213-.132l-.495.509a.124.124 0 0 1-.044.035.124.124 0 0 1-.111 0 .12.12 0 0 1-.045-.035l-.404-.509c-.086-.109-.272 0-.236.132l.159.645a.137.137 0 0 1 0 .057.143.143 0 0 1-.022.054.16.16 0 0 1-.042.04.138.138 0 0 1-.054.021l-.677.136c-.145.027-.163.232-.022.259l.653.136a.131.131 0 0 1 .051.023.118.118 0 0 1 .047.096.112.112 0 0 1-.011.054l-.273.644a.133.133 0 0 0-.003.088c.01.028.029.053.054.069a.13.13 0 0 0 .163-.025l.495-.508a.135.135 0 0 1 .045-.033.145.145 0 0 1 .109 0 .135.135 0 0 1 .045.033l.404.508c.087.109.273 0 .241-.132l-.159-.644a.156.156 0 0 1-.001-.057.146.146 0 0 1 .022-.053.142.142 0 0 1 .093-.063l.676-.136c.145-.027.164-.232.023-.259Zm4.295 0-.65-.136a.12.12 0 0 1-.088-.064.125.125 0 0 1-.012-.054c0-.019.005-.038.014-.054l.272-.645a.126.126 0 0 0-.043-.175.129.129 0 0 0-.096-.015.124.124 0 0 0-.078.058l-.491.509a.128.128 0 0 1-.045.035.125.125 0 0 1-.057.013.121.121 0 0 1-.056-.013.123.123 0 0 1-.046-.035l-.404-.509c-.086-.109-.273 0-.236.132l.159.645a.146.146 0 0 1-.114.172l-.676.136c-.146.027-.164.232-.023.259l.649.136a.127.127 0 0 1 .085.065.113.113 0 0 1 .013.054.14.14 0 0 1-.011.054l-.273.644a.132.132 0 0 0-.015.097.128.128 0 0 0 .233.035l.49-.508a.15.15 0 0 1 .046-.033.14.14 0 0 1 .109 0 .145.145 0 0 1 .045.033l.409.508c.086.109.272 0 .236-.132l-.159-.644a.15.15 0 0 1 .113-.173l.677-.136c.127-.027.163-.232.023-.259Zm4.299 0-.654-.136a.12.12 0 0 1-.05-.023.118.118 0 0 1-.035-.042.12.12 0 0 1-.001-.107l.272-.645a.121.121 0 0 0 .003-.088.127.127 0 0 0-.139-.086.134.134 0 0 0-.077.042l-.495.509a.124.124 0 0 1-.044.035.121.121 0 0 1-.056.013.117.117 0 0 1-.055-.013.12.12 0 0 1-.045-.035l-.404-.509c-.086-.109-.272 0-.24.132l.159.645a.156.156 0 0 1 .002.057.178.178 0 0 1-.021.054.142.142 0 0 1-.095.061l-.676.136c-.146.027-.164.232 0 .259l.653.136a.118.118 0 0 1 .082.173l-.268.644a.133.133 0 0 0-.003.088c.01.028.029.053.054.069a.13.13 0 0 0 .163-.025l.495-.508a.135.135 0 0 1 .045-.033.145.145 0 0 1 .109 0 .135.135 0 0 1 .045.033l.404.508c.087.109.273 0 .236-.132l-.158-.644a.15.15 0 0 1 .023-.111.154.154 0 0 1 .095-.062l.676-.136c.123-.027.141-.232 0-.259Zm4.295 0-.654-.136a.12.12 0 0 1-.05-.023.118.118 0 0 1-.035-.042.12.12 0 0 1-.001-.107l.272-.645a.121.121 0 0 0 .003-.088.127.127 0 0 0-.139-.086.134.134 0 0 0-.077.042l-.495.509a.124.124 0 0 1-.044.035.124.124 0 0 1-.111 0 .12.12 0 0 1-.045-.035l-.404-.509c-.086-.109-.272 0-.236.132l.159.645a.137.137 0 0 1 0 .057.143.143 0 0 1-.022.054.145.145 0 0 1-.096.061l-.677.136c-.145.027-.163.232-.022.259l.654.136a.134.134 0 0 1 .05.023.135.135 0 0 1 .035.043.133.133 0 0 1 .013.053.125.125 0 0 1-.012.054l-.273.644a.133.133 0 0 0-.003.088c.01.028.029.053.054.069a.13.13 0 0 0 .163-.025l.495-.508a.135.135 0 0 1 .045-.033.145.145 0 0 1 .109 0 .135.135 0 0 1 .045.033l.404.508c.087.109.273 0 .241-.132l-.159-.644a.137.137 0 0 1 0-.057.142.142 0 0 1 .114-.116l.676-.136c.159-.027.159-.232.023-.259Zm4.295 0-.654-.136a.113.113 0 0 1-.05-.022.114.114 0 0 1-.046-.097c0-.019.005-.037.014-.053l.273-.645a.147.147 0 0 0 .017-.047.135.135 0 0 0-.024-.094.13.13 0 0 0-.036-.034.14.14 0 0 0-.047-.017.14.14 0 0 0-.05.002.135.135 0 0 0-.078.058l-.491.509a.143.143 0 0 1-.045.036.139.139 0 0 1-.113 0 .137.137 0 0 1-.046-.036l-.404-.509c-.086-.109-.272 0-.236.132l.159.645a.137.137 0 0 1 0 .057.14.14 0 0 1-.061.093.146.146 0 0 1-.053.022l-.676.136c-.145.028-.164.232-.023.259l.649.136a.126.126 0 0 1 .086.066.118.118 0 0 1 .012.053.112.112 0 0 1-.011.054l-.273.644a.131.131 0 0 0-.014.097.127.127 0 0 0 .232.035l.491-.508a.135.135 0 0 1 .045-.033.145.145 0 0 1 .109 0 .135.135 0 0 1 .045.033l.404.508c.021.024.05.04.081.045a.14.14 0 0 0 .154-.084.135.135 0 0 0 .006-.093l-.159-.644a.15.15 0 0 1 .114-.173l.676-.136c.145-.027.163-.231.023-.259Zm-10.356-9.402h-8.063a1.012 1.012 0 0 0-.99.908.819.819 0 0 0 .831.908h8.063a1.01 1.01 0 0 0 .99-.908.815.815 0 0 0-.211-.641.834.834 0 0 0-.62-.267Zm8.19 0h-4.681a1.008 1.008 0 0 0-.985.908.813.813 0 0 0 .208.64.82.82 0 0 0 .619.268h4.662a1.005 1.005 0 0 0 .985-.908.808.808 0 0 0-.201-.634.83.83 0 0 0-.607-.274Zm6.179 41.155a20.56 20.56 0 0 0-7.532 4.994 8.955 8.955 0 0 0-4.417-1.816l-.214-.032-.091 1.072.119.045a8.32 8.32 0 0 1 4.235 3.487l.155.254.168-.272a19.73 19.73 0 0 1 7.681-7.065l.105-.054.059-.708-.268.095Z"/>
  <path fill="#000" d="M104.711 48.292a8.155 8.155 0 0 0-1.044 3.291l-6.76 77.28h20.92l4.204-16.112-1.385-16.117 4.204-16.112-1.362-16.113 4.204-16.117h-22.981Z" opacity=".2"/>
  <path fill="#71CC9B" d="m121.649 59.869 4.205-16.117H72.949l-4.2 16.117 1.38 16.112-4.199 16.113 1.38 16.117-4.2 16.112h52.901l4.204-16.112-1.385-16.117 4.204-16.113-1.385-16.112Z"/>
  <path fill="#fff" d="m121.649 59.869 4.205-16.117H72.949l-4.2 16.117 1.38 16.112-4.199 16.113 1.38 16.117-4.2 16.112h52.901l4.204-16.112-1.385-16.117 4.204-16.113-1.385-16.112Z" opacity=".7"/>
  <path fill="#fff" d="M121.649 59.869h-52.9l4.2-16.117h52.905l-4.205 16.117Zm-2.819 32.225h-52.9l4.2-16.113h52.904l-4.204 16.113Zm-2.819 32.229H63.106l4.204-16.112h52.905l-4.204 16.112Z" opacity=".5"/>
  <path fill="#000" d="M114.572 66.602a5.784 5.784 0 0 1-1.671.227 4.652 4.652 0 0 1-2.22-.454.813.813 0 0 0-.413-.114.823.823 0 0 0-.382.1h-.027a2.671 2.671 0 0 1-.645.259c-.508.134-1.031.2-1.557.195h-.454a5.49 5.49 0 0 1-1.203-.213.816.816 0 0 0-.177-.032.726.726 0 0 0-.785.722v.49H84.444a2.877 2.877 0 0 0-2.878 2.883v2.901a2.879 2.879 0 0 0 2.878 2.888h23.549c.25.209.513.417.795.63.281.214.681.51 1.048.772a.739.739 0 0 0 .863 0c2.942-2.133 4.831-3.604 4.831-7.645v-2.906a.734.734 0 0 0-.616-.73.728.728 0 0 0-.342.027Z" opacity=".2"/>
  <path fill="#71CC9B" d="M107.389 66.189h-23.39a2.883 2.883 0 0 0-2.883 2.883v2.9A2.883 2.883 0 0 0 84 74.857h23.39a2.883 2.883 0 0 0 2.883-2.883v-2.901a2.883 2.883 0 0 0-2.883-2.883Z"/>
  <path fill="#71CC9B" d="M112.451 65.23a4.68 4.68 0 0 1-2.22-.453.78.78 0 0 0-.817 0 4.682 4.682 0 0 1-2.224.454 5.808 5.808 0 0 1-1.671-.227.726.726 0 0 0-.958.69v2.905c0 4.045 1.889 5.516 4.83 7.65a.739.739 0 0 0 .863 0c2.942-2.133 4.831-3.605 4.831-7.65v-2.905a.738.738 0 0 0-.305-.591.732.732 0 0 0-.658-.1 5.784 5.784 0 0 1-1.671.228Z"/>
  <path fill="#fff" d="M112.451 65.23a4.68 4.68 0 0 1-2.22-.453.78.78 0 0 0-.817 0 4.682 4.682 0 0 1-2.224.454 5.808 5.808 0 0 1-1.671-.227.726.726 0 0 0-.958.69v2.905c0 4.045 1.889 5.516 4.83 7.65a.739.739 0 0 0 .863 0c2.942-2.133 4.831-3.605 4.831-7.65v-2.905a.738.738 0 0 0-.305-.591.732.732 0 0 0-.658-.1 5.784 5.784 0 0 1-1.671.228Z" opacity=".3"/>
  <path fill="#fff" d="M109.414 64.768a4.682 4.682 0 0 1-2.224.454 5.829 5.829 0 0 1-1.671-.227.729.729 0 0 0-.958.69v2.905c0 4.045 1.889 5.516 4.83 7.65a.742.742 0 0 0 .454.141V64.65a.791.791 0 0 0-.431.118Z" opacity=".2"/>
  <path fill="#263238" d="M114.041 67.81a11.807 11.807 0 0 0-4.595 3.236 6.328 6.328 0 0 0-2.965-1.184h-.14v.694l.077.027a6.076 6.076 0 0 1 2.942 2.27l.113.164.096-.177a11.261 11.261 0 0 1 4.571-4.577l.069-.031v-.454l-.168.031Z"/>
  <path fill="#71CC9B" d="M124.918 48.287h-2.006a1.816 1.816 0 0 1-1.839-2.015l.177-2.007a2.237 2.237 0 0 1 2.188-2.016h2.007a1.816 1.816 0 0 1 1.843 2.016l-.177 2.007a2.268 2.268 0 0 1-2.193 2.015Z"/>
  <path fill="#fff" d="m125.754 44.26-.436-.48-1.099 1.007-.917-1.008-.522.481.921 1.008-1.094 1.008.436.477 1.094-1.008.922 1.008.517-.477-.921-1.008 1.099-1.008Z"/>
  <path fill="#B55B52" d="M80.072 65.598c1.162 1.267 2.27 2.58 3.373 3.9 1.103 1.321 2.17 2.67 3.233 4.023.045.059.027.036.036.054.009.018 0 .023 0 .028a.163.163 0 0 0 .032.045.51.51 0 0 0 .486.209.53.53 0 0 0 .081 0h.041c.023 0 0 0 .073-.028l1.135-.617c1.525-.808 3.064-1.598 4.653-2.306l1.33 1.648c-1.28 1.176-2.615 2.651-3.963 3.732l-1.017.799c-.063.051-.13.098-.2.14a4.823 4.823 0 0 1-.75.404c-.35.148-.72.25-1.097.305a4.693 4.693 0 0 1-3.315-.758 4.057 4.057 0 0 1-.454-.36c-.077-.063-.14-.135-.213-.204l-.182-.181a172.192 172.192 0 0 1-3.55-3.746 102.854 102.854 0 0 1-3.41-3.868l3.678-3.219Z"/>
  <path fill="#B55B52" d="m92.616 71.904 1.058-3.4 2.787 1.39s-.408 2.478-2.433 2.91l-1.412-.9Z"/>
  <path fill="#B55B52" d="m94.786 67.564 2.515.69-.844 1.64-2.788-1.39 1.117-.94Zm-29.369-1.039c-.3 1.443-.672 2.873-1.058 4.299a116.657 116.657 0 0 1-1.249 4.25l-.163.53-.082.264a.523.523 0 0 1-.045.109c-.052.146-.081.3-.087.454-.01.33.083.655.264.93.09.122.188.236.295.341l.377.413.744.831c.486.563.976 1.126 1.44 1.716l-1.585 1.816c-.654-.372-1.28-.776-1.907-1.176l-.93-.617-.454-.313c-.155-.11-.282-.182-.532-.386a5.289 5.289 0 0 1-1.743-2.929 5.645 5.645 0 0 1-.086-1.77c0-.146.045-.309.068-.454l.05-.273.095-.544c.254-1.458.527-2.91.83-4.354a76.872 76.872 0 0 1 1.018-4.304l4.74 1.167Z"/>
  <path fill="#B55B52" d="m64.3 80.517 1.87-.958.827 3.178s-1.503.577-2.665-.163l-.032-2.057Z"/>
  <path fill="#B55B52" d="m68.758 78.537.086 2.924-2.093 1.367-.726-3.21 2.733-1.08Z"/>
  <path fill="#263238" d="M74.883 51.515c.045.223.204.382.35.355.144-.028.23-.237.185-.454-.045-.218-.204-.382-.35-.355-.144.028-.23.241-.185.454Z"/>
  <path fill="#A02724" d="M75.064 51.901a8.267 8.267 0 0 0 1.467 1.707 1.324 1.324 0 0 1-1.035.423l-.432-2.13Z"/>
  <path fill="#263238" d="M73.807 50.435a.136.136 0 0 1-.1-.227 1.361 1.361 0 0 1 1.148-.454.136.136 0 0 1 .11.159.132.132 0 0 1-.155.109 1.067 1.067 0 0 0-.908.363.145.145 0 0 1-.095.05Z"/>
  <path fill="#B55B52" d="M68.336 54.68c.5 2.084 1.003 5.902-.785 7.287 0 0 .699 2.115 5.448 2.115 5.22 0 2.497-1.362 2.497-1.362-2.852-.554-2.779-3.028-2.27-4.649l-4.89-3.391Z"/>
  <path fill="#263238" d="M66.992 62.352c-.309-.576-.654-1.24.054-1.448.781-.227 5.789-.65 7.264-.222-.454.803.314 1.816.314 1.816l-7.632-.146Z"/>
  <path fill="#B55B52" d="M71.142 159.772h3.273l.327-6.592h-3.278l-.322 6.592Zm-20.789-.908 3.319.177 2.016-6.497-3.32-.177-2.015 6.497Z"/>
  <path fill="#263238" d="m53.572 158.777-3.128-.676a.246.246 0 0 0-.277.136l-1.085 2.356a.417.417 0 0 0 .007.365.416.416 0 0 0 .292.217c1.094.217 1.64.267 3.015.567.844.182 2.756.649 3.922.908 1.167.259 1.571-.867 1.117-1.076-2.043-.931-2.896-1.752-3.45-2.52a.706.706 0 0 0-.413-.277Zm20.671.663h-3.11a.253.253 0 0 0-.24.196l-.564 2.528a.417.417 0 0 0 .226.47c.057.026.12.04.183.039 1.121 0 2.724-.086 4.154-.086 1.648 0 3.069.09 4.994.09 1.166 0 1.493-1.18 1.003-1.289-2.23-.486-4.045-.54-5.97-1.725a1.34 1.34 0 0 0-.676-.223ZM61.617 62.929c-2.47 1.176-3.142 8.304-3.142 8.304l6.115 2.823a11.706 11.706 0 0 0 1.635-5.752c.122-3.682-2.08-6.56-4.608-5.375Z"/>
  <path fill="#000" d="M64.922 67.324c-1.103 1.716-.999 4.367-.617 6.605l.272.127a11.728 11.728 0 0 0 1.634-5.752v-.649l-1.29-.331Z" opacity=".4"/>
  <path fill="#71CC9B" d="M78.683 62.756s3.032 3.424.168 24.607H63.628c-.104-2.338 1.362-13.738-.908-24.752a40.03 40.03 0 0 1 5.094-.644 56.977 56.977 0 0 1 6.474 0c1.483.15 2.952.414 4.395.79Z"/>
  <path fill="#FAFAFA" d="M78.683 62.756s3.032 3.424.168 24.607H63.628c-.104-2.338 1.362-13.738-.908-24.752a40.03 40.03 0 0 1 5.094-.644 56.977 56.977 0 0 1 6.474 0c1.483.15 2.952.414 4.395.79Z" opacity=".6"/>
  <path fill="#000" d="m80.013 69.23-.055-.05-3.028-1.616c-.309 4.663 1.775 7.587 3.015 8.862.155-2.395.178-4.797.068-7.196Zm-5.271 83.95-.168 3.4h-3.278l.168-3.4h3.278Zm-22.373-.809 3.319.173-1.04 3.351-3.319-.178 1.04-3.346Z" opacity=".2"/>
  <path fill="#B55B52" d="M67.283 52.564c.73 2.724 1.021 4.363 2.724 5.498 2.533 1.707 5.684-.254 5.784-3.146.086-2.602-1.122-6.629-4.05-7.178a3.856 3.856 0 0 0-4.458 4.826Z"/>
  <path fill="#263238" d="M73.453 87.363s-3.233 21.751-4.995 29.905c-1.952 8.944-12.366 38.454-12.366 38.454l-5.099-1.103s6.533-24.062 8.172-36.538c.636-4.872 1.403-12.712 2.375-19.263.94-6.356 2.097-11.45 2.097-11.45l9.816-.005Z"/>
  <path fill="#71CC9B" d="m57.313 154.019-.954 1.844-5.73-1.244.482-1.721 6.202 1.121Z"/>
  <path fill="#fff" d="m57.313 154.019-.954 1.844-5.73-1.244.482-1.721 6.202 1.121Z" opacity=".6"/>
  <path fill="#000" d="M71.41 95.113c-3.737.73-3.342 14.664-2.892 21.828 1.08-5.066 2.655-14.809 3.731-21.728a1.27 1.27 0 0 0-.84-.1Z" opacity=".6"/>
  <path fill="#263238" d="M78.85 87.363s1.521 21.284 1.213 29.964c-.323 9.03-4.604 38.59-4.604 38.59h-4.821s-.177-29.056-.39-37.904c-.237-9.67-1.404-30.654-1.404-30.654l10.007.004Z"/>
  <path fill="#71CC9B" d="M76.385 154.001c.023 0-.272 2.002-.272 2.002h-5.866l-.159-1.788 6.297-.214Z"/>
  <path fill="#fff" d="M76.385 154.001c.023 0-.272 2.002-.272 2.002h-5.866l-.159-1.788 6.297-.214Z" opacity=".6"/>
  <path fill="#263238" d="M76.907 66.738c0 5.711 3.038 8.063 3.038 8.063l4.953-4.821a40.767 40.767 0 0 0-3.99-5.553c-2.865-3.282-4-1.357-4 2.311Z"/>
  <path fill="#000" d="M75.6 55.951a1.86 1.86 0 0 1-1.28 1.18 1.534 1.534 0 0 0-1.222 1.362 3.932 3.932 0 0 0 2.502-2.542Z" opacity=".2"/>
  <path fill="#263238" d="M74.32 47.139c1.017-1.285-.55-1.362-.55-1.362.409-1.53-1.425-.708-1.425-.708-1.099-1.517-1.72.331-1.72.331-1.14-1.285-1.363.813-1.363.813-1.144-1.63-1.725.721-1.725.721-1.053-1.693-1.698.509-1.698.509-2.175-.776-1.144 1.485-1.144 1.485-1.852.05-.363 1.489-.363 1.489-2.225 0-.264 1.275-.264 1.275-1.766 1.158.454 1.471.454 1.471-1.439 2.27 1.035 1.417 1.035 1.417-1.003 2.234 1.217 1.248 1.217 1.248-.14 2.152 1.099 1.567 1.698 1.167.114.454.332.908.731.945.776.104.908-1.362.908-1.362s.717.562 1.321.258c.604-.304.377-1.071.377-1.071a.758.758 0 0 0 .908 0c.259-.2.259-1.644-.068-2.152l1.18-.454s.877-.123.486-1.28a3.369 3.369 0 0 1-.059-2.066c1.335-.627.236-1.362.236-1.362 1.548-.994-.172-1.312-.172-1.312Z"/>
  <path fill="#B55B52" d="M71.927 52.664a3.178 3.178 0 0 0 1.149 1.698c.74.554 1.294 0 1.239-.83-.045-.754-.49-1.948-1.308-2.175-.817-.227-1.275.503-1.08 1.307Z"/>
</svg>
