<svg width="24" height="25" viewBox="0 0 24 25" fill="none" xmlns="http://www.w3.org/2000/svg">
<g id="ph:note-pencil">
<path id="Vector" d="M21.5306 6.08618L18.5306 3.08618C18.461 3.01644 18.3783 2.96112 18.2872 2.92338C18.1962 2.88564 18.0986 2.86621 18 2.86621C17.9014 2.86621 17.8038 2.88564 17.7128 2.92338C17.6217 2.96112 17.539 3.01644 17.4694 3.08618L8.46937 12.0862C8.39975 12.1559 8.34454 12.2386 8.3069 12.3297C8.26926 12.4207 8.24992 12.5183 8.25 12.6168V15.6168C8.25 15.8157 8.32902 16.0065 8.46967 16.1471C8.61032 16.2878 8.80109 16.3668 9 16.3668H12C12.0985 16.3669 12.1961 16.3475 12.2871 16.3099C12.3782 16.2723 12.4609 16.2171 12.5306 16.1474L21.5306 7.14743C21.6004 7.07777 21.6557 6.99505 21.6934 6.90401C21.7312 6.81296 21.7506 6.71536 21.7506 6.6168C21.7506 6.51824 21.7312 6.42064 21.6934 6.3296C21.6557 6.23855 21.6004 6.15583 21.5306 6.08618ZM11.6897 14.8668H9.75V12.9271L15.75 6.92711L17.6897 8.8668L11.6897 14.8668ZM18.75 7.80649L16.8103 5.8668L18 4.67711L19.9397 6.6168L18.75 7.80649ZM21 11.8668V20.1168C21 20.5146 20.842 20.8962 20.5607 21.1775C20.2794 21.4588 19.8978 21.6168 19.5 21.6168H4.5C4.10218 21.6168 3.72064 21.4588 3.43934 21.1775C3.15804 20.8962 3 20.5146 3 20.1168V5.1168C3 4.71898 3.15804 4.33745 3.43934 4.05614C3.72064 3.77484 4.10218 3.6168 4.5 3.6168H12.75C12.9489 3.6168 13.1397 3.69582 13.2803 3.83647C13.421 3.97712 13.5 4.16789 13.5 4.3668C13.5 4.56571 13.421 4.75648 13.2803 4.89713C13.1397 5.03778 12.9489 5.1168 12.75 5.1168H4.5V20.1168H19.5V11.8668C19.5 11.6679 19.579 11.4771 19.7197 11.3365C19.8603 11.1958 20.0511 11.1168 20.25 11.1168C20.4489 11.1168 20.6397 11.1958 20.7803 11.3365C20.921 11.4771 21 11.6679 21 11.8668Z" fill="#71CC9B"/>
</g>
</svg>
