<svg width="25" height="25" viewBox="0 0 25 25" fill="none" xmlns="http://www.w3.org/2000/svg">
<g id="ic:round-history">
<path id="Vector" d="M13.9267 3.61677C8.83666 3.47677 4.66666 7.56677 4.66666 12.6168H2.87666C2.42666 12.6168 2.20666 13.1568 2.52666 13.4668L5.31666 16.2668C5.51666 16.4668 5.82666 16.4668 6.02666 16.2668L8.81666 13.4668C8.88576 13.3963 8.93245 13.3069 8.95084 13.2099C8.96923 13.1129 8.9585 13.0127 8.92 12.9218C8.8815 12.8309 8.81696 12.7534 8.7345 12.6991C8.65205 12.6448 8.55537 12.6162 8.45666 12.6168H6.66666C6.66666 8.71677 9.84666 5.56677 13.7667 5.61677C17.4867 5.66677 20.6167 8.79677 20.6667 12.5168C20.7167 16.4268 17.5667 19.6168 13.6667 19.6168C12.0567 19.6168 10.5667 19.0668 9.38666 18.1368C9.19512 17.9859 8.95481 17.9107 8.71142 17.9254C8.46804 17.9402 8.23857 18.0439 8.06666 18.2168C7.64666 18.6368 7.67666 19.3468 8.14666 19.7068C9.71778 20.9492 11.6636 21.6225 13.6667 21.6168C18.7167 21.6168 22.8067 17.4468 22.6667 12.3568C22.5367 7.66677 18.6167 3.74677 13.9267 3.61677ZM13.4167 8.61677C13.0067 8.61677 12.6667 8.95677 12.6667 9.36677V13.0468C12.6667 13.3968 12.8567 13.7268 13.1567 13.9068L16.2767 15.7568C16.6367 15.9668 17.0967 15.8468 17.3067 15.4968C17.5167 15.1368 17.3967 14.6768 17.0467 14.4668L14.1667 12.7568V9.35677C14.1667 8.95677 13.8267 8.61677 13.4167 8.61677Z" fill="#71CC9B"/>
</g>
</svg>
