<svg width="25" height="25" viewBox="0 0 25 25" fill="none" xmlns="http://www.w3.org/2000/svg">
<g id="heroicons-mini/users">
<g id="Union">
<path d="M8.73329 10.2176C10.7215 10.2176 12.3333 8.6058 12.3333 6.61758C12.3333 4.62935 10.7215 3.01758 8.73329 3.01758C6.74506 3.01758 5.13329 4.62935 5.13329 6.61758C5.13329 8.6058 6.74506 10.2176 8.73329 10.2176Z" fill="#71CC9B"/>
<path d="M17.7333 11.4176C19.3901 11.4176 20.7333 10.0744 20.7333 8.41758C20.7333 6.76072 19.3901 5.41758 17.7333 5.41758C16.0764 5.41758 14.7333 6.76072 14.7333 8.41758C14.7333 10.0744 16.0764 11.4176 17.7333 11.4176Z" fill="#71CC9B"/>
<path d="M2.27162 20.3311C1.79486 20.0259 1.51871 19.4828 1.58855 18.9211C2.03028 15.368 5.06061 12.6176 8.73317 12.6176C12.4057 12.6176 15.4361 15.3672 15.8778 18.9202C15.9476 19.482 15.6715 20.025 15.1947 20.3303C13.3296 21.5246 11.1122 22.2176 8.73317 22.2176C6.35413 22.2176 4.1368 21.5253 2.27162 20.3311Z" fill="#71CC9B"/>
<path d="M17.7334 19.8176C17.691 19.8176 17.6487 19.8173 17.6064 19.8167C17.689 19.4605 17.7119 19.0838 17.664 18.6981C17.4535 17.0051 16.7734 15.458 15.7581 14.1916C16.3708 13.9502 17.0382 13.8176 17.7366 13.8176C20.0644 13.8176 22.0481 15.2904 22.8068 17.3549C22.9699 17.7987 22.7787 18.2865 22.3738 18.5306C21.0188 19.3476 19.431 19.8176 17.7334 19.8176Z" fill="#71CC9B"/>
</g>
</g>
</svg>
