<svg width="24" height="25" viewBox="0 0 24 25" fill="none" xmlns="http://www.w3.org/2000/svg">
<g id="material-symbols:location-on">
<path id="Vector" d="M12 12.1172C12.55 12.1172 13.021 11.9212 13.413 11.5292C13.8043 11.1379 14 10.6672 14 10.1172C14 9.56719 13.8043 9.09619 13.413 8.70419C13.021 8.31285 12.55 8.11719 12 8.11719C11.45 8.11719 10.9793 8.31285 10.588 8.70419C10.196 9.09619 10 9.56719 10 10.1172C10 10.6672 10.196 11.1379 10.588 11.5292C10.9793 11.9212 11.45 12.1172 12 12.1172ZM12 22.1172C9.31667 19.8339 7.31267 17.7129 5.988 15.7542C4.66267 13.7962 4 11.9839 4 10.3172C4 7.81719 4.80433 5.82552 6.413 4.34219C8.021 2.85885 9.88333 2.11719 12 2.11719C14.1167 2.11719 15.979 2.85885 17.587 4.34219C19.1957 5.82552 20 7.81719 20 10.3172C20 11.9839 19.3377 13.7962 18.013 15.7542C16.6877 17.7129 14.6833 19.8339 12 22.1172Z" fill="#71CC9B"/>
</g>
</svg>
