<svg width="32" height="33" viewBox="0 0 32 33" fill="none" xmlns="http://www.w3.org/2000/svg">
<g id="icons8:fantasy">
<path id="Vector" d="M20.875 2.68066L20.187 3.43066L18.5 5.21066H14.906V8.71066L13.186 10.5237L12.5 11.2437L13.188 11.9307L14.688 13.4307L3.02999 25.1177L2.31299 25.8377L3.03099 26.5237L5.59499 29.0867L6.31299 29.8047L7.00099 29.0847L18.689 17.4297L20.189 18.9297L20.876 19.6167L21.596 18.9287L23.406 17.2107H26.906V13.6177L28.688 11.9297L29.438 11.2427L28.72 10.5227L26.906 8.71266V5.21266H23.406L21.594 3.39766L20.875 2.68066ZM20.905 5.55466L22.281 6.92966L22.595 7.21166H24.907V9.52366L25.189 9.83666L26.564 11.2107L25.22 12.4907L24.906 12.7727V15.2107H22.594L22.312 15.4907L20.906 16.8357L20.063 15.9907L23.906 12.1777L24.626 11.4907L23.906 10.7707L21.344 8.21066L20.656 7.52066L19.938 8.21066L16.125 12.0527L15.281 11.2097L16.626 9.80366L16.906 9.52166V7.21166H19.346L19.626 6.89866L20.906 5.55566L20.905 5.55466ZM20.655 10.3367L21.781 11.4917L6.31299 26.9617L5.15699 25.8357L20.657 10.3357L20.655 10.3367ZM19 21.1177V22.1177H18V24.1177H19V25.1177H21V24.1177H22V22.1177H21V21.1177H19ZM25 23.1177V25.1177H23V27.1177H25V29.1177H27V27.1177H29V25.1177H27V23.1177H25Z" fill="#71CC9B"/>
</g>
</svg>
