<svg xmlns="http://www.w3.org/2000/svg" width="239" height="178" fill="none" viewBox="0 0 239 178">
  <path fill="#EBEBEB" d="M238.518 156.182H0v.119h238.518v-.119Zm-23.899 7.675h-15.8v.119h15.8v-.119Zm-56.615 1.298h-4.146v.119h4.146v-.119Zm40.338-5.725h-9.154v.119h9.154v-.119Zm-152.714.802H25.025v.119h20.603v-.119Zm7.27 0h-3.02v.119h3.02v-.119Zm54.507 2.013h-44.69v.119h44.69v-.119Zm5.653-27.339h-92.11a2.722 2.722 0 0 1-2.72-2.724V2.7a2.724 2.724 0 0 1 2.72-2.7h92.11a2.725 2.725 0 0 1 2.724 2.724v129.458a2.724 2.724 0 0 1-2.724 2.724ZM20.948.096a2.605 2.605 0 0 0-2.6 2.604v129.482a2.604 2.604 0 0 0 2.6 2.605h92.11a2.614 2.614 0 0 0 2.605-2.605V2.7a2.61 2.61 0 0 0-2.605-2.605h-92.11Zm195.297 134.81H124.13a2.731 2.731 0 0 1-2.724-2.724V2.7A2.725 2.725 0 0 1 124.13 0h92.115a2.724 2.724 0 0 1 2.715 2.7v129.482a2.725 2.725 0 0 1-2.715 2.724ZM124.13.096a2.61 2.61 0 0 0-2.605 2.604v129.482a2.608 2.608 0 0 0 2.605 2.605h92.115a2.608 2.608 0 0 0 2.605-2.605V2.7a2.609 2.609 0 0 0-2.605-2.605H124.13Z"/>
  <path fill="#E6E6E6" d="M132.578 83.992h78.625v-70.41h-78.625v70.41Z"/>
  <path fill="#F0F0F0" d="M129.263 83.992h80.39v-70.41h-80.39v70.41Z"/>
  <path fill="#E6E6E6" d="M132.578 86.377h78.625v-2.385h-78.625v2.385Z"/>
  <path fill="#F0F0F0" d="M123.748 86.377h80.39v-2.385h-80.39v2.385Z"/>
  <path fill="#FAFAFA" d="M205.021 79.355V18.218h-71.122v61.137h71.122Z"/>
  <path fill="#fff" d="m190.729 79.36-27.206-61.142h-27.839l27.205 61.142h27.84Z"/>
  <path fill="#F0F0F0" d="M202.874 69.142a.33.33 0 0 0 .329-.33V21.238a.327.327 0 0 0-.329-.33.33.33 0 0 0-.329.33v47.574a.33.33 0 0 0 .329.33Z"/>
  <path fill="#fff" d="m152.423 79.36-27.206-61.142h-9.631l27.205 61.142h9.632Z"/>
  <path fill="#E6E6E6" d="M134.486 79.355V18.218h-.587v61.137h.587Z"/>
  <path fill="#E6E6E6" d="M128.165 24.586h78.63l.424-4.565h-78.625l-.429 4.565Zm0 7.538h78.63l.424-4.566h-78.625l-.429 4.566Zm0 7.536h78.63l.424-4.564h-78.625l-.429 4.565Zm0 7.538h78.63l.424-4.565h-78.625l-.429 4.565Zm0 7.542h78.63l.424-4.565h-78.625l-.429 4.565Zm0 7.537h78.63l.424-4.565h-78.625l-.429 4.565Z" opacity=".5"/>
  <path fill="#F0F0F0" d="M37.142 156.182h62.654V13.586H37.142v142.596Z"/>
  <path fill="#F5F5F5" d="M37.142 156.182h61.419V13.586H37.142v142.596Z"/>
  <path fill="#EBEBEB" d="M95.326 156.182V16.82h-54.95v139.362h54.95Z"/>
  <path fill="#fff" d="M55.294 80.619c-3.116-.859-6.23 1.908-9.346 1.05a1.956 1.956 0 0 1-1.197-1.727c0-.659.539-.85 1.197-.673 3.115.859 6.23-1.908 9.346-1.05a1.947 1.947 0 0 1 1.202 1.723c0 .677-.544.863-1.203.677Z"/>
  <path fill="#E0E0E0" d="M41.22 156.182V16.82h-.839v139.362h.84Z"/>
  <path fill="#F0F0F0" d="M198.203 153.038h11.239v-48.734h-11.239v48.734Z"/>
  <path fill="#F0F0F0" d="M151.869 156.124h55.418v-3.086h-55.418v3.086Z"/>
  <path fill="#F5F5F5" d="M198.208 104.299h-48.495v48.734h48.495v-48.734Z"/>
  <path fill="#F0F0F0" d="M193.786 110.3H154.13v15.981h39.656V110.3Zm0 20.751H154.13v15.981h39.656v-15.981Z"/>
  <path fill="#F5F5F5" d="M169.51 111.646h8.902a1.096 1.096 0 1 0 0-2.19h-8.902a1.096 1.096 0 1 0 0 2.19Zm-.005 20.755h8.906c.291-.001.569-.117.775-.322.205-.206.321-.484.322-.775a1.1 1.1 0 0 0-1.097-1.073h-8.906a1.096 1.096 0 0 0-1.092 1.097 1.094 1.094 0 0 0 1.092 1.073Z"/>
  <path fill="#EBEBEB" d="M187.757 103.34a.836.836 0 0 1-.835-.83V77.19a.836.836 0 0 1 .835-.836.841.841 0 0 1 .83.835v25.321a.838.838 0 0 1-.83.83Z"/>
  <path fill="#F0F0F0" d="M195.551 102.358h-15.594v1.965h15.594v-1.965Z"/>
  <path fill="#E0E0E0" d="M192.074 91.52a.416.416 0 0 1-.415-.416v-12.66a.418.418 0 0 1 .415-.42.418.418 0 0 1 .415.42v12.67a.416.416 0 0 1-.415.406Z"/>
  <path fill="#E6E6E6" d="M175.63 82.823s.31-9.312 12.127-9.312c11.816 0 12.121 9.312 12.121 9.312H175.63Z"/>
  <path fill="#F5F5F5" d="M119.259 177.725c51.082 0 92.493-2.418 92.493-5.401 0-2.982-41.411-5.4-92.493-5.4-51.082 0-92.492 2.418-92.492 5.4 0 2.983 41.41 5.401 92.492 5.401Z"/>
  <path fill="#263238" d="M111.464 42.485c.024-1.011.954-2.333 4.704-2.571 3.749-.239 5.142-.067 6.678 2.862 1.67 3.153 3.578 6.678 2.333 9.908-1.245 3.23-5.171 5.133-7.981 6.84-2.809 1.708-6.993 7.447-6.993 7.447s-7.8-21.653 1.259-24.486Z"/>
  <path fill="#FF8B7B" d="M113.177 85.69s5.681 29.166 7.699 41.025c2.094 12.332 3.859 38.864 3.859 38.864h3.158s4.022-22.897 0-39.904c.272-13.576-2.385-41.812-2.385-41.812l-12.331 1.827Z"/>
  <path fill="#FF8B7B" d="M117.318 85.075s12.46 30.501 16.801 41.716c6.087 8.158 21.386 25.46 22.225 25.808l1.107-2.495s-9.35-18.285-16.887-27.32c-2.004-13.428-11.549-39.441-11.549-39.441l-11.697 1.732Zm-5.868-18.357c-.897 1.05-1.818 2.052-2.738 3.072-.921 1.021-1.87 2.004-2.819 2.996-.95.992-1.909 1.98-2.901 2.939-.992.959-1.989 1.908-3.034 2.862l.158-.167a3.504 3.504 0 0 1-.773.663 4.368 4.368 0 0 1-.744.358c-.416.15-.849.248-1.288.29a11.12 11.12 0 0 1-2.18 0 26.145 26.145 0 0 1-3.874-.667 54.477 54.477 0 0 1-3.654-1.05 40.448 40.448 0 0 1-3.544-1.311 1.002 1.002 0 0 1 .591-1.904c1.178.248 2.385.501 3.578.716 1.192.215 2.385.424 3.573.572 1.147.164 2.304.255 3.463.272.51.01 1.02-.03 1.522-.119.173-.032.343-.081.505-.148a.209.209 0 0 0 .082-.052s-.034 0-.077.057l.158-.167c.954-.954 1.86-1.908 2.776-2.886l2.738-2.982 5.438-6.015a2.016 2.016 0 0 1 3.03 2.657l.014.014Z"/>
  <path fill="#FF8B7B" d="m85.452 75.071-1.97-3.449-1.384 3.75s1.674 1.908 3.268 1.531l.086-1.832Z"/>
  <path fill="#FF8B7B" d="m80.982 71.722-.477 1.608a.954.954 0 0 0 .305 1.011l1.293 1.05 1.364-3.769-1.212-.477a.955.955 0 0 0-1.273.578Z"/>
  <path fill="#71CC9B" d="M111.488 61.905c-2.805-.477-4.045 1.479-5.385 2.953.319 2.605 4.913 7.947 4.913 7.947s5.572-10.07.472-10.9Z"/>
  <path fill="#71CC9B" d="M107.758 65.101c.357 2.839 1.712 10.805 5.509 22.731l16.558-2.442c-1.145-6.002-2.724-11.674-1.994-23.623a2.4 2.4 0 0 0-1.458-2.366 2.408 2.408 0 0 0-.96-.196c-1.121 0-2.505.048-3.945.19a51.66 51.66 0 0 0-7.194 1.065c-1.527.372-3.144.868-4.375 1.269a3.15 3.15 0 0 0-2.141 3.372Z"/>
  <path fill="#fff" d="m114.274 60.45 7.194-1.064s-.329 2.762-4.861 6.392c-3.444-3.196-2.333-5.328-2.333-5.328Z"/>
  <path fill="#FF8B7B" d="M119.559 51.391c-.114 2.385.063 6.679 1.909 7.995a14.068 14.068 0 0 1-4.642 4.618 4.16 4.16 0 0 1-2.552-3.554c2.49-.997 2.142-2.9 1.431-4.632l3.854-4.427Z"/>
  <path fill="#000" d="m117.985 53.2-2.285 2.613c.174.402.311.819.41 1.245.955-.286 2.161-1.57 2.114-2.619a3.465 3.465 0 0 0-.239-1.24Z" opacity=".2"/>
  <path fill="#FF8B7B" d="M121.372 46.788c-.353 3.897-.419 5.552-2.447 7.499-3.053 2.934-7.761 1.65-8.586-2.276-.74-3.53-.043-9.312 3.816-10.757a5.337 5.337 0 0 1 7.217 5.534Z"/>
  <path fill="#263238" d="M118.382 43.754c-.344 2.333 1.035 5.19 2.227 5.219 1.193.028 2.09-4.475 2.09-4.475l-4.317-.744Z"/>
  <path fill="#263238" d="M111.755 42.561c2.543 1.803 10.099 4.508 10.257 2.175.157-2.332-2.996-4.216-5.329-4.216-2.333 0-4.212.93-4.928 2.041Z"/>
  <path fill="#000" d="m120.261 123.195 7.633-3.001a239.833 239.833 0 0 0-.191-5.724l-8.444 3.062c.349 2.023.697 3.94 1.002 5.663Zm17.602-12.451-8.825 3.215c.697 1.727 1.369 3.406 1.999 4.99l8.109-3.201a146.51 146.51 0 0 0-1.283-5.004Z" opacity=".2"/>
  <path fill="#263238" d="M115.657 47.813c0 .32-.181.573-.391.563-.21-.01-.367-.267-.358-.582.01-.315.181-.572.391-.567.21.004.368.267.358.586Zm-3.593-.102c.009-.318-.152-.581-.361-.587-.208-.006-.384.247-.393.566-.009.319.153.582.361.588.208.005.384-.248.393-.567Z"/>
  <path fill="#263238" d="m111.798 47.146-.758-.244s.376.61.758.244Z"/>
  <path fill="#FF5652" d="M113 48.286a8.43 8.43 0 0 1-1.192 1.994 1.37 1.37 0 0 0 1.13.248l.062-2.242Z"/>
  <path fill="#263238" d="M114.064 51.71a3.173 3.173 0 0 1-.534.034.101.101 0 0 1-.091-.095c0-.013.003-.025.008-.036a.091.091 0 0 1 .088-.055 2.517 2.517 0 0 0 2.08-.925.085.085 0 0 1 .026-.026.088.088 0 0 1 .069-.012.095.095 0 0 1 .034.014c.01.007.018.015.025.026a.1.1 0 0 1 .013.07.102.102 0 0 1-.015.033 2.594 2.594 0 0 1-1.703.973Z"/>
  <path fill="#FF8B7B" d="M122.212 48.853a2.821 2.821 0 0 1-1.307 1.751c-.864.506-1.55-.205-1.522-1.154.024-.854.506-2.147 1.479-2.266a1.278 1.278 0 0 1 1.35 1.67Z"/>
  <path fill="#263238" d="M116.993 46.172a.165.165 0 0 1-.138-.047 1.485 1.485 0 0 0-1.288-.41.192.192 0 0 1-.201-.147.193.193 0 0 1 .115-.22 1.874 1.874 0 0 1 1.627.505.182.182 0 0 1 .041.202.181.181 0 0 1-.041.06.172.172 0 0 1-.115.057Zm-5.843-.3a.171.171 0 0 1-.115-.076.2.2 0 0 1-.03-.067.182.182 0 0 1 .078-.191 1.847 1.847 0 0 1 1.684-.258.185.185 0 0 1 .1.101.185.185 0 0 1 0 .143.188.188 0 0 1-.039.061.185.185 0 0 1-.204.043 1.467 1.467 0 0 0-1.331.215.191.191 0 0 1-.143.029Zm4.24 1.355-.758-.239s.377.625.758.239Zm-2.122 40.605 5.538 32.753 20.737-6.149c-1.679-17.311-5.973-25.884-9.718-29.046l-16.557 2.442Z"/>
  <path fill="#000" d="m121.668 106.236 4.146-6.812-.711-4.794-3.435 11.606Z" opacity=".2"/>
  <path fill="#FF8B7B" d="M127.622 60.841c.353.315.787.678 1.188 1.012.4.334.834.677 1.264 1.001.854.644 1.712 1.279 2.604 1.851a20.85 20.85 0 0 0 5.51 2.648c.115.038.234.057.348.086l.172.043h-.067c-.191 0-.262.085-.21.066a2.52 2.52 0 0 0 .692-.696 16.163 16.163 0 0 0 1.498-2.652c.477-.955.897-1.98 1.293-3.01.396-1.03.801-2.076 1.173-3.106a.999.999 0 0 1 1.186-.643 1.001 1.001 0 0 1 .751 1.12 40.447 40.447 0 0 1-1.565 6.793 17.267 17.267 0 0 1-1.507 3.401 5.883 5.883 0 0 1-1.574 1.784 3.18 3.18 0 0 1-1.794.582 1.856 1.856 0 0 1-.281 0l-.225-.028-.243-.043c-.157-.029-.324-.048-.477-.086a17.73 17.73 0 0 1-3.578-1.164 25.685 25.685 0 0 1-3.21-1.689 34.11 34.11 0 0 1-2.953-2.003 33.044 33.044 0 0 1-1.388-1.102 22.445 22.445 0 0 1-1.365-1.207 2.017 2.017 0 0 1 2.729-2.967l.029.01Z"/>
  <path fill="#71CC9B" d="M125.231 59.196c2.862-.167 3.95 1.32 5.128 2.924-.582 2.557-3.682 6.931-3.682 6.931s-6.602-9.55-1.446-9.855Z"/>
  <path fill="#FF8B7B" d="m142.939 58.318.716-4.203 2.59 3.063s-.906 2.385-2.533 2.57l-.773-1.43Z"/>
  <path fill="#FF8B7B" d="m146.021 52.975 1.555 1.364a.744.744 0 0 1 .119.983l-1.722 2.438-2.313-3.645 1.431-1.154a.734.734 0 0 1 .93.014Z"/>
  <path fill="#263238" d="M118.744 171.547a5.484 5.484 0 0 1 1.593-.801s2.824-1.598 4.294-6.393l3.267-.815a.577.577 0 0 1 .248-.008.58.58 0 0 1 .4.274.58.58 0 0 1 .082.235c.029.257.048.553.081.791.036.52.036 1.041 0 1.56-.028 1.617-.21 5.248-.21 5.248h-.377a28.315 28.315 0 0 0-.2-3.306c-.191-1.069-.954.195-1.364 1.402-.41 1.207-2.123 2.5-4.594 2.557-2.886.086-4.06-.043-3.22-.744Zm36.426-11.263a5.527 5.527 0 0 1 .558-1.693s.864-3.13-1.493-7.557l1.727-2.886a.6.6 0 0 1 .396-.28.597.597 0 0 1 .249.005.6.6 0 0 1 .223.108c.206.163.43.358.621.477.392.344.762.712 1.106 1.102 1.126 1.164 3.578 3.864 3.578 3.864l-.267.272a27.818 27.818 0 0 0-2.485-2.194c-.888-.62-.525.806.033 1.956.558 1.149.267 3.268-1.431 5.056-1.994 2.128-2.91 2.867-2.815 1.77Z"/>
  <path fill="#fff" d="m142.595 23.108-50.298-4.823a4.713 4.713 0 0 0-5.119 4.226L79.97 97.792a4.698 4.698 0 0 0 4.222 5.119l50.294 4.823a4.71 4.71 0 0 0 5.118-4.227l7.213-75.257a4.697 4.697 0 0 0-4.222-5.143ZM131.829 51.93a17.288 17.288 0 0 1-13.252 15.16 17.283 17.283 0 1 1 2.113-33.01 17.087 17.087 0 0 1 3.816 2.008 17.257 17.257 0 0 1 7.327 15.842h-.004Z" opacity=".9"/>
  <path fill="#263238" d="m117.174 4.68 5.448 1.044a2.781 2.781 0 0 1 2.194 2.987l-1.054 9.598a2.47 2.47 0 0 1-.071.372 2.298 2.298 0 0 1-2.677 1.679l-5.447-1.026a2.795 2.795 0 0 1-2.209-2.638 2.027 2.027 0 0 1 0-.381l1.054-9.598a2.301 2.301 0 0 1 1.801-2.032 2.29 2.29 0 0 1 .961-.005Zm2.276 4.58a1.83 1.83 0 0 0-2.185 1.63 2.203 2.203 0 0 0 1.746 2.386 1.829 1.829 0 0 0 2.185-1.632 2.211 2.211 0 0 0-1.746-2.385Z"/>
  <path fill="#71CC9B" d="M133.961 25.011a.59.59 0 0 1-.529-.334l-2.104-4.346a1.907 1.907 0 0 0-1.536-1.073l-24.195-2.319a1.909 1.909 0 0 0-1.713.759l-2.891 3.874a.596.596 0 0 1-.618.224.581.581 0 0 1-.365-.268.589.589 0 0 1 .029-.658l2.891-3.873a3.105 3.105 0 0 1 2.767-1.226l24.19 2.318a3.115 3.115 0 0 1 2.486 1.732l2.099 4.346a.595.595 0 0 1-.029.567.59.59 0 0 1-.496.277h.014ZM84.435 38.42l-.386-.038.267-2.8.391.038-.272 2.8Zm.477-5.419-.386-.038.606-6.344.39.038-.61 6.344Z"/>
  <path fill="#71CC9B" d="M134.939 107.925a4 4 0 0 1-.477-.024l-50.294-4.818a4.896 4.896 0 0 1-4.398-5.333l7.208-75.258a4.9 4.9 0 0 1 5.333-4.398l50.323 4.804a4.898 4.898 0 0 1 4.403 5.333l-7.237 75.286a4.903 4.903 0 0 1-4.861 4.422v-.014Zm-43.09-89.464a4.508 4.508 0 0 0-4.475 4.07l-7.232 75.261a4.523 4.523 0 0 0 4.05 4.909l50.332 4.813a4.504 4.504 0 0 0 4.904-4.05l7.213-75.257a4.52 4.52 0 0 0-4.045-4.909l-50.318-4.817a4.311 4.311 0 0 0-.43-.02Zm22.792 49.316a17.499 17.499 0 0 1-14.216-7.275 17.497 17.497 0 0 1 .297-20.836 17.502 17.502 0 0 1 12.718-6.834 17.49 17.49 0 0 1 7.307 1.066 17.14 17.14 0 0 1 3.864 2.032 17.468 17.468 0 0 1 7.413 16.02 17.493 17.493 0 0 1-17.383 15.828Zm-.043-34.6a17.099 17.099 0 0 0-15.631 10.19 17.102 17.102 0 1 0 31.165-.266 17.072 17.072 0 0 0-5.745-6.846 16.519 16.519 0 0 0-3.778-1.985 16.857 16.857 0 0 0-4.365-1.006 15.994 15.994 0 0 0-1.646-.086Z"/>
  <path fill="#71CC9B" d="M120.69 34.08a17.301 17.301 0 0 0-21.876 23.217l-16.22 13.395 4.618-48.18a4.713 4.713 0 0 1 5.118-4.227l16.668 1.598 5.333 6.469 6.359 7.728Z" opacity=".8"/>
  <path fill="#71CC9B" d="m146.817 28.226-3.229 33.626-11.926-14.449a17.358 17.358 0 0 0-7.156-11.315l15.972-13.19 2.118.205a4.705 4.705 0 0 1 4.221 5.123Z" opacity=".5"/>
  <path fill="#71CC9B" d="m140.477 22.898-15.971 13.19a17.087 17.087 0 0 0-3.816-2.008l-6.378-7.728-5.348-6.47 31.513 3.016Z"/>
  <path fill="#71CC9B" d="m127.323 74.881-29.85-2.858a.911.911 0 0 0-.993.82l-.15 1.557a.912.912 0 0 0 .82.994L127 78.253a.911.911 0 0 0 .994-.82l.149-1.558a.91.91 0 0 0-.82-.994Zm-2.916 5.842-25.178-2.41a.911.911 0 0 0-.994.82l-.149 1.557c-.048.5.32.946.82.994l25.178 2.41a.911.911 0 0 0 .994-.82l.149-1.557a.912.912 0 0 0-.82-.994ZM95.162 93.46l-7.484-.717-.118 1.225 7.484.716.118-1.225Zm7.72.741-6.036-.578-.117 1.225 6.035.578.118-1.225Zm1.879 2.961-17.347-1.661-.117 1.225 17.347 1.661.117-1.225Zm3.469-4.185-20.44-2.044-.124 1.23 20.441 2.045.123-1.23Z" opacity=".5"/>
  <path fill="#263238" d="m122.121 5.5-5.534-1.006a2.547 2.547 0 0 0-2.952 2.065l-1.727 9.613a1.747 1.747 0 0 0-.034.381 2.557 2.557 0 0 0 2.085 2.595l5.519 1.007a2.545 2.545 0 0 0 2.863-1.694 1.99 1.99 0 0 0 .1-.372l1.722-9.612a2.568 2.568 0 0 0-2.042-2.977Zm-3.506 3.564a2.039 2.039 0 0 1 1.556 2.744 2.044 2.044 0 0 1-1.859 1.3 2.038 2.038 0 0 1-2.044-2.403 2.042 2.042 0 0 1 2.347-1.641Z"/>
  <path fill="#fff" d="m122.121 5.5-5.534-1.006a2.547 2.547 0 0 0-2.952 2.065l-1.727 9.613a1.747 1.747 0 0 0-.034.381 2.557 2.557 0 0 0 2.085 2.595l5.519 1.007a2.545 2.545 0 0 0 2.863-1.694 1.99 1.99 0 0 0 .1-.372l1.722-9.612a2.568 2.568 0 0 0-2.042-2.977Zm-3.506 3.564a2.039 2.039 0 0 1 1.556 2.744 2.044 2.044 0 0 1-1.859 1.3 2.038 2.038 0 0 1-2.044-2.403 2.042 2.042 0 0 1 2.347-1.641Z" opacity=".2"/>
  <path fill="#71CC9B" d="M132.411 100.048a3.382 3.382 0 1 0-4.305-5.218 3.382 3.382 0 0 0 4.305 5.218Z" opacity=".2"/>
  <path fill="#71CC9B" d="M123.456 99.188a3.384 3.384 0 0 0-4.306-5.217 3.382 3.382 0 1 0 4.306 5.217Z" opacity=".8"/>
</svg>
