<svg width="150" height="136" viewBox="0 0 150 136" fill="none" xmlns="http://www.w3.org/2000/svg">
<g clip-path="url(#clip0_90_5467)">
<path d="M72.0979 27.2508C73.7679 25.5546 75.9984 25.0397 77.0797 26.1006C78.1611 27.1615 77.6837 29.3962 76.013 31.0928C75.3549 31.7796 74.5416 32.2992 73.6411 32.608L66.4745 39.7057L63.2091 36.2781L70.6207 29.6449C70.9145 28.7406 71.421 27.9196 72.0979 27.2508Z" fill="#FFB6B6"/>
<path d="M49.1783 21.3927L56.6923 38.0303L68.6909 31.5478L72.985 33.8225C72.985 33.8225 63.1764 50.1896 56.4604 48.3264C49.7445 46.4633 37.8187 29.5692 39.9674 24.3552C42.1161 19.1412 49.1783 21.3927 49.1783 21.3927Z" fill="#E6E6E6"/>
<path d="M84.0096 30.7843C82.2652 29.1643 81.6887 26.953 82.7218 25.8451C83.7549 24.7373 86.006 25.1527 87.7507 26.7734C88.4566 27.4113 88.9991 28.2086 89.3329 29.0986L96.6368 36.0554L93.2929 39.4068L86.4476 32.1928C85.5339 31.9244 84.6979 31.4414 84.0096 30.7843Z" fill="#A0616A"/>
<path d="M120.801 31.8562L106.703 46.8372C106.703 46.8372 103.537 49.9638 98.3283 45.4549C93.1195 40.9461 87.3286 33.5488 87.3286 33.5488L90.5774 30.0197L96.332 35.144C96.332 35.144 99.7485 36.5161 99.9861 37.4039C100.224 38.2918 99.5595 38.659 100.627 38.3745C101.694 38.09 101.715 37.4554 101.782 38.4179C101.849 39.3804 101.197 40.5053 102.43 39.4157C103.663 38.3261 104.031 38.989 104.031 38.989L113.042 27.0759C113.042 27.0759 118.864 22.4805 120.538 26.5998C122.212 30.7192 120.801 31.8562 120.801 31.8562Z" fill="#71CC9B"/>
<path d="M45.8837 132.275L51.3625 132.275L53.9689 111.182L45.8826 111.182L45.8837 132.275Z" fill="#FFB6B6"/>
<path d="M64.655 132.151C64.8256 132.438 64.9156 133.364 64.9156 133.697C64.9156 134.722 64.0831 135.553 63.0561 135.553H46.0886C45.388 135.553 44.82 134.986 44.82 134.287V133.582C44.82 133.582 43.9807 131.463 45.7088 128.851C45.7088 128.851 47.8565 130.896 51.0659 127.693L52.0123 125.981L58.8631 130.982L62.6603 131.449C63.4911 131.551 64.2277 131.433 64.655 132.151Z" fill="#2F2E41"/>
<path d="M109.03 34.9375H122.608V14.9128H109.03V34.9375Z" fill="#2F2E41"/>
<path d="M119.56 28.8311L119.085 23.0957H112.762L111.361 29.1722L119.56 28.8311Z" fill="#A0616A"/>
<path opacity="0.1" d="M119.56 28.8311L119.085 23.0957H112.762L111.361 29.1722L119.56 28.8311Z" fill="black"/>
<path d="M50.0295 22.46L50.1403 15.0843L45.5833 12.249L40.6281 18.2988L50.0295 22.46Z" fill="#FFB6B6"/>
<path opacity="0.1" d="M50.0295 22.46L50.3244 15.2681L45.5833 12.249L47.1941 21.1493L50.0295 22.46Z" fill="black"/>
<path d="M114.928 24.9208C118.745 24.9208 121.839 21.8325 121.839 18.0229C121.839 14.2133 118.745 11.125 114.928 11.125C111.111 11.125 108.017 14.2133 108.017 18.0229C108.017 21.8325 111.111 24.9208 114.928 24.9208Z" fill="#A0616A"/>
<path d="M113.185 10.7663C113.185 10.7663 113.185 7.93449 115.819 8.5413C118.454 9.14811 119.264 10.1595 119.264 10.1595C119.264 10.1595 120.277 11.7776 121.899 11.9799C123.52 12.1822 124.939 16.8344 124.736 17.8457C124.533 18.8571 123.52 21.4866 124.939 22.7002C126.357 23.9138 128.384 25.7342 127.776 27.5547C127.168 29.3751 125.344 34.0273 125.344 34.0273C125.344 34.0273 130.431 34.7695 130.015 37.9381C130.015 37.9381 127.573 36.05 124.331 36.05C121.088 36.05 121.493 30.1786 121.493 30.1786C121.493 30.1786 121.291 26.5433 120.683 25.532C120.075 24.5206 120.885 18.8571 117.846 15.823C114.806 12.789 113.185 10.7663 113.185 10.7663Z" fill="#2F2E41"/>
<path d="M113.995 10.1592C113.995 10.1592 110.145 10.9683 108.726 14.8114C107.308 18.6545 108.024 19.3696 108.024 19.3696C108.024 19.3696 107.71 21.6838 105.989 22.4952C104.268 23.3067 105.686 26.7453 105.686 26.7453C105.686 26.7453 105.281 30.1839 99.8093 31.3975C94.3377 32.6111 106.671 41.9178 106.671 41.9178C106.671 41.9178 105.784 37.5253 111.459 37.323C117.133 37.1208 110.347 26.7453 110.347 26.7453L109.739 20.0704C109.739 20.0704 110.955 12.3841 114.603 11.3728C118.251 10.3614 113.995 10.1592 113.995 10.1592Z" fill="#2F2E41"/>
<path d="M50.0437 17.3794C54.5197 17.3794 58.1482 13.7577 58.1482 9.29026C58.1482 4.82278 54.5197 1.20117 50.0437 1.20117C45.5677 1.20117 41.9392 4.82278 41.9392 9.29026C41.9392 13.7577 45.5677 17.3794 50.0437 17.3794Z" fill="#FFB6B6"/>
<path d="M61.0965 71.2318L53.5468 122.509H44.0747L45.3342 93.2386L45.9971 77.8482L44.0747 70.5223C44.0747 70.5223 43.1982 68.894 42.4598 66.9201C41.6275 64.6926 40.9702 62.0221 41.9461 60.7558C42.3052 60.289 43.2387 59.9434 44.5075 59.6861C45.2827 59.5281 46.185 59.4049 47.1591 59.3094C52.7605 58.7562 60.7282 59.1017 60.7282 59.1017L60.9308 65.7732L61.0431 69.4986L61.0965 71.2318Z" fill="#2F2E41"/>
<path d="M14.6888 124.106L19.5155 126.694L31.8134 109.344L24.6898 105.524L14.6888 124.106Z" fill="#FFB6B6"/>
<path d="M31.2835 132.864C31.2978 133.197 30.9382 134.055 30.78 134.349C30.294 135.252 29.1666 135.591 28.2619 135.106L13.315 127.09C12.6979 126.759 12.4663 125.992 12.7979 125.376L13.1323 124.755C13.1323 124.755 13.3977 122.491 16.1585 121.007C16.1585 121.007 17.0808 123.823 21.4269 122.517L23.072 121.457L26.7356 129.098L29.8594 131.303C30.5429 131.785 31.2477 132.029 31.2835 132.864Z" fill="#2F2E41"/>
<path d="M61.0431 69.4992L57.0363 77.5179L45.3342 93.2392L26.0697 119.122L17.7263 114.649L40.5963 76.2149L42.3788 68.8523C42.3788 68.8523 42.3788 68.0565 42.4598 66.9207C42.6182 64.6729 43.0933 61.0909 44.5075 59.6867C44.699 59.4956 44.907 59.3449 45.1335 59.2438C45.5589 59.0527 46.266 59.0986 47.1591 59.31C50.8897 60.1995 57.852 64.0205 60.9308 65.7738L61.0431 69.4992Z" fill="#2F2E41"/>
<path d="M119.045 132.919L114.335 132.918L112.094 114.782L119.046 114.783L119.045 132.919Z" fill="#A0616A"/>
<path d="M102.906 132.812C102.759 133.058 102.682 133.854 102.682 134.141C102.682 135.022 103.397 135.737 104.28 135.737H118.869C119.472 135.737 119.96 135.249 119.96 134.648V134.042C119.96 134.042 120.682 132.22 119.196 129.974C119.196 129.974 117.349 131.732 114.59 128.978L113.776 127.507L107.886 131.807L104.621 132.208C103.906 132.295 103.273 132.194 102.906 132.812Z" fill="#2F2E41"/>
<path d="M137.603 127.377L133.248 129.17L124.246 113.259L130.673 110.612L137.603 127.377Z" fill="#A0616A"/>
<path d="M122.643 133.423C122.602 133.707 122.834 134.472 122.944 134.737C123.281 135.552 124.215 135.94 125.032 135.604L138.517 130.049C139.074 129.82 139.339 129.183 139.11 128.628L138.878 128.067C138.878 128.067 138.849 126.108 136.617 124.598C136.617 124.598 135.582 126.927 131.979 125.431L130.664 124.381L126.862 130.598L123.997 132.212C123.371 132.565 122.747 132.712 122.643 133.423Z" fill="#2F2E41"/>
<path d="M121.207 70.706L119.284 78.0319L119.796 89.9193L120.645 109.664L120.669 110.221L120.765 112.441L121.207 122.693H111.735L107.518 94.0527L104.185 71.4155L104.535 59.8882L104.553 59.2854C104.553 59.2854 121.494 58.5502 123.335 60.9395C125.177 63.3288 121.207 70.706 121.207 70.706Z" fill="#F2A56C"/>
<path d="M134.386 115.323L132.78 116.152L126.841 119.219L125.972 119.667L120.765 112.441L107.518 94.0528L104.185 71.4156L104.535 59.8883C106.034 59.4123 107.233 59.2175 107.84 59.5005C110.577 60.7778 110.446 69.1513 110.446 69.1513L112.112 76.5396L119.796 89.9194L134.386 115.323Z" fill="#F2A56C"/>
<path d="M100.137 117.584C100.015 117.211 99.0913 117.375 99.0026 117.042C98.9142 116.711 99.8006 116.432 100.481 115.497C100.603 115.329 101.376 114.266 101.079 113.819C100.518 112.972 96.6098 115.082 95.6718 113.898C95.4659 113.638 95.3812 113.192 94.7679 112.362C94.5239 112.032 94.3674 111.872 94.1804 111.877C93.915 111.884 93.8201 112.215 93.403 112.815C92.7775 113.715 92.5518 113.602 92.1397 114.34C91.8338 114.887 91.7976 115.237 91.577 115.258C91.2648 115.287 91.1359 114.605 90.7544 114.579C90.3652 114.552 89.9758 115.226 89.7827 115.752C89.4204 116.739 89.6447 117.494 89.6945 118.246C89.7485 119.064 89.6216 120.261 88.7317 121.797L80.3378 135.145C82.1404 132.424 87.2575 125.003 89.3192 122.281C89.9144 121.496 90.554 120.707 91.5384 120.558C92.4861 120.415 93.6393 120.883 95.2489 120.856C95.4369 120.853 95.9601 120.838 96.0873 120.561C96.1925 120.332 95.9313 120.133 96.0263 119.918C96.1538 119.629 96.7273 119.753 97.5088 119.562C98.0599 119.427 98.4342 119.203 98.7562 119.011C98.8533 118.953 100.299 118.079 100.137 117.584Z" fill="#F2F2F2"/>
<path d="M78.1517 120.7C77.9335 120.653 77.7475 121.153 77.5582 121.1C77.3696 121.048 77.4885 120.533 77.2249 119.93C77.1774 119.821 76.8778 119.136 76.5726 119.153C75.9939 119.183 75.9038 121.707 75.051 121.824C74.8638 121.85 74.62 121.763 74.0349 121.824C73.8021 121.848 73.6785 121.879 73.6269 121.972C73.5536 122.104 73.6891 122.246 73.864 122.623C74.1261 123.19 74.0054 123.268 74.2492 123.682C74.4302 123.99 74.5918 124.109 74.5382 124.223C74.4625 124.384 74.0901 124.251 73.967 124.43C73.8415 124.613 74.0603 124.998 74.2634 125.244C74.6445 125.707 75.0804 125.815 75.4646 126.007C75.8822 126.217 76.4341 126.624 76.9326 127.503L81.0745 135.466C80.2565 133.798 78.0841 129.151 77.3406 127.355C77.1259 126.837 76.9225 126.296 77.1335 125.771C77.3367 125.265 77.8996 124.836 78.3506 124.039C78.4033 123.946 78.5466 123.685 78.4473 123.543C78.3651 123.426 78.1919 123.496 78.1136 123.388C78.0085 123.242 78.2348 122.997 78.3661 122.559C78.4586 122.25 78.4569 122.002 78.4554 121.789C78.4549 121.725 78.4422 120.764 78.1517 120.7Z" fill="#F2F2F2"/>
<path d="M82.2839 122.643L82.4141 121.444L82.494 121.368C82.8634 121.02 83.0945 120.651 83.1812 120.271C83.195 120.21 83.2057 120.149 83.2166 120.087C83.2599 119.84 83.3135 119.534 83.5511 119.215C83.6841 119.038 84.0359 118.637 84.3987 118.777C84.4966 118.813 84.5627 118.877 84.6086 118.944C84.6201 118.932 84.6319 118.921 84.6446 118.908C84.8013 118.756 84.9109 118.7 85.0165 118.647C85.0977 118.605 85.1815 118.563 85.3233 118.45C85.3855 118.4 85.4353 118.355 85.4772 118.318C85.6045 118.204 85.7674 118.072 85.9904 118.124C86.2268 118.189 86.3079 118.414 86.3617 118.563C86.4577 118.829 86.4873 119.011 86.5069 119.133C86.5139 119.177 86.5221 119.227 86.5283 119.243C86.5801 119.373 87.2297 119.407 87.4741 119.421C88.0235 119.451 88.4989 119.476 88.6133 119.852C88.6953 120.121 88.5243 120.414 88.0904 120.746C87.9553 120.849 87.8201 120.921 87.7024 120.974C87.7748 121.042 87.8325 121.135 87.8361 121.262C87.844 121.561 87.5361 121.791 86.9211 121.946C86.7682 121.985 86.5626 122.037 86.2936 122.024C86.1669 122.017 86.0559 121.998 85.9613 121.98C85.9472 122.034 85.9213 122.09 85.8746 122.143C85.7377 122.299 85.5166 122.339 85.2165 122.251C84.8852 122.159 84.6235 122.033 84.3925 121.923C84.1907 121.827 84.0168 121.745 83.8708 121.723C83.5993 121.685 83.3461 121.852 83.0431 122.075L82.2839 122.643Z" fill="#F2F2F2"/>
<path d="M84.4506 115.81L83.2549 115.988L83.1616 115.93C82.7302 115.662 82.3138 115.533 81.9235 115.545C81.8615 115.547 81.7995 115.552 81.7365 115.558C81.4864 115.579 81.1756 115.605 80.8067 115.456C80.601 115.373 80.1231 115.135 80.1668 114.749C80.1775 114.645 80.2221 114.565 80.2756 114.504C80.2613 114.496 80.2471 114.487 80.2317 114.478C80.0446 114.365 79.9628 114.274 79.8841 114.185C79.8235 114.117 79.7611 114.047 79.6154 113.939C79.5516 113.892 79.4956 113.855 79.4486 113.824C79.3064 113.73 79.1363 113.606 79.1307 113.378C79.1333 113.133 79.3309 112.998 79.4617 112.908C79.6949 112.748 79.8646 112.673 79.9771 112.623C80.0182 112.605 80.0645 112.585 80.0786 112.574C80.1917 112.492 80.0595 111.856 80.0111 111.616C79.9006 111.078 79.805 110.613 80.1399 110.407C80.3794 110.26 80.7067 110.35 81.1389 110.685C81.2734 110.789 81.3768 110.902 81.4583 111.002C81.5062 110.915 81.5816 110.835 81.7034 110.8C81.9917 110.716 82.2926 110.955 82.5988 111.51C82.6753 111.647 82.7774 111.833 82.8331 112.096C82.8591 112.22 82.8685 112.332 82.875 112.428C82.9307 112.428 82.9915 112.438 83.0548 112.47C83.2411 112.563 83.3357 112.766 83.3264 113.078C83.3211 113.421 83.2661 113.706 83.2179 113.957C83.1761 114.176 83.1407 114.365 83.156 114.511C83.1882 114.783 83.4145 114.985 83.7072 115.221L84.4506 115.81Z" fill="#F2F2F2"/>
<path d="M84.6118 112.225L84.742 111.026L84.8219 110.95C85.1913 110.602 85.4224 110.233 85.5091 109.853C85.5229 109.792 85.5336 109.731 85.5445 109.669C85.5877 109.422 85.6414 109.116 85.879 108.797C86.012 108.62 86.3638 108.219 86.7266 108.359C86.8245 108.395 86.8906 108.459 86.9365 108.526C86.948 108.514 86.9598 108.503 86.9725 108.49C87.1292 108.338 87.2388 108.282 87.3444 108.229C87.4255 108.187 87.5093 108.145 87.6511 108.032C87.7133 107.982 87.7632 107.937 87.8051 107.9C87.9324 107.786 88.0953 107.654 88.3183 107.706C88.5547 107.771 88.6358 107.996 88.6896 108.145C88.7856 108.411 88.8152 108.593 88.8348 108.715C88.8418 108.759 88.85 108.809 88.8562 108.825C88.9079 108.955 89.5575 108.989 89.802 109.003C90.3514 109.033 90.8268 109.058 90.9412 109.434C91.0232 109.703 90.8522 109.996 90.4183 110.328C90.2832 110.431 90.148 110.503 90.0303 110.556C90.1027 110.624 90.1604 110.717 90.1639 110.844C90.1719 111.143 89.864 111.373 89.2489 111.528C89.0961 111.567 88.8905 111.619 88.6215 111.606C88.4948 111.6 88.3838 111.58 88.2891 111.562C88.275 111.616 88.2492 111.672 88.2025 111.725C88.0656 111.881 87.8445 111.921 87.5444 111.833C87.2131 111.741 86.9513 111.615 86.7204 111.505C86.5186 111.409 86.3446 111.327 86.1987 111.305C85.9272 111.267 85.674 111.434 85.371 111.657L84.6118 112.225Z" fill="#F2F2F2"/>
<path d="M80.7346 135.213L80.5232 135.005L80.2294 134.974C80.2308 134.946 80.2289 134.882 80.2267 134.781C80.2154 134.229 80.1803 132.549 80.4147 129.969C80.5783 128.167 80.8517 126.338 81.2274 124.532C81.6036 122.723 81.9941 121.377 82.3078 120.296C82.5445 119.48 82.7834 118.706 83.0167 117.952C83.6391 115.938 84.2268 114.036 84.5907 111.866C84.6722 111.382 84.8413 110.373 84.495 109.183C84.2941 108.493 83.9501 107.843 83.4722 107.253L83.9347 106.88C84.4621 107.532 84.8425 108.252 85.0657 109.018C85.4496 110.338 85.2653 111.437 85.1768 111.964C84.8064 114.173 84.2128 116.093 83.5843 118.127C83.3522 118.878 83.1141 119.648 82.8784 120.461C82.5676 121.532 82.1806 122.867 81.8092 124.652C81.4378 126.437 81.1679 128.243 81.0061 130.022C80.7748 132.57 80.8096 134.225 80.8209 134.769C80.8268 135.059 80.8281 135.12 80.7346 135.213Z" fill="#F2F2F2"/>
<path d="M82.2032 107.935C82.1794 107.93 82.1555 107.924 82.1315 107.917C81.6437 107.781 81.2524 107.384 80.9681 106.738C80.8351 106.434 80.8037 106.114 80.7411 105.477C80.7312 105.379 80.6878 104.881 80.7412 104.222C80.7759 103.791 80.8223 103.618 80.9397 103.483C81.0701 103.331 81.2458 103.245 81.4315 103.201C81.4365 103.144 81.4552 103.088 81.4923 103.036C81.645 102.816 81.9007 102.906 82.0394 102.953C82.1093 102.978 82.1964 103.01 82.2944 103.027C82.4484 103.053 82.5403 103.026 82.6794 102.986C82.8126 102.947 82.9782 102.899 83.207 102.903C83.6586 102.91 83.9928 103.112 84.1031 103.179C84.6836 103.527 84.884 104.082 85.116 104.726C85.1621 104.855 85.315 105.321 85.3506 105.921C85.3764 106.353 85.3195 106.531 85.2544 106.657C85.1212 106.918 84.9174 107.039 84.4116 107.293C83.8831 107.559 83.6179 107.692 83.4005 107.76C82.8946 107.919 82.5769 108.019 82.2032 107.935Z" fill="#F2F2F2"/>
<path d="M150 135.784C150 135.903 149.903 136 149.784 136H0V135.568H149.784C149.903 135.568 150 135.665 150 135.784Z" fill="#E6E6E6"/>
<path d="M41.6699 16.7383L50.8768 21.1492C50.8768 21.1492 60.6362 50.0041 60.6362 51.4744C60.6362 52.9447 63.3983 53.8636 61.741 55.5177C60.0838 57.1718 64.8256 58.5727 62.2706 59.8939C59.7155 61.2152 43.7766 68.4423 42.0043 67.7906C37.1161 65.9931 42.2114 59.3882 42.2114 59.3882C42.2114 59.3882 38.5395 56.4367 39.092 54.9664C39.6444 53.4961 35.7775 25.3764 35.7775 25.3764L41.6699 16.7383Z" fill="#E6E6E6"/>
<path d="M49.5488 11.228L50.5912 13.3089C50.5912 13.3089 51.6336 9.56334 53.3014 8.73101C54.9693 7.89867 55.1777 6.65016 55.1777 6.65016C55.1777 6.65016 57.2625 9.35526 58.7219 8.73101C60.1813 8.10675 60.8067 7.69058 59.1389 5.19356C57.471 2.69655 57.888 3.94506 57.888 3.94506C57.888 3.94506 56.4286 1.86421 56.6371 2.48846C56.8456 3.11272 55.3862 0.823783 55.3862 1.44804C55.3862 2.07229 54.3438 0.199527 54.3438 0.823783C54.3438 1.44804 49.9657 -0.632811 50.5912 0.19953C51.2166 1.03187 46.8385 -1.46515 44.7537 1.86421C42.6689 5.19356 39.7781 4.57787 40.8065 6.65443C41.835 8.731 41.418 14.3493 41.418 14.3493H44.2932C44.2932 14.3493 47.2555 8.73101 49.5488 11.228Z" fill="#2F2E41"/>
<path d="M110.906 28.8687L111.075 28.8212L119.377 26.4795L126.006 35.4851L121.586 54.2316L123.243 61.767C123.243 61.767 109.801 58.275 104.461 61.2156C104.461 61.2156 104.093 59.5398 104.461 58.7236C104.83 57.9074 105.382 54.5109 104.83 52.9928C104.277 51.4748 105.934 44.307 105.934 44.307C105.934 44.307 105.382 39.5285 107.776 37.1392C110.17 34.75 110.906 28.8687 110.906 28.8687Z" fill="#8AD6AD"/>
<path d="M103.366 62.7192L74.1949 48.2494C74.0498 48.1774 73.923 48.0783 73.818 47.9548L69.2663 42.6006C68.9645 42.2455 68.8991 41.7444 69.0999 41.3239L77.6347 23.4515C77.7842 23.1383 78.0626 22.9071 78.3984 22.817C78.7345 22.7271 79.0914 22.788 79.3781 22.9843L99.9508 37.0693C100.373 37.3584 100.562 37.8827 100.42 38.3739L96.2435 52.8817C96.1293 53.2786 96.2749 53.7116 96.6058 53.9592L104.869 60.1446C105.314 60.4777 105.467 61.0853 105.234 61.5893L104.973 62.1545C104.837 62.4478 104.594 62.6684 104.289 62.7757C104.16 62.8212 104.027 62.8438 103.894 62.8438C103.713 62.8438 103.533 62.802 103.366 62.7192Z" fill="#8AD6AD"/>
<path d="M103.134 59.1971L95.0131 52.4539C94.9431 52.3951 94.8879 52.3234 94.8492 52.2444C94.7756 52.0955 94.7608 51.9172 94.8161 51.7537L99.4435 38.2397C99.5632 37.8905 99.4343 37.5008 99.1286 37.2913L79.8493 24.1173C79.6522 23.9813 79.4055 23.9391 79.1735 23.9997C78.9396 24.0603 78.7463 24.2184 78.6395 24.4334L70.5116 40.9064C70.3882 41.1546 70.3974 41.4394 70.5337 41.6765C70.5503 41.7096 70.5705 41.7408 70.5945 41.7703L74.6823 47.1553C74.7615 47.2582 74.8646 47.3427 74.9806 47.3997L102.244 60.5755C102.358 60.6307 102.482 60.6582 102.605 60.6582C102.819 60.6582 103.032 60.5755 103.191 60.4156C103.209 60.3954 103.228 60.377 103.246 60.355C103.375 60.1988 103.441 59.9984 103.432 59.7944C103.421 59.5629 103.312 59.346 103.134 59.1971Z" fill="#F2F2F2"/>
<path d="M73.7099 39.896C73.7773 39.896 73.8421 39.859 73.8745 39.7949L80.4832 26.6904C80.5289 26.5997 80.4923 26.4892 80.4015 26.4436C80.3105 26.3977 80.2 26.4344 80.1543 26.5251L73.5456 39.6296C73.4998 39.7203 73.5364 39.8307 73.6272 39.8763C73.6539 39.8897 73.6821 39.896 73.7099 39.896Z" fill="#71CC9B"/>
<path d="M77.2085 42.1011C77.276 42.1011 77.3408 42.0641 77.3732 42L83.9818 28.8955C84.0276 28.8048 83.991 28.6943 83.9002 28.6487C83.809 28.6027 83.6985 28.6396 83.6529 28.7302L77.0443 41.8347C76.9985 41.9254 77.0351 42.0359 77.1259 42.0814C77.1525 42.0948 77.1808 42.1011 77.2085 42.1011Z" fill="#71CC9B"/>
<path d="M80.1547 43.939C80.2221 43.939 80.287 43.902 80.3193 43.8378L86.928 30.7333C86.9738 30.6426 86.9372 30.5322 86.8464 30.4866C86.7552 30.4407 86.6449 30.4774 86.5991 30.568L79.9904 43.6725C79.9447 43.7632 79.9813 43.8737 80.0721 43.9193C80.0987 43.9327 80.1269 43.939 80.1547 43.939Z" fill="#71CC9B"/>
<path d="M69.7243 42.1646C72.0093 41.4908 74.2098 42.1214 74.6392 43.5728C75.0685 45.0243 73.5643 46.7467 71.2784 47.4204C70.369 47.7021 69.4053 47.7622 68.4678 47.5959L58.7502 50.3287L57.5625 45.7498L67.2685 43.5419C67.9651 42.8936 68.8073 42.4213 69.7243 42.1646Z" fill="#FFB6B6"/>
<path d="M52.5363 25.9365L51.0132 44.1229L64.6561 44.2693L67.3039 48.3387C67.3039 48.3387 50.768 57.8951 45.8027 53.0121C40.8374 48.129 38.6281 27.5808 43.0427 24.0635C47.4572 20.5463 52.5363 25.9365 52.5363 25.9365Z" fill="#E6E6E6"/>
<path d="M97.2282 58.7729C94.8524 58.5943 93.0188 57.2259 93.133 55.7168C93.2471 54.2077 95.2655 53.1295 97.6422 53.3085C98.5925 53.367 99.515 53.6518 100.333 54.1391L110.39 55.0228L109.874 59.7245L100.014 58.3542C99.1321 58.7138 98.1769 58.8574 97.2282 58.7729Z" fill="#A0616A"/>
<path d="M126.641 36.6861L124.997 57.1737C124.997 57.1737 124.48 61.5888 117.59 61.312C110.701 61.0352 101.551 58.8647 101.551 58.8647L101.881 54.0835L109.582 54.5009C109.582 54.5009 113.109 53.444 113.85 53.9896C114.591 54.5352 114.302 55.2359 114.958 54.3485C115.613 53.4611 115.233 52.9524 115.887 53.6626C116.541 54.3728 116.736 55.6579 117.017 54.0383C117.299 52.4187 118.001 52.7072 118.001 52.7072L117.589 37.7863C117.589 37.7863 119.263 30.5685 123.148 32.7435C127.032 34.9186 126.641 36.6861 126.641 36.6861Z" fill="#8AD6AD"/>
</g>
<defs>
<clipPath id="clip0_90_5467">
<rect width="150" height="136" fill="white"/>
</clipPath>
</defs>
</svg>
