<svg width="18" height="18" viewBox="0 0 18 18" fill="none" xmlns="http://www.w3.org/2000/svg">
<path d="M9 9C9.4125 9 9.76575 8.853 10.0598 8.559C10.3533 8.2655 10.5 7.9125 10.5 7.5C10.5 7.0875 10.3533 6.73425 10.0598 6.44025C9.76575 6.14675 9.4125 6 9 6C8.5875 6 8.2345 6.14675 7.941 6.44025C7.647 6.73425 7.5 7.0875 7.5 7.5C7.5 7.9125 7.647 8.2655 7.941 8.559C8.2345 8.853 8.5875 9 9 9ZM9 16.5C6.9875 14.7875 5.4845 13.1967 4.491 11.7277C3.497 10.2592 3 8.9 3 7.65C3 5.775 3.60325 4.28125 4.80975 3.16875C6.01575 2.05625 7.4125 1.5 9 1.5C10.5875 1.5 11.9843 2.05625 13.1903 3.16875C14.3967 4.28125 15 5.775 15 7.65C15 8.9 14.5033 10.2592 13.5098 11.7277C12.5157 13.1967 11.0125 14.7875 9 16.5Z" fill="#71CC9B"/>
</svg>
