<svg width="139" height="174" viewBox="0 0 139 174" fill="none" xmlns="http://www.w3.org/2000/svg">
<path d="M65.5204 82.0905L60.0487 80.5348L58.18 3.35584C59.6578 3.82811 61.0579 4.64573 62.0926 5.64071C63.1274 6.63569 63.7181 7.73244 63.7436 8.70563L65.5204 82.0905Z" fill="#B0EBDD"/>
<path d="M81.0892 72.1347C84.7492 72.1311 88.3518 73.089 91.4829 74.8982C91.4897 74.9042 91.496 74.9042 91.5024 74.9103C93.9301 76.3093 96.0131 78.1745 97.6095 80.3786C97.7025 80.5058 97.7889 80.6328 97.8755 80.76C99.8642 83.6585 100.944 87.0071 100.992 90.4225L101.707 137.358C101.766 140.833 100.753 144.237 98.7896 147.165C98.6754 147.328 98.561 147.491 98.4465 147.654C97.0649 149.571 95.3018 151.221 93.2504 152.517C93.2382 152.523 93.2274 152.532 93.2184 152.541C90.0223 154.546 86.2429 155.612 82.3611 155.602L52.5994 155.569L51.3276 72.1015L81.0892 72.1347Z" fill="#71CC9B"/>
<path d="M55.5124 5.58306L57.2495 119.587C57.2553 119.944 57.1853 120.298 57.0435 120.629C56.9018 120.959 56.691 121.259 56.4233 121.512C56.1556 121.764 55.8362 121.965 55.4833 122.101C55.1305 122.238 54.7511 122.308 54.3669 122.307C53.9827 122.307 53.6011 122.236 53.2441 122.099C52.8871 121.962 52.5615 121.76 52.2861 121.507C52.0107 121.254 51.7908 120.953 51.639 120.623C51.4871 120.292 51.4063 119.938 51.4012 119.58L49.7515 11.3148C49.7311 9.84376 50.3168 8.43001 51.3882 7.364C52.4597 6.29798 53.9355 5.66068 55.5124 5.58306Z" fill="#B0EBDD"/>
<path d="M53.1256 161.949C50.3529 161.142 48.7738 158.405 49.5985 155.837C50.4232 153.269 53.3394 151.841 56.112 152.648C58.8847 153.455 60.4638 156.191 59.6391 158.76C58.8144 161.328 55.8982 162.756 53.1256 161.949Z" fill="#B0EBDD"/>
<path d="M88.8653 161.988C86.0927 161.181 84.5136 158.444 85.3382 155.876C86.1629 153.308 89.0791 151.88 91.8518 152.687C94.6244 153.494 96.2035 156.23 95.3788 158.799C94.5541 161.367 91.6379 162.795 88.8653 161.988Z" fill="#B0EBDD"/>
<path d="M91.4824 74.8979C91.833 91.5128 92.7746 134.964 93.2179 152.541C93.2269 152.531 93.2377 152.523 93.2499 152.517C95.3013 151.22 97.0644 149.57 98.446 147.654C98.5603 147.491 98.6747 147.328 98.7892 147.164C98.3881 128.088 97.7813 95.9347 97.875 80.7597C97.7884 80.6326 97.7021 80.5055 97.6091 80.3784C96.0127 78.1743 93.9296 76.3091 91.502 74.9101C91.4955 74.904 91.4892 74.904 91.4824 74.8979Z" fill="#B0EBDD"/>
</svg>
