<svg width="331" height="174" viewBox="0 0 331 174" fill="none" xmlns="http://www.w3.org/2000/svg">
<path d="M81.6884 79.742L71.0804 64.91V79.742H61.6724V45.902H71.0804V60.494L81.5924 45.902H92.4404L80.0084 62.318L93.0644 79.742H81.6884ZM109.029 80.078C106.341 80.078 103.925 79.518 101.781 78.398C99.6685 77.278 98.0045 75.678 96.7885 73.598C95.5725 71.518 94.9645 69.07 94.9645 66.254C94.9645 63.47 95.5725 61.038 96.7885 58.958C98.0365 56.878 99.7165 55.278 101.829 54.158C103.973 53.038 106.389 52.478 109.077 52.478C111.765 52.478 114.165 53.038 116.277 54.158C118.421 55.278 120.101 56.878 121.317 58.958C122.565 61.038 123.189 63.47 123.189 66.254C123.189 69.038 122.565 71.486 121.317 73.598C120.101 75.678 118.421 77.278 116.277 78.398C114.133 79.518 111.717 80.078 109.029 80.078ZM109.029 71.918C110.341 71.918 111.429 71.438 112.293 70.478C113.189 69.486 113.637 68.078 113.637 66.254C113.637 64.43 113.189 63.038 112.293 62.078C111.429 61.118 110.357 60.638 109.077 60.638C107.797 60.638 106.725 61.118 105.861 62.078C104.997 63.038 104.565 64.43 104.565 66.254C104.565 68.11 104.981 69.518 105.812 70.478C106.645 71.438 107.717 71.918 109.029 71.918ZM136.424 56.558C137.16 55.31 138.2 54.318 139.544 53.582C140.888 52.846 142.472 52.478 144.296 52.478C146.44 52.478 148.376 53.038 150.104 54.158C151.864 55.278 153.24 56.878 154.232 58.958C155.256 61.038 155.768 63.47 155.768 66.254C155.768 69.038 155.256 71.486 154.232 73.598C153.24 75.678 151.864 77.278 150.104 78.398C148.376 79.518 146.44 80.078 144.296 80.078C142.472 80.078 140.888 79.71 139.544 78.974C138.232 78.238 137.192 77.246 136.424 75.998V92.606H127.016V52.814H136.424V56.558ZM146.216 66.254C146.216 64.494 145.736 63.134 144.776 62.174C143.848 61.182 142.696 60.686 141.32 60.686C139.944 60.686 138.776 61.182 137.816 62.174C136.888 63.166 136.424 64.526 136.424 66.254C136.424 68.014 136.888 69.39 137.816 70.382C138.776 71.374 139.944 71.87 141.32 71.87C142.696 71.87 143.848 71.374 144.776 70.382C145.736 69.358 146.216 67.982 146.216 66.254ZM185.369 65.966C185.369 66.702 185.321 67.438 185.225 68.174H167.417C167.513 69.646 167.913 70.75 168.617 71.486C169.353 72.19 170.281 72.542 171.401 72.542C172.969 72.542 174.089 71.838 174.761 70.43H184.793C184.377 72.286 183.561 73.95 182.345 75.422C181.161 76.862 179.657 77.998 177.833 78.83C176.009 79.662 173.993 80.078 171.785 80.078C169.129 80.078 166.761 79.518 164.681 78.398C162.633 77.278 161.017 75.678 159.833 73.598C158.681 71.518 158.105 69.07 158.105 66.254C158.105 63.438 158.681 61.006 159.833 58.958C160.985 56.878 162.585 55.278 164.633 54.158C166.713 53.038 169.097 52.478 171.785 52.478C174.441 52.478 176.793 53.022 178.841 54.11C180.889 55.198 182.489 56.766 183.641 58.814C184.793 60.83 185.369 63.214 185.369 65.966ZM175.769 63.614C175.769 62.462 175.385 61.566 174.617 60.926C173.849 60.254 172.889 59.918 171.737 59.918C170.585 59.918 169.641 60.238 168.905 60.878C168.169 61.486 167.689 62.398 167.465 63.614H175.769ZM198.627 57.566C199.683 56.03 200.963 54.814 202.467 53.918C203.971 53.022 205.587 52.574 207.315 52.574V62.606H204.675C202.627 62.606 201.107 63.006 200.115 63.806C199.123 64.606 198.627 65.998 198.627 67.982V79.742H189.219V52.814H198.627V57.566ZM30.1896 105.182C30.1896 107.23 29.7096 109.102 28.7496 110.798C27.8216 112.462 26.3976 113.806 24.4776 114.83C22.5896 115.822 20.2696 116.318 17.5176 116.318H12.8616V127.742H3.45363V93.902H17.5176C20.2376 93.902 22.5416 94.382 24.4296 95.342C26.3496 96.302 27.7896 97.63 28.7496 99.326C29.7096 101.022 30.1896 102.974 30.1896 105.182ZM16.6056 108.83C19.2616 108.83 20.5896 107.614 20.5896 105.182C20.5896 102.718 19.2616 101.486 16.6056 101.486H12.8616V108.83H16.6056ZM61.5213 100.814V127.742H52.0653V123.902C51.2653 125.118 50.1613 126.11 48.7533 126.878C47.3453 127.614 45.7293 127.982 43.9053 127.982C40.7693 127.982 38.2893 126.958 36.4653 124.91C34.6733 122.83 33.7773 120.014 33.7773 116.462V100.814H43.1373V115.262C43.1373 116.798 43.5373 118.014 44.3373 118.91C45.1693 119.774 46.2573 120.206 47.6013 120.206C48.9773 120.206 50.0653 119.774 50.8653 118.91C51.6653 118.014 52.0653 116.798 52.0653 115.262V100.814H61.5213ZM78.3475 128.078C75.9155 128.078 73.7395 127.678 71.8195 126.878C69.9315 126.046 68.4275 124.926 67.3075 123.518C66.2195 122.078 65.6115 120.462 65.4835 118.67H74.6035C74.7315 119.534 75.1315 120.206 75.8035 120.686C76.4755 121.166 77.3075 121.406 78.2995 121.406C79.0675 121.406 79.6755 121.246 80.1235 120.926C80.5715 120.606 80.7955 120.19 80.7955 119.678C80.7955 119.006 80.4275 118.51 79.6915 118.19C78.9555 117.87 77.7395 117.518 76.0435 117.134C74.1235 116.75 72.5235 116.318 71.2435 115.838C69.9635 115.358 68.8435 114.574 67.8835 113.486C66.9555 112.398 66.4915 110.926 66.4915 109.07C66.4915 107.47 66.9235 106.03 67.7875 104.75C68.6515 103.438 69.9155 102.398 71.5795 101.63C73.2755 100.862 75.3075 100.478 77.6755 100.478C81.1955 100.478 83.9635 101.342 85.9795 103.07C87.9955 104.798 89.1635 107.07 89.4835 109.886H80.9875C80.8275 109.022 80.4435 108.366 79.8355 107.918C79.2595 107.438 78.4755 107.198 77.4835 107.198C76.7155 107.198 76.1235 107.342 75.7075 107.63C75.3235 107.918 75.1315 108.318 75.1315 108.83C75.1315 109.47 75.4995 109.966 76.2355 110.318C76.9715 110.638 78.1555 110.974 79.7875 111.326C81.7395 111.742 83.3555 112.206 84.6355 112.718C85.9475 113.23 87.0835 114.062 88.0435 115.214C89.0355 116.334 89.5315 117.87 89.5315 119.822C89.5315 121.39 89.0675 122.798 88.1395 124.046C87.2435 125.294 85.9475 126.286 84.2515 127.022C82.5875 127.726 80.6195 128.078 78.3475 128.078ZM110.045 119.726V127.742H105.965C99.0848 127.742 95.6448 124.334 95.6448 117.518V108.638H92.3328V100.814H95.6448V94.286H105.101V100.814H109.997V108.638H105.101V117.662C105.101 118.398 105.261 118.926 105.581 119.246C105.933 119.566 106.509 119.726 107.309 119.726H110.045ZM112.824 114.254C112.824 111.47 113.32 109.038 114.312 106.958C115.336 104.878 116.712 103.278 118.44 102.158C120.2 101.038 122.152 100.478 124.296 100.478C126.152 100.478 127.752 100.846 129.096 101.582C130.44 102.318 131.48 103.31 132.216 104.558V100.814H141.624V127.742H132.216V123.998C131.48 125.246 130.424 126.238 129.048 126.974C127.704 127.71 126.12 128.078 124.296 128.078C122.152 128.078 120.2 127.518 118.44 126.398C116.712 125.278 115.336 123.678 114.312 121.598C113.32 119.486 112.824 117.038 112.824 114.254ZM132.216 114.254C132.216 112.526 131.736 111.166 130.776 110.174C129.848 109.182 128.696 108.686 127.32 108.686C125.912 108.686 124.744 109.182 123.816 110.174C122.888 111.134 122.424 112.494 122.424 114.254C122.424 115.982 122.888 117.358 123.816 118.382C124.744 119.374 125.912 119.87 127.32 119.87C128.696 119.87 129.848 119.374 130.776 118.382C131.736 117.39 132.216 116.014 132.216 114.254ZM163.833 127.742L156.393 116.702V127.742H146.985V92.222H156.393V111.374L163.833 100.814H175.113L164.505 114.35L175.305 127.742H163.833ZM176.527 114.254C176.527 111.47 177.023 109.038 178.015 106.958C179.039 104.878 180.415 103.278 182.143 102.158C183.903 101.038 185.855 100.478 187.999 100.478C189.855 100.478 191.455 100.846 192.799 101.582C194.143 102.318 195.183 103.31 195.919 104.558V100.814H205.327V127.742H195.919V123.998C195.183 125.246 194.127 126.238 192.751 126.974C191.407 127.71 189.823 128.078 187.999 128.078C185.855 128.078 183.903 127.518 182.143 126.398C180.415 125.278 179.039 123.678 178.015 121.598C177.023 119.486 176.527 117.038 176.527 114.254ZM195.919 114.254C195.919 112.526 195.439 111.166 194.479 110.174C193.551 109.182 192.399 108.686 191.023 108.686C189.615 108.686 188.447 109.182 187.519 110.174C186.591 111.134 186.127 112.494 186.127 114.254C186.127 115.982 186.591 117.358 187.519 118.382C188.447 119.374 189.615 119.87 191.023 119.87C192.399 119.87 193.551 119.374 194.479 118.382C195.439 117.39 195.919 116.014 195.919 114.254Z" fill="#71CC9B"/>
<path d="M257.52 82.3171L252.049 80.7614L250.18 3.58242C251.658 4.05468 253.058 4.87231 254.093 5.86729C255.127 6.86227 255.718 7.95902 255.744 8.9322L257.52 82.3171Z" fill="#B0EBDD"/>
<path d="M273.089 72.3613C276.749 72.3577 280.352 73.3156 283.483 75.1248C283.489 75.1308 283.496 75.1308 283.502 75.1369C285.93 76.5359 288.013 78.4011 289.609 80.6052C289.702 80.7324 289.789 80.8594 289.875 80.9866C291.864 83.8851 292.944 87.2337 292.992 90.6491L293.707 137.584C293.766 141.06 292.753 144.463 290.789 147.391C290.675 147.554 290.561 147.718 290.446 147.881C289.065 149.797 287.302 151.447 285.25 152.744C285.238 152.75 285.227 152.758 285.218 152.768C282.022 154.773 278.243 155.838 274.361 155.828L244.599 155.795L243.327 72.3281L273.089 72.3613Z" fill="#71CC9B"/>
<path d="M247.512 5.80997L249.249 119.814C249.255 120.171 249.185 120.525 249.043 120.856C248.902 121.186 248.691 121.486 248.423 121.739C248.155 121.991 247.836 122.192 247.483 122.328C247.13 122.465 246.751 122.535 246.367 122.534C245.982 122.534 245.601 122.463 245.244 122.326C244.887 122.188 244.561 121.987 244.286 121.734C244.01 121.481 243.791 121.18 243.639 120.85C243.487 120.519 243.406 120.165 243.401 119.807L241.751 11.5417C241.731 10.0707 242.317 8.65692 243.388 7.5909C244.459 6.52489 245.935 5.88758 247.512 5.80997Z" fill="#B0EBDD"/>
<path d="M245.125 162.175C242.353 161.368 240.773 158.632 241.598 156.063C242.423 153.495 245.339 152.067 248.112 152.874C250.884 153.681 252.463 156.418 251.639 158.986C250.814 161.554 247.898 162.982 245.125 162.175Z" fill="#B0EBDD"/>
<path d="M280.865 162.214C278.093 161.407 276.513 158.671 277.338 156.102C278.163 153.534 281.079 152.106 283.852 152.913C286.624 153.721 288.203 156.457 287.379 159.025C286.554 161.594 283.638 163.021 280.865 162.214Z" fill="#B0EBDD"/>
<path d="M283.482 75.125C283.833 91.7398 284.775 135.192 285.218 152.768C285.227 152.758 285.238 152.75 285.25 152.744C287.301 151.448 289.064 149.797 290.446 147.881C290.56 147.718 290.675 147.555 290.789 147.391C290.388 128.315 289.781 96.1617 289.875 80.9868C289.788 80.8597 289.702 80.7326 289.609 80.6054C288.013 78.4013 285.93 76.5362 283.502 75.1371C283.496 75.131 283.489 75.131 283.482 75.125Z" fill="#B0EBDD"/>
</svg>
