<svg xmlns="http://www.w3.org/2000/svg" width="306" height="228" fill="none" viewBox="0 0 306 228">
  <path fill="#EBEBEB" d="M305.991 200.363H0v.153h305.991v-.153Zm-30.66 9.847h-20.269v.153h20.269v-.153Zm-72.631 1.664h-5.318v.153h5.318v-.153Zm51.75-7.344h-11.744v.153h11.744v-.153Zm-195.914 1.029H32.105v.153h26.431v-.153Zm9.326 0h-3.874v.153h3.874v-.153Zm69.925 2.582h-57.33v.153h57.33v-.153Zm7.253-35.073H26.873a3.492 3.492 0 0 1-3.489-3.494V3.464A3.494 3.494 0 0 1 26.873 0H145.04a3.494 3.494 0 0 1 3.495 3.494v166.08a3.496 3.496 0 0 1-3.495 3.494ZM26.873.122a3.341 3.341 0 0 0-3.336 3.342v166.11a3.344 3.344 0 0 0 3.336 3.341H145.04a3.345 3.345 0 0 0 3.342-3.341V3.464A3.35 3.35 0 0 0 145.04.122H26.873Zm250.545 172.946H159.244a3.498 3.498 0 0 1-3.494-3.494V3.464A3.5 3.5 0 0 1 159.244 0h118.174a3.495 3.495 0 0 1 3.482 3.464v166.11a3.494 3.494 0 0 1-3.482 3.494ZM159.244.122a3.347 3.347 0 0 0-3.341 3.342v166.11a3.345 3.345 0 0 0 3.341 3.341h118.174a3.348 3.348 0 0 0 3.341-3.341V3.464a3.35 3.35 0 0 0-3.341-3.342H159.244Z"/>
  <path fill="#E0E0E0" d="M231.494 161.961v8.69l3.672 2.668h-17.135l5.471-2.032v-8.72l7.992-.606Z"/>
  <path fill="#E0E0E0" d="M185.271 173.068v27.374h76.498v-27.374h-76.498Zm1.377 1.775h59.877v8.947h-59.87l-.007-8.947Z"/>
  <path fill="#EBEBEB" d="M185.271 173.068v27.374h63.096v-27.374h-63.096Zm1.377 1.775h59.877v8.947h-59.87l-.007-8.947Z"/>
  <path fill="#E0E0E0" d="M186.649 183.79h12.337v-8.947h-12.337v8.947Zm44.606 0h15.269v-4.473h-15.269v4.473Zm-12.618 0h11.493v-2.656h-11.493v2.656Zm-13.604 0h10.948v-5.434h-10.948v5.434Zm30.642 1.946.324 1.071h4.394l.331-1.071h5.801v11.879h-19.259v-11.879h8.409Zm-22.889 0 .33 1.071h4.394l.331-1.071h8.402v11.879h-19.259v-11.879h5.802Zm-17.674 0 .324 1.071h4.394l.331-1.071h5.801v11.879h-19.259v-11.879h8.409Zm1.347-18.579h56.909a2.16 2.16 0 0 0 2.16-2.161v-32.673a2.16 2.16 0 0 0-2.16-2.161h-56.909a2.16 2.16 0 0 0-2.16 2.161v32.673a2.16 2.16 0 0 0 2.16 2.161Z"/>
  <path fill="#E6E6E6" d="M195.021 167.157h56.908a2.16 2.16 0 0 0 2.16-2.161v-32.673a2.16 2.16 0 0 0-2.16-2.161h-56.908a2.16 2.16 0 0 0-2.16 2.161v32.673a2.16 2.16 0 0 0 2.16 2.161Z"/>
  <path fill="#F0F0F0" d="M252.29 165.358v-33.402h-57.631v33.402h57.631Z"/>
  <path fill="#EBEBEB" d="M116.974 32.215h-72.6v75.016h72.6V32.215Z"/>
  <path fill="#F0F0F0" d="M119.514 32.215h-72.6v75.016h72.6V32.215Z"/>
  <path fill="#E0E0E0" d="M117.593 33.995H48.745v71.498h68.848V33.995Z"/>
  <path fill="#F5F5F5" d="M115.873 33.995H48.745v71.498h67.128V33.995Z"/>
  <path fill="#EBEBEB" d="M83.003 33.995h-1.365v71.498h1.365V33.995Z"/>
  <path fill="#fff" d="m90.824 33.995 19.131 71.492h1.836l-19.13-71.492h-1.837Z"/>
  <path fill="#F0F0F0" d="M83.584 32.894h-1.169v73.97h1.17v-73.97Z"/>
  <path fill="#fff" d="m97.765 33.995 18.108 67.661v-37.19l-8.151-30.47h-9.957Zm-49.02 6.488v6.86l15.562 58.144h1.836L48.745 40.483Zm0 13.855v37.19l3.733 13.959h9.95L48.745 54.338Z"/>
  <path fill="#E6E6E6" d="M244.517 36.492h-43.958V89.98h43.958V36.492Z"/>
  <path fill="#E0E0E0" d="M234.457 76.73 211.36 54.027l24.988-4.125-1.891 26.83Z"/>
  <path fill="#F0F0F0" d="m211.917 71.351-1.144-17.41 17.392 4.27 1.261 13.317-17.509-.177Z"/>
  <path fill="#FAFAFA" d="M239.632 51.812a7.02 7.02 0 1 0-9.928-9.927 7.02 7.02 0 0 0 9.928 9.927Z"/>
  <path fill="#E0E0E0" d="M214.194 77.556a3.402 3.402 0 0 0-2.101-3.154 3.41 3.41 0 1 0 2.101 3.154Z"/>
  <path fill="#F5F5F5" d="m211.593 83.542 9.829-5.986-8.262-6.81-1.567 12.796Z"/>
  <path fill="#E0E0E0" d="M223.209 86.008h1.934v-42.71h-1.934v42.71Z"/>
  <path fill="#EBEBEB" d="M204.683 84.117h2.503v-40.82h-2.503v40.82Zm22.637.196h12.779V71.535H227.32v12.778ZM81.332 173.54l-8.09-23.317s11.212 8.317 11.15-.9c-.06-9.216-5.116-2.056-6.86-5.465-1.744-3.408 4.975-3.372 2.613-8.537-2.362-5.165-9.063 2.773-10.25-1.805-1.188-4.578-3.06-6.903-7.956-6.493 0 0-2.638 6.022.612 10.373 3.25 4.351-8.023.857-6.86 5.232 1.162 4.376 4.895 8.195 6.554 5.117 1.658-3.079 3.745 2.821.924 4.345-2.821 1.523 3.672 8.108 5.122 4.651a36.474 36.474 0 0 1 3.672-6.53l7.46 24.95 1.91-1.621Z"/>
  <path fill="#E6E6E6" d="m89.673 173.748 9.119-14.914s-9.02 4.063-7.576-2.307c1.444-6.371 3.849-.655 5.575-2.748 1.725-2.093-2.938-3.06-.52-6.304 2.417-3.243 5.856 3.287 7.343.3 1.487-2.986 3.164-4.314 6.487-3.292 0 0 .918 4.565-1.983 7.086-2.9 2.522 5.41 1.836 3.96 4.664-1.45 2.827-4.627 4.932-5.306 2.552-.679-2.381-3.023 1.389-1.297 2.864 1.726 1.475-3.782 5.055-4.247 2.448a25.949 25.949 0 0 0-1.555-5.074l-8.929 16.138-1.07-1.413Z"/>
  <path fill="#F5F5F5" d="m83.53 173.888 4.173-24.02s-9.614 9.896-11.016.894c-1.401-9.003 4.657-2.822 5.82-6.426 1.163-3.605-5.392-2.491-3.91-7.907 1.48-5.416 9.283 1.261 9.712-3.39.428-4.651 1.897-7.222 6.731-7.595 0 0 3.532 5.447 1.065 10.208-2.466 4.761 7.956-.435 7.528 4.014-.429 4.45-3.47 8.77-5.57 6.028-2.098-2.741-3.206 3.354-.213 4.382 2.992 1.028-2.308 8.495-4.254 5.355a35.77 35.77 0 0 0-4.62-5.777l-3.299 25.507-2.148-1.273Z"/>
  <path fill="#EBEBEB" d="M78.334 200.895h14.332a1.897 1.897 0 0 0 1.897-1.781l1.518-24.699a1.893 1.893 0 0 0-1.14-1.857 1.907 1.907 0 0 0-.751-.157H76.81a1.907 1.907 0 0 0-1.38.599 1.887 1.887 0 0 0-.511 1.415l1.517 24.73a1.9 1.9 0 0 0 1.897 1.75Z"/>
  <path fill="#F5F5F5" d="M75.12 175.161h20.961a1.894 1.894 0 0 0 1.885-1.683 1.895 1.895 0 0 0-1.885-2.123h-20.96a1.9 1.9 0 0 0-1.415.633 1.901 1.901 0 0 0-.47 1.478 1.899 1.899 0 0 0 1.885 1.695ZM152.996 228c65.533 0 118.657-3.102 118.657-6.928s-53.124-6.927-118.657-6.927c-65.533 0-118.657 3.101-118.657 6.927 0 3.826 53.124 6.928 118.657 6.928Z"/>
  <path fill="#263238" d="M218.068 39.553v172.254a2.677 2.677 0 0 1-.802 1.915 2.695 2.695 0 0 1-1.928.772h-92.556a2.41 2.41 0 0 1-2.448-2.448V39.332a2.183 2.183 0 0 1 .578-1.564 2.167 2.167 0 0 1 1.515-.694h22.001a1.705 1.705 0 0 1 1.561 1.096l1.009 2.447a1.709 1.709 0 0 0 1.567 1.084h41.376a1.695 1.695 0 0 0 1.561-1.065l1.009-2.49a1.718 1.718 0 0 1 1.561-1.102h21.627a2.45 2.45 0 0 1 2.369 2.509Z"/>
  <path fill="#71CC9B" d="M218.074 48.567h-97.727v153.711h97.727V48.567Z"/>
  <path fill="#fff" d="M218.074 48.567h-97.727v153.711h97.727V48.567Z" opacity=".7"/>
  <path fill="#fff" d="M131.889 44.485h1.267v-1.683h-1.267v1.683Zm-2.063 0h1.267V42.24h-1.267v2.246Zm-2.063 0h1.267v-2.809h-1.267v2.81Zm-2.062 0h1.267v-3.372h-1.267v3.372Zm81.045-2.301H206v1.683h.746v-1.683Zm.514 2.301h5.973v-2.919h-5.973v2.92Z" opacity=".6"/>
  <path fill="#263238" d="M164.373 63.83h32.16a.694.694 0 0 0 .756-.688.69.69 0 0 0-.756-.689h-32.16a.692.692 0 0 0 0 1.377Zm39.478 2.552h-39.656a.51.51 0 0 0-.395.883.518.518 0 0 0 .395.126h39.656a.506.506 0 0 0 .323-.843.506.506 0 0 0-.323-.166Zm-11.633 2.895h-28.023a.51.51 0 0 0-.395.883.516.516 0 0 0 .395.127h28.023a.507.507 0 0 0 0-1.01Z"/>
  <path fill="#71CC9B" d="M216.905 88.004h-95.396v95.395h95.396V88.004Zm-3.072 105.713-2.687-2.319-2.692 2.319v-6.377h5.379v6.377Zm-9.707-6.377h-4.052a1.003 1.003 0 0 0-1.003 1.004v2.766a1.005 1.005 0 0 0 1.003 1.004h1.377v1.603l1.047-1.603h1.628a.997.997 0 0 0 1.003-1.004v-2.766a.996.996 0 0 0-1.003-1.004Zm-8.119.759c-.747-1.224-2.191-.765-2.938.184-.74-.955-2.179-1.439-2.943-.215-1.28 2.057 1.327 3.984 2.564 4.743l.349.215.354-.215c1.218-.74 3.874-2.637 2.614-4.712Z"/>
  <g opacity=".3">
    <path fill="#fff" d="M197.426 96.033h3.611l-1.805 4.681-1.806-4.681Zm11.634 23.304 1.095 3.439-5.006-.306 3.911-3.133Z" opacity=".7"/>
    <path fill="#fff" d="m207.652 104.246-1.714 4.204 5.208 1.817v-3.402l-3.494-2.619Zm-67.526-9.339h2.65l-2.65 3.47v-3.47Zm-9.963 17.104 2.998-.685.839 2.576-3.458 1.206-.379-3.097Zm30.342-13.634a1.169 1.169 0 1 0 0-2.338 1.169 1.169 0 0 0 0 2.338Zm-17.031 77.207a2.32 2.32 0 0 1-2.774 2.275 2.322 2.322 0 0 1-1.687-3.167 2.326 2.326 0 0 1 3.034-1.251 2.316 2.316 0 0 1 1.427 2.143Zm-11.169-20.153.857 1.451-4.143 1.775-.943-.967 4.229-2.259Zm27.032 23.746-.808-2.05h3.152l-2.344 2.05Zm33.48-2.05.245-2.283 4.321 1.138v3.336l-4.566-2.191Zm9.284-11.769h3.861l-1.928 2.283-1.933-2.283Zm6.354-23.488-.802 4.847.887.808.832-5.655h-.917Zm-82.857-14.198 3.421 2.485-2.448 1.799-.973-4.284Zm15.177-19.669a.385.385 0 1 0 0-.77.385.385 0 0 0 0 .77Zm49.546-4.596a.539.539 0 1 0 0-1.077.539.539 0 0 0 0 1.077Zm-14.454 73.279a.432.432 0 0 1-.435.434.431.431 0 0 1-.434-.434.432.432 0 0 1 .741-.307.432.432 0 0 1 .128.307Zm5.096-83.878 4.308-.65v2.1l-4.308.649v-2.1Zm28.408 2.099h1.414l-.71 1.731-.704-1.731Zm-81.295 2.301h2.087l-1.046 1.168-1.041-1.168Zm79.112 81.968-.202-4.014 3.09 1.089-2.888 2.925Zm2.967-23.102-1.616-1.291v1.291l1.616.973v-.973Zm-82.851-12.913 1.812 1.537-.906 1.37-2.399-1.921 1.493-.986Zm-1.492-35.929h2.264l-2.478.771.214-.771Z"/>
  </g>
  <path fill="#71CC9B" d="m165.278 103.566 4.094-3.85 4.051 3.887 4.921-2.711 2.962 4.773 5.44-1.395 1.677 5.355h5.618l.3 5.605 5.44 1.396-1.113 5.508 4.926 2.705-2.442 5.055 4.094 3.843-3.622 4.29 3.011 4.743-4.578 3.255 1.738 5.337-5.239 2.013.355 5.606-5.581.649-1.046 5.52-5.57-.765-2.386 5.085-5.202-2.123-3.58 4.333-4.51-3.348-4.541 3.305-3.538-4.364-5.22 2.069-2.338-5.104-5.569.704-.997-5.526-5.575-.704.41-5.6-5.221-2.062 1.787-5.325-4.547-3.298 3.06-4.712-3.586-4.327 4.137-3.8-2.393-5.086 4.951-2.656-1.059-5.514 5.453-1.34.349-5.606 5.618.055 1.732-5.343 5.428 1.451 3.005-4.743 4.896 2.76Z"/>
  <path fill="#000" d="m202.235 139.251 3.623-4.284-4.094-3.844 2.448-5.054-4.927-2.705 1.114-5.508-5.441-1.396-.299-5.605h-5.618l-1.677-5.355-5.441 1.395-2.962-4.773-4.896 2.711-4.051-3.886-4.094 3.849-4.896-2.76-3.005 4.749-5.428-1.457-1.732 5.343-5.618-.055-.349 5.606-5.453 1.34 1.059 5.508-4.951 2.656 2.393 5.085-4.168 3.825 3.587 4.327-3.06 4.712 4.547 3.299-1.787 5.324 5.22 2.062-.41 5.6 5.575.704.992 5.508 5.575-.704 2.337 5.104 5.221-2.069 3.537 4.364 4.541-3.305 4.51 3.348 3.58-4.333 5.202 2.123 2.387-5.085 5.563.765 1.052-5.508 5.582-.649-.361-5.606 5.244-2.013-1.738-5.343 4.578-3.249-3.011-4.761Zm-1.126 3.953-4.045 2.876 1.536 4.719-4.633 1.774.318 4.951-4.932.576-.924 4.896-4.896-.674-2.112 4.492-4.589-1.872-3.164 3.818-3.984-2.955-4.009 2.919-3.121-3.856-4.614 1.836-2.063-4.51-4.926.612-.875-4.896-4.896-.612.367-4.945-4.614-1.836 1.579-4.7-4.015-2.913 2.705-4.161-3.17-3.819 3.672-3.36-2.173-4.516 4.376-2.344-.936-4.896 4.822-1.181.306-4.951 4.957.049 1.53-4.719 4.792 1.286 2.656-4.192 4.327 2.447 3.61-3.402 3.58 3.433 4.345-2.393 2.62 4.217 4.804-1.224 1.481 4.737h4.963l.263 4.957 4.804 1.224-.979 4.859 4.345 2.386-2.154 4.468 3.617 3.396-3.201 3.789 2.65 4.21Z" opacity=".4"/>
  <path fill="#000" d="m165.278 103.566 4.094-3.85 4.051 3.887 4.921-2.711 2.962 4.773 5.44-1.395 1.677 5.355h5.618l.3 5.605 5.44 1.396-1.113 5.508 4.926 2.705-2.442 5.055 4.094 3.843-3.622 4.29 3.011 4.743-4.578 3.255 1.738 5.337-5.239 2.013.355 5.606-5.581.649-1.046 5.52-5.57-.765-2.386 5.085-5.202-2.123-3.58 4.333-4.51-3.348-4.541 3.305-3.538-4.364-5.22 2.069-2.338-5.104-5.569.704-.997-5.526-5.575-.704.41-5.6-5.221-2.062 1.787-5.325-4.547-3.298 3.06-4.712-3.586-4.327 4.137-3.8-2.393-5.086 4.951-2.656-1.059-5.514 5.453-1.34.349-5.606 5.618.055 1.732-5.343 5.428 1.451 3.005-4.743 4.896 2.76Z" opacity=".4"/>
  <path fill="#71CC9B" d="m201.624 138.027 3.622-4.284-4.094-3.843 2.448-5.055-4.926-2.705 1.114-5.508-5.441-1.395-.3-5.606h-5.618l-1.677-5.355-5.44 1.395-2.962-4.773-4.896 2.711-4.051-3.886-4.094 3.849-4.896-2.76-3.005 4.749-5.428-1.456-1.732 5.342-5.618-.055-.349 5.606-5.453 1.34 1.059 5.508-4.951 2.656 2.393 5.086-4.168 3.824 3.586 4.327-3.06 4.712 4.547 3.299-1.787 5.324 5.221 2.063-.41 5.599 5.575.704.991 5.508 5.575-.704 2.338 5.104 5.22-2.069 3.538 4.364 4.541-3.305 4.51 3.348 3.58-4.333 5.202 2.123 2.386-5.085 5.563.765 1.053-5.508 5.581-.649-.361-5.605 5.245-2.014-1.738-5.342 4.578-3.25-3.011-4.761Zm-1.126 3.953-4.046 2.876 1.536 4.719-4.632 1.775.318 4.951-4.933.575-.924 4.896-4.896-.674-2.111 4.492-4.59-1.872-3.164 3.819-3.984-2.956-4.008 2.919-3.121-3.856-4.615 1.836-2.062-4.51-4.927.612-.875-4.896-4.896-.612.368-4.945-4.615-1.836 1.579-4.7-4.014-2.913 2.705-4.161-3.17-3.819 3.671-3.36-2.172-4.516 4.376-2.344-.937-4.896 4.823-1.181.306-4.951 4.957.049 1.53-4.718 4.791 1.285 2.656-4.192 4.327 2.448 3.611-3.403 3.58 3.433 4.345-2.393 2.619 4.217 4.804-1.224 1.481 4.737h4.964l.263 4.957 4.804 1.224-.979 4.859 4.345 2.387-2.155 4.467 3.617 3.397-3.2 3.788 2.65 4.21Z"/>
  <path fill="#fff" d="m201.624 138.027 3.622-4.284-4.094-3.843 2.448-5.055-4.926-2.705 1.114-5.508-5.441-1.395-.3-5.606h-5.618l-1.677-5.355-5.44 1.395-2.962-4.773-4.896 2.711-4.051-3.886-4.094 3.849-4.896-2.76-3.005 4.749-5.428-1.456-1.732 5.342-5.618-.055-.349 5.606-5.453 1.34 1.059 5.508-4.951 2.656 2.393 5.086-4.168 3.824 3.586 4.327-3.06 4.712 4.547 3.299-1.787 5.324 5.221 2.063-.41 5.599 5.575.704.991 5.508 5.575-.704 2.338 5.104 5.22-2.069 3.538 4.364 4.541-3.305 4.51 3.348 3.58-4.333 5.202 2.123 2.386-5.085 5.563.765 1.053-5.508 5.581-.649-.361-5.605 5.245-2.014-1.738-5.342 4.578-3.25-3.011-4.761Zm-1.126 3.953-4.046 2.876 1.536 4.719-4.632 1.775.318 4.951-4.933.575-.924 4.896-4.896-.674-2.111 4.492-4.59-1.872-3.164 3.819-3.984-2.956-4.008 2.919-3.121-3.856-4.615 1.836-2.062-4.51-4.927.612-.875-4.896-4.896-.612.368-4.945-4.615-1.836 1.579-4.7-4.014-2.913 2.705-4.161-3.17-3.819 3.671-3.36-2.172-4.516 4.376-2.344-.937-4.896 4.823-1.181.306-4.951 4.957.049 1.53-4.718 4.791 1.285 2.656-4.192 4.327 2.448 3.611-3.403 3.58 3.433 4.345-2.393 2.619 4.217 4.804-1.224 1.481 4.737h4.964l.263 4.957 4.804 1.224-.979 4.859 4.345 2.387-2.155 4.467 3.617 3.397-3.2 3.788 2.65 4.21Z" opacity=".6"/>
  <path fill="#000" d="M151.221 133.908s3.121-.538 4.657 0c1.536.539 8.035 11.628 8.035 11.628s12.607-17.344 22.687-24.926c0 0-13.078 11.713-20.661 31.376 0 0-2.552 1.126-4.357-.887-.52-.612-6.377-10.594-7.509-10.967-.888-.3-3.752-.153-3.752-.153l.9-6.071Z" opacity=".4"/>
  <path fill="#fff" d="M150.609 133.296s3.121-.538 4.657 0c1.536.539 8.036 11.628 8.036 11.628s12.606-17.344 22.686-24.926c0 0-13.078 11.713-20.661 31.376 0 0-2.552 1.126-4.357-.887-.52-.612-6.377-10.594-7.509-10.967-.887-.3-3.752-.153-3.752-.153l.9-6.071Z"/>
  <path fill="#71CC9B" d="M155.315 69.246a14.651 14.651 0 0 1-1.836 7.172l-.27.46a14.601 14.601 0 0 1-3.311 3.806l-.073.061a14.634 14.634 0 0 1-9.216 3.243c-.551.004-1.1-.027-1.647-.091a14.555 14.555 0 0 1-8.445-3.91 14.758 14.758 0 0 1-1.471-19.89 14.76 14.76 0 0 1 12.863-5.557 14.757 14.757 0 0 1 13.473 14.706h-.067Z"/>
  <path fill="#263238" d="m153.454 76.418-.269.46a39.44 39.44 0 0 0-10.018 1.131l-1.096.27-.746.196c-.937.25-1.836.514-2.601.764l-.349.117-.251.08a59.64 59.64 0 0 0-2.283.807c-.887.337-1.395.557-1.395.557-.29-.374-.556-.767-.796-1.175l-.036-.067c-1.328-2.228-3.672-7.344-2.571-14.688 1.224-8.17 7.999-7.65 10.404-7.197.287.048.571.113.851.196 0 0 7.582 1.787 7.864 6.511a15.7 15.7 0 0 0 .232 1.885 58.951 58.951 0 0 0 3.06 10.153Z"/>
  <path fill="#71CC9B" d="M145.652 83.095a14.63 14.63 0 0 1-5.067.894c-.55.003-1.1-.028-1.646-.092a14.224 14.224 0 0 1-2.705-.557l-.471-3.85-.227-1.835 10.092 1.432v.862l.03 2.534v.612h-.006Z"/>
  <path fill="#263238" d="M149.801 80.745a14.63 14.63 0 0 1-9.217 3.244c-.55.003-1.1-.028-1.646-.092a14.549 14.549 0 0 1-8.445-3.91c.465-.074.936-.13 1.407-.19h.117a50.953 50.953 0 0 1 1.67-.16 42.688 42.688 0 0 1 1.977-.122h.116l.808-.03h2.087c1.224 0 2.464.044 3.721.134l1.267.104.667.067.967.147.214.03h.147l1.138.197c.177.03.355.073.532.098l.337.067.361.067.612.123.428.085.735.141Z"/>
  <path fill="#E4897B" d="M143.069 83.23c-4.204-.716-5.403-2.577-5.403-2.577 1.799-1.554 1.585-3.972 1.223-5.508a8.753 8.753 0 0 0-.465-1.401l5.049 1.163a15.124 15.124 0 0 0-.287 2.13 6.475 6.475 0 0 0 .079 1.584c.282 1.53 1.151 1.592 1.151 1.592.801 1.744-1.347 3.017-1.347 3.017Z"/>
  <path fill="#000" d="M143.167 77.073a6.524 6.524 0 0 0 .08 1.585c-2.007-.355-3.476-2.032-4.376-3.476a8.757 8.757 0 0 0-.465-1.401l5.049 1.162a15.27 15.27 0 0 0-.288 2.13Z" opacity=".2"/>
  <path fill="#E4897B" d="M142.481 60.476c4.78.208 6.212 2.834 6.347 7.772.177 6.17-1.377 10.484-7.295 8.917-8.042-2.136-6.989-17.031.948-16.689Z"/>
  <path fill="#DE5753" d="M145.75 67.844c.353.732.793 1.418 1.309 2.044a1.33 1.33 0 0 1-1.285.49l-.024-2.534Z"/>
  <path fill="#263238" d="M140.835 64.87a.222.222 0 0 1-.147-.055.224.224 0 0 1-.05-.071.224.224 0 0 1 0-.17.225.225 0 0 1 .05-.071 2.675 2.675 0 0 1 2.307-.704.213.213 0 0 1 .08.032.206.206 0 0 1 .062.06.213.213 0 0 1 .036.165.223.223 0 0 1-.171.176.218.218 0 0 1-.086.002 2.3 2.3 0 0 0-1.897.563.225.225 0 0 1-.184.073Zm7.473-.196a.236.236 0 0 1-.129-.042 2.03 2.03 0 0 0-1.689-.447.22.22 0 0 1-.281-.14.226.226 0 0 1 .14-.282 2.453 2.453 0 0 1 2.087.508.228.228 0 0 1 .049.312.23.23 0 0 1-.177.091Z"/>
  <path fill="#263238" d="M136.912 68.31s2.405-3.832 2.197-6.88c0 0 9.639-3.463 9.694 6.17 0 0 1.291-8.495-6.915-9.04-8.207-.544-8.69 11.481-4.602 15.245 0 0-1.861-3.103-.374-5.496Z"/>
  <path fill="#E4897B" d="M137.653 69.35a2.105 2.105 0 0 0-2.172-2.013c-1.494.097-2.326 3.108 1.328 3.996.52.128.838-.343.844-1.983Z"/>
  <path fill="#263238" d="M145.866 71.786c-.326.484-.616.992-.869 1.517l-.3-.085c-1.334-.416-1.836-1.047-1.952-1.622a1.8 1.8 0 0 1 .03-.857c.039-.159.101-.311.184-.453a6.604 6.604 0 0 0 2.448 1.353c.281.098.459.147.459.147Z"/>
  <path fill="#fff" d="m145.412 71.639-.269.44c-1.224-.391-2.093-.832-2.369-1.34.039-.159.101-.311.184-.453a6.607 6.607 0 0 0 2.454 1.353Z"/>
  <path fill="#DE5753" d="M144.697 73.218c-1.334-.416-1.836-1.047-1.952-1.622.507.165.979.42 1.395.753.275.221.471.526.557.869Z"/>
  <path fill="#263238" d="M142.371 60.831s-2.264 7.785-7.209 7.472c-4.945-.312 3.121-9.944 3.121-9.944s8.206-2.7 12.013 1.762c3.807 4.462-1.493 7.479-1.493 7.479s.563-6.077-6.432-6.769Z"/>
  <path fill="#263238" d="M138.699 67.538a.153.153 0 0 1-.14-.098.153.153 0 0 1 .079-.196c3.856-1.652 3.556-6.909 3.556-6.964a.153.153 0 0 1 .141-.159.16.16 0 0 1 .165.14c0 .056.312 5.509-3.739 7.265l-.062.012Zm4.234.037c.043.367-.122.692-.367.722-.245.031-.483-.25-.526-.612-.043-.36.122-.691.367-.722.245-.03.484.239.526.612Z"/>
  <path fill="#263238" d="m142.304 66.988.771-.41s-.324.74-.771.41Zm5.214-.037c.043.367-.122.692-.367.722-.245.03-.484-.245-.527-.612-.042-.367.123-.691.368-.722.244-.03.495.245.526.612Z"/>
  <path fill="#263238" d="m146.875 66.363.764-.41s-.299.753-.764.41Z"/>
  <path fill="#71CC9B" d="m149.873 80.684-.073.061a14.685 14.685 0 0 1-4.149 2.35v-.624l-.802-1.622.41-.967.349-.808.355.771 3.91.839Z"/>
  <path fill="#fff" d="m149.873 80.684-.073.061a14.685 14.685 0 0 1-4.149 2.35v-.624l-.802-1.622.41-.967.349-.808.355.771 3.91.839Z" opacity=".6"/>
  <path fill="#71CC9B" d="m140.676 80.727-1.671 2.099-.086 1.077a14.552 14.552 0 0 1-8.445-3.91l1.389-.197h.117l2.943-.416.612-1.72 2.999 1.788 2.16 1.29-.018-.011Z"/>
  <path fill="#fff" d="m140.67 80.727-1.665 2.099-.086 1.077a14.552 14.552 0 0 1-8.445-3.91l1.506-.209 2.943-.41.612-1.72 2.999 1.788 2.136 1.285Z" opacity=".6"/>
  <path fill="#fff" d="M156.325 81.718a4.013 4.013 0 0 1-2.475 3.703 4.007 4.007 0 1 1 2.475-3.703Z"/>
  <path fill="#263238" d="M155.736 81.718a3.42 3.42 0 0 1-6.776.667 3.42 3.42 0 1 1 6.776-.667Z"/>
  <path fill="#fff" d="m152.181 83.499-1.824-1.61.404-.459 1.322 1.163 1.738-2.386.496.36-2.136 2.932Z"/>
  <path fill="#71CC9B" d="M237.498 204.127s-3.568-7.779.508-15.447c4.076-7.668 5.251-9.473 2.656-11.046-2.595-1.573-3.788 6.12-3.788 6.12s-2.191-5.306-.379-10.851c1.811-5.544 2.937-14.583.471-15.556-2.466-.973-.471 11.272-2.613 15.446a35.822 35.822 0 0 1-2.093-9.1c-.3-4.455.165-11.573-1.787-13.396-1.953-1.824-3.195-.563-1.279 9.271a102.638 102.638 0 0 1 1.897 17.827s-4.229-12.9-7.069-13.274c-2.839-.373-2.833 3.801-.404 7.424 2.43 3.623 7.118 10.116 7.889 13.463 0 0-4.645-9.706-8.825-6.732-4.18 2.975 3.635 8.838 7.118 10.961 3.482 2.124 5.905 15.398 5.905 15.398l1.793-.508Z"/>
  <path fill="#000" d="M237.498 204.127s-3.568-7.779.508-15.447c4.076-7.668 5.251-9.473 2.656-11.046-2.595-1.573-3.788 6.12-3.788 6.12s-2.191-5.306-.379-10.851c1.811-5.544 2.937-14.583.471-15.556-2.466-.973-.471 11.272-2.613 15.446a35.822 35.822 0 0 1-2.093-9.1c-.3-4.455.165-11.573-1.787-13.396-1.953-1.824-3.195-.563-1.279 9.271a102.638 102.638 0 0 1 1.897 17.827s-4.229-12.9-7.069-13.274c-2.839-.373-2.833 3.801-.404 7.424 2.43 3.623 7.118 10.116 7.889 13.463 0 0-4.645-9.706-8.825-6.732-4.18 2.975 3.635 8.838 7.118 10.961 3.482 2.124 5.905 15.398 5.905 15.398l1.793-.508Z" opacity=".2"/>
  <path fill="#71CC9B" d="M234.683 207.321s3.47-7.833-.698-15.44c-4.167-7.607-5.367-9.394-2.784-11.016 2.582-1.622 3.861 6.077 3.861 6.077s2.124-5.336.251-10.856c-1.872-5.52-3.115-14.541-.661-15.545 2.454-1.003.612 11.267 2.797 15.404a36.018 36.018 0 0 0 1.989-9.131c.239-4.461-.306-11.566 1.622-13.421 1.927-1.854 3.188-.612 1.389 9.254a103.196 103.196 0 0 0-1.683 17.888s4.076-12.962 6.909-13.378c2.834-.416 2.883 3.757.496 7.417-2.387 3.66-7.001 10.22-7.729 13.568 0 0 4.528-9.792 8.739-6.861 4.21 2.932-3.525 8.892-6.983 11.059-3.458 2.166-5.716 15.489-5.716 15.489l-1.799-.508Z"/>
  <path fill="#263238" d="M250.692 201.734h-28.678l2.32 20.526h24.038l2.32-20.526Zm-190.013 6.609 17.655-1.732v-21.725h6.99v21.713l17.704 1.744a3.427 3.427 0 0 1 3.096 3.415v2.65H57.582v-2.662a3.425 3.425 0 0 1 3.097-3.403Z"/>
  <path fill="#fff" d="m60.679 208.343 17.655-1.732v-21.725h6.99v21.713l17.704 1.744a3.427 3.427 0 0 1 3.096 3.415v2.65H57.582v-2.662a3.425 3.425 0 0 1 3.097-3.403Z" opacity=".1"/>
  <path fill="#263238" d="M104.981 222.196a4.572 4.572 0 1 0-1.465-9.025 4.572 4.572 0 0 0 1.465 9.025Zm-41.021-3.762a4.57 4.57 0 1 0-9.025-1.465 4.572 4.572 0 0 0 9.024 1.465Zm20.017-28.218h-4.339a2.527 2.527 0 0 1-2.528-2.527v-19.541h9.394v19.541a2.528 2.528 0 0 1-2.527 2.527Z"/>
  <path fill="#fff" d="M83.977 190.216h-4.339a2.527 2.527 0 0 1-2.528-2.527v-19.541h9.394v19.541a2.528 2.528 0 0 1-2.527 2.527Z" opacity=".2"/>
  <path fill="#263238" d="M57.404 129.826s5.232 32.686 15.562 38.316H62.465s-10.373-11.138-13.507-38.316h8.446Z"/>
  <path fill="#fff" d="M57.404 129.826s5.232 32.686 15.562 38.316H62.465s-10.373-11.138-13.507-38.316h8.446Z" opacity=".1"/>
  <path fill="#71CC9B" d="M61.952 163.522h40.953a3.06 3.06 0 0 1 3.06 3.06v4.094H58.892v-4.094a3.06 3.06 0 0 1 3.06-3.06Z"/>
  <path fill="#263238" d="M106.694 167.095H58.157a1.23 1.23 0 0 0-1.23 1.231v1.113c0 .68.551 1.23 1.23 1.23h48.537c.679 0 1.23-.55 1.23-1.23v-1.113a1.23 1.23 0 0 0-1.23-1.231Z"/>
  <path fill="#fff" d="M106.694 167.095H58.157a1.23 1.23 0 0 0-1.23 1.231v1.113c0 .68.551 1.23 1.23 1.23h48.537c.679 0 1.23-.55 1.23-1.23v-1.113a1.23 1.23 0 0 0-1.23-1.231Z" opacity=".6"/>
  <path fill="#71CC9B" d="M47.686 136.472h16.83c4.896 0 8.133-3.953 7.148-8.831l-1.285-6.511c-.98-4.896-5.772-8.825-10.698-8.825H42.84c-4.895 0-8.133 3.953-7.148 8.825l1.304 6.511c.949 4.878 5.765 8.831 10.691 8.831Zm15.844-32.227h10.722l.985 6.395-9.535 1.665-2.172-8.06Z"/>
  <path fill="#E4897B" d="m134.728 193.086-3.849 1.506-2.766-5.22-2.515-4.743 4.265-2.558 2.577 5.826 2.288 5.189Z"/>
  <path fill="#000" d="m132.44 187.897-4.327 1.475-2.515-4.743 4.265-2.558 2.577 5.826Z" opacity=".2"/>
  <path fill="#71CC9B" d="m131.644 185.051-5.239 2.828s-19.785-34.785-22.827-34.498c-3.041.288-31.902 18.666-40.703 11.854-8.8-6.811-.238-27.239-.238-27.239s17.197-6.536 19.173-2.54a47.528 47.528 0 0 1 2.314 4.994 67.28 67.28 0 0 1 .679 2.307c.557-.226 18.537-7.601 26.566-3.672 8.164 4.058 20.275 45.966 20.275 45.966Z"/>
  <path fill="#fff" d="m131.644 185.051-5.239 2.828s-19.785-34.785-22.827-34.498c-3.041.288-31.902 18.666-40.703 11.854-8.8-6.811-.238-27.239-.238-27.239s17.197-6.536 19.173-2.54a47.528 47.528 0 0 1 2.314 4.994 67.28 67.28 0 0 1 .679 2.307c.557-.226 18.537-7.601 26.566-3.672 8.164 4.058 20.275 45.966 20.275 45.966Z" opacity=".3"/>
  <path fill="#E4897B" d="m103.198 213.417-4.106-.472-.019-5.789-.006-5.318 4.964-.233-.441 6.255-.392 5.557Z"/>
  <path fill="#000" d="m103.578 207.988-4.516-.722v-5.367l4.963-.263-.447 6.352Z" opacity=".2"/>
  <path fill="#263238" d="m123.847 186.134 7.662-3.837.795 3.244-5.801 2.992-2.656-2.399Z"/>
  <path fill="#71CC9B" d="M76.498 165.309s1.26-.141 20.612-3.727c0 0 .44 24.754 1.358 43.199l5.961.196s8.568-40.954 7.546-47.122c-1.022-6.169-8.366-7.02-8.366-7.02s-12.797 9.914-27.111 14.474Z"/>
  <path fill="#fff" d="M76.498 165.309s1.26-.141 20.612-3.727c0 0 .44 24.754 1.358 43.199l5.961.196s8.568-40.954 7.546-47.122c-1.022-6.169-8.366-7.02-8.366-7.02s-12.797 9.914-27.111 14.474Z" opacity=".4"/>
  <path fill="#000" d="M76.498 165.309s1.26-.141 20.612-3.727c0 0 .44 24.754 1.358 43.199l5.961.196s8.568-40.954 7.546-47.122c-1.022-6.169-8.366-7.02-8.366-7.02s-12.797 9.914-27.111 14.474Z" opacity=".3"/>
  <path fill="#263238" d="m97.348 203.135 8.127-.189-1.108 3.347-6.597.061-.422-3.219Z"/>
  <path fill="#000" d="m84.802 142.775-10.55 3.758s5.55-4.143 9.871-6.065c.386 1.249.68 2.307.68 2.307Z" opacity=".3"/>
  <path fill="#263238" d="m61.958 136.545-.153 3.134 19.773-4.192-.46-3.458-19.16 4.516Z"/>
  <path fill="#000" d="m61.958 136.545-.153 3.134 19.773-4.192-.46-3.458-19.16 4.516Z" opacity=".2"/>
  <path fill="#71CC9B" d="m67.966 134.629-.986.183.93 5.012.986-.183-.93-5.012Z"/>
  <path fill="#fff" d="m76.594 133.356-4.316.972.737 3.272 4.317-.973-.738-3.271Z"/>
  <path fill="#71CC9B" d="m79.976 131.671-.987.183.929 5.012.987-.183-.93-5.012Z"/>
  <path fill="#fff" d="m67.966 134.629-.986.183.93 5.012.986-.183-.93-5.012Zm12.01-2.958-.987.183.929 5.012.987-.183-.93-5.012Z" opacity=".3"/>
  <path fill="#71CC9B" d="M142.378 199.91a5.463 5.463 0 0 0-1.989-.226s-2.479-1.035-5.508-5.979l-2.564.336a2.131 2.131 0 0 0-1.769 1.683c-.021.12-.021.242 0 .361.108.622.257 1.235.447 1.836a52.065 52.065 0 0 0 2.326 5.826l.422-.171-1.316-3.715c-.441-1.261 1.096-.196 1.909 1.028.814 1.224 1.965 2.405 4.707 1.371 3.188-1.242 4.449-1.903 3.335-2.35Z"/>
  <path fill="#E4897B" d="M134.256 192.395s4.119 6.248 6.12 7.288c0 0-2.264 1.836-5.287-1.113-3.905-3.776-4.553-2.485-4.553-2.485-.035-.74 0-1.482.104-2.215.324-1.432 3.616-1.475 3.616-1.475Z"/>
  <path fill="#71CC9B" d="M109.343 220.699a5.616 5.616 0 0 0-1.879-.691s-2.166-1.598-3.91-7.105l-2.571-.282a2.127 2.127 0 0 0-2.123 1.224 1.16 1.16 0 0 0-.11.349c-.04.623-.04 1.249 0 1.873a52.32 52.32 0 0 0 .88 6.205l.448-.067-.398-3.917c-.129-1.334 1.114.067 1.615 1.45.502 1.383 1.335 2.803 4.241 2.448 3.397-.446 4.78-.789 3.807-1.487Z"/>
  <path fill="#E4897B" d="M103.229 211.47s2.522 7.05 4.235 8.538c0 0-2.631 1.223-4.896-2.332-2.9-4.602-3.843-3.495-3.843-3.495.138-.727.343-1.44.612-2.129.685-1.322 3.892-.582 3.892-.582Z"/>
  <path fill="#263238" d="M72.992 82.618s-9.663-4.694-12.851 5.416c-3.189 10.11.9 17.086.9 17.086s11.18-2.864 20.593-.863c0 0-2.032-8.616-1.543-13.561.49-4.945-7.099-8.078-7.099-8.078Z"/>
  <path fill="#71CC9B" d="M80.532 105.5c2.123.091 11.015 12.044 11.015 12.044l3.305-4.284s5.092 9.895 2.57 14.608c-2.52 4.712-15.8-8.164-15.8-8.164l-1.09-14.204Z"/>
  <path fill="#fff" d="m80.525 105.5.869 9.553.22 4.657s2.185 2.117 4.945 4.321c4.058 3.237 9.357 6.652 10.857 3.849 2.521-4.706-2.577-14.608-2.577-14.608l-3.298 4.284v-.037c-.514-.734-8.96-11.928-11.016-12.019Z" opacity=".6"/>
  <path fill="#000" d="m81.394 115.052.22 4.658s2.185 2.117 4.945 4.32c.263-5.593-4.945-13.739-4.945-13.739l-.22 4.761Zm10.159 2.491-.478.912 1.383 5.386s-3.818-3.476-1.383-6.879l.478.581Z" opacity=".2"/>
  <path fill="#263238" d="M81.645 116.16v.453c0 .661 0 1.359-.043 2.099v1.628c0 .612-.043 1.224-.067 1.836v.257c0 .832-.068 1.707-.11 2.631a663.743 663.743 0 0 1-.362 6.928l-.275.067-18.696 4.431h-.073s.752-10-.539-15.66a1.253 1.253 0 0 0-.037-.147c0-.086-.036-.172-.06-.257a10.86 10.86 0 0 1-.123-.484c-.037-.165-.086-.33-.135-.502-.165-.612-.343-1.224-.532-1.897a65.16 65.16 0 0 0-.398-1.358l-.074-.233c-.165-.551-.342-1.12-.526-1.707-.055-.172-.104-.337-.159-.514-.27-.839-.557-1.726-.869-2.656a191.397 191.397 0 0 0-1.126-3.336 53.721 53.721 0 0 1 6.542-1.64l.949-.171 1.003-.165a58.57 58.57 0 0 1 7.105-.692h1.396l1.224.037h1.321l.613.036h.465l.838.056.33.03h.784l.532.049h.05l.042.043c.04.049.076.102.104.159.188.399.322.821.398 1.255 0 .122.049.257.08.404.03.146.073.459.116.728.043.269.055.391.08.612.024.22.042.398.06.612a67.24 67.24 0 0 1 .172 7.068Z"/>
  <path fill="#E4897B" d="M71.493 109.123c-4.456-.57-5.79-2.479-5.79-2.479 1.836-1.714 1.487-4.241 1.022-5.82a8.741 8.741 0 0 0-.55-1.456l5.36 1.003a15.359 15.359 0 0 0-.208 2.252 6.56 6.56 0 0 0 .153 1.659c.361 1.603 1.273 1.628 1.273 1.628.943 1.756-1.26 3.213-1.26 3.213Z"/>
  <path fill="#000" d="M71.327 102.623a6.56 6.56 0 0 0 .153 1.659c-2.13-.276-3.739-1.983-4.755-3.458a8.75 8.75 0 0 0-.55-1.456l5.36 1.003a15.359 15.359 0 0 0-.208 2.252Z" opacity=".2"/>
  <path fill="#E4897B" d="M72.754 85.335c4.932 1.004 5.978 3.972 5.305 9.125-.844 6.444-3.17 10.666-9.063 8.053-7.993-3.55-4.43-18.849 3.758-17.178Z"/>
  <path fill="#DE5753" d="M74.925 93.535c.246.818.589 1.603 1.022 2.338a1.389 1.389 0 0 1-1.414.288l.392-2.626Z"/>
  <path fill="#263238" d="M70.379 89.631a.228.228 0 0 1-.172-.08.214.214 0 0 1 0-.312 2.797 2.797 0 0 1 2.503-.348.22.22 0 1 1-.147.416 2.448 2.448 0 0 0-2.074.275.244.244 0 0 1-.11.05Zm7.766 1.022a.22.22 0 0 1-.153-.067 2.18 2.18 0 0 0-1.695-.747.215.215 0 0 1-.251-.184.213.213 0 0 1 .102-.222.215.215 0 0 1 .082-.029 2.552 2.552 0 0 1 2.074.87.22.22 0 0 1 0 .312.233.233 0 0 1-.159.067Z"/>
  <path fill="#263238" d="M65.672 92.544s3.134-3.58 3.421-6.781c0 0 10.581-1.995 9.045 8.023 0 0 2.748-8.617-5.685-10.538-8.433-1.922-10.93 10.483-7.307 15.067 0 0-1.42-3.525.526-5.771Z"/>
  <path fill="#E4897B" d="M66.266 93.75a2.205 2.205 0 0 0-1.928-2.448c-1.56-.147-2.931 2.84.716 4.37.527.22.943-.252 1.212-1.922Z"/>
  <path fill="#263238" d="M74.393 97.642c-.42.451-.806.932-1.157 1.438l-.294-.147c-1.321-.649-1.72-1.383-1.762-2.001-.01-.306.05-.61.177-.888a1.89 1.89 0 0 1 .264-.44 6.928 6.928 0 0 0 2.325 1.836c.276.122.447.202.447.202Z"/>
  <path fill="#fff" d="m73.946 97.415-.349.416c-1.224-.612-2.038-1.224-2.24-1.787a1.89 1.89 0 0 1 .264-.44 6.928 6.928 0 0 0 2.325 1.811Z"/>
  <path fill="#DE5753" d="M72.943 98.933c-1.322-.648-1.72-1.383-1.763-2 .502.25.952.593 1.328 1.009.246.276.399.623.435.991Z"/>
  <path fill="#263238" d="M72.576 85.677s-3.672 7.711-8.727 6.567c-5.055-1.144 4.896-9.792 4.896-9.792s8.977-1.462 12.184 3.837c3.207 5.3-2.79 7.528-2.79 7.528s1.59-6.255-5.563-8.14Z"/>
  <path fill="#263238" d="M67.68 92.036a.16.16 0 0 1-.147-.116.147.147 0 0 1 .11-.184c4.284-1.083 4.847-6.597 4.853-6.652a.153.153 0 0 1 .165-.135.14.14 0 0 1 .133.106c.005.02.005.04.002.06 0 .055-.612 5.783-5.08 6.915l-.036.006Zm4.363.747c0 .391-.239.697-.496.691-.257-.006-.465-.336-.447-.728.019-.392.239-.704.502-.692.263.013.46.355.44.729Z"/>
  <path fill="#263238" d="m71.492 92.067.863-.3s-.453.704-.863.3Zm5.422.826c0 .392-.244.704-.501.692-.257-.013-.46-.337-.447-.729.012-.391.239-.697.502-.685.263.012.459.33.446.722Z"/>
  <path fill="#263238" d="m76.357 92.183.863-.3s-.453.698-.863.3Zm7.411 21.205a.45.45 0 0 0 .466.514h5.116a.609.609 0 0 0 .581-.514l1.138-10.098a.51.51 0 0 0-.459-.612h-5.116a.665.665 0 0 0-.581.612l-1.145 10.098Z"/>
  <path fill="#fff" d="m85.482 103.223-1.163 10.196a.39.39 0 0 0 .404.483h4.339c.294 0 .826-.159.857-.447l1.163-10.232c0-.288-.465-.52-.76-.52h-4.338a.528.528 0 0 0-.502.52Z" opacity=".5"/>
  <path fill="#E4897B" d="m94.491 114.233-2.668-4.529a15.025 15.025 0 0 0-.227-2.938c-.232-.563-2.845-1.836-3.36-1.64-.514.196-.697 4.859-.232 5.508.465.649 2.099 1.328 2.099 1.328l-.11.887 1.56 4.713 2.938-3.329Z"/>
  <path fill="#71CC9B" d="m95.561 113.718-.881-.887-4.204 4.712.6 1.867 4.485-5.692Zm-21.308-9.473-.533 1.958 1.083 1.591 2.4 22.375 6.566-.967c-.453-17.436-.612-17.528-3.146-23.8l-5.88-.41-.49-.747Z"/>
  <path fill="#fff" d="m74.253 104.245-.533 1.958 1.083 1.591 2.4 22.375 6.566-.967c-.453-17.436-.612-17.528-3.146-23.8l-5.88-.41-.49-.747Z" opacity=".6"/>
  <path fill="#71CC9B" d="m63.53 104.245 5.832 2.448-1.432 2.448 1.414 22.906-8.837 2.589s-6.414-16.829-3.128-26.817l5.79-1.671.36-1.903Z"/>
  <path fill="#fff" d="m69.118 128.4.226 3.629-3.941 1.151-4.896 1.432a73.282 73.282 0 0 1-3.77-15.386c-.471-3.984-.459-8.09.643-11.432l5.79-1.67.36-1.879 5.832 2.448-1.432 2.448.563 9.094.625 10.165Z" opacity=".6"/>
  <path fill="#000" d="M74.289 121.246s-2.197 3.2-5.171 7.154c-1.15 1.53-2.448 3.17-3.715 4.779l-4.896 1.432a73.258 73.258 0 0 1-3.77-15.385c2.4-2.405 5.337-5.318 5.337-5.318s1.346 4.162.753 7.778l5.666-3.47 1.763-1.077 4.033 4.107Z" opacity=".2"/>
  <path fill="#E4897B" d="m69.503 118.663 6.065-4.761a20.78 20.78 0 0 1 1.291-2.993c.367-.446 5.685-2.405 6.12-2.448.434-.042 0 4.358-.667 5.104-.667.747-4.945 2.228-4.945 2.228l-6.34 5.991-1.524-3.121Z"/>
  <path fill="#71CC9B" d="M57.38 107.794c-3.562 1.787-5.147 21.897 1.04 25.367 6.187 3.47 15.422-12.239 15.422-12.239l-3.592-3.813s-7.528 6.303-8.433 5.722c-.906-.581.122-6.732.122-6.732s1.059-1.836-1.169-4.792c-2.228-2.956-3.39-3.513-3.39-3.513Z"/>
  <path fill="#fff" d="M57.38 107.794c-3.562 1.787-5.147 21.897 1.04 25.367 6.187 3.47 15.422-12.239 15.422-12.239l-3.592-3.813s-7.528 6.303-8.433 5.722c-.906-.581.122-6.732.122-6.732s1.059-1.836-1.169-4.792c-2.228-2.956-3.39-3.513-3.39-3.513Z" opacity=".6"/>
  <path fill="#71CC9B" d="m73.91 122.341 1.077-.648-4.033-5.912-1.48.826 4.436 5.734Z"/>
</svg>
