<svg xmlns="http://www.w3.org/2000/svg" width="354" height="337" fill="none" viewBox="0 0 354 337">
  <path fill="#F5F5F5" d="M177 336.559c97.754 0 177-47.015 177-105.011 0-57.995-79.246-105.01-177-105.01S0 173.553 0 231.548c0 57.996 79.246 105.011 177 105.011Z"/>
  <path fill="#E0E0E0" d="M226.84 291.489c39.067 0 70.737-18.283 70.737-40.835s-31.67-40.835-70.737-40.835c-39.067 0-70.737 18.283-70.737 40.835s31.67 40.835 70.737 40.835Z"/>
  <path fill="#E0E0E0" d="m121.176 271.896-17.875-10.318-14.576 8.413 2.429-7.011-14.569 2.805 16.998-9.838-54.3-31.327a.945.945 0 0 1 0-1.792L167.5 149.077a3.444 3.444 0 0 1 3.111 0l81.722 47.11a.951.951 0 0 1 .645.896.945.945 0 0 1-.645.896l-128.052 73.917a3.447 3.447 0 0 1-3.105 0Z"/>
  <path fill="#F0F0F0" d="M139.029 61.875v-4.852a1.644 1.644 0 0 0-.967-1.274L108.917 38.9a4.972 4.972 0 0 0-4.499 0L20.642 87.279a1.649 1.649 0 0 0-.968 1.29v4.851a1.666 1.666 0 0 0 .968 1.32l29.145 16.825a4.954 4.954 0 0 0 4.499 0l83.776-48.4a1.64 1.64 0 0 0 .96-1.29h.007Z"/>
  <path fill="#FAFAFA" d="m20.642 89.865 29.145 16.826a4.954 4.954 0 0 0 4.499 0l83.776-48.378c1.237-.75 1.237-1.874 0-2.587l-29.145-16.825a4.971 4.971 0 0 0-4.499 0L20.642 87.278c-1.23.713-1.23 1.867 0 2.587Z"/>
  <path fill="#E0E0E0" d="M52.029 107.231v4.851a4.615 4.615 0 0 1-2.25-.54L20.642 94.739a1.634 1.634 0 0 1-.96-1.29v-4.858a1.22 1.22 0 0 1 .21-.6c-.345.63-.09 1.35.75 1.844l29.152 16.826a4.501 4.501 0 0 0 2.235.57ZM98.105.57l24.609 14.307V61.98l-24.609-14.3V.57Z"/>
  <path fill="#fff" d="M121.918 15.656 98.104 1.905a10.017 10.017 0 0 1-5.45 3l23.618 13.698s1.522-.345 5.646-2.947Z"/>
  <path fill="#FAFAFA" d="M113.987 18.513a5.067 5.067 0 0 0 4.574 0l4.011-2.317c1.267-.75 1.267-1.912 0-2.64L99.095 0l-.99.57 23.087 13.414a.84.84 0 0 1 0 1.59l-3.749 2.121a3.043 3.043 0 0 1-2.752 0L91.635 4.304l-1.125.652 23.477 13.557Z"/>
  <path fill="#E0E0E0" d="M90.51 4.956v47.103l23.477 13.557a5.067 5.067 0 0 0 4.574 0l4.011-2.317a1.609 1.609 0 0 0 .945-1.32v-47.11a1.61 1.61 0 0 1-.945 1.327l-4.011 2.317a5.073 5.073 0 0 1-4.574 0L90.51 4.956Z"/>
  <path fill="#EBEBEB" d="M116.274 19.06a4.652 4.652 0 0 0 2.287-.547l4.011-2.317a1.6 1.6 0 0 0 .945-1.327v47.11a1.605 1.605 0 0 1-.945 1.32l-4.011 2.317a4.735 4.735 0 0 1-2.287.547V19.062ZM88.034 6.38l24.617 14.307V67.79L88.034 53.491V6.381Z"/>
  <path fill="#fff" d="M111.856 21.467 88.035 7.715a10.017 10.017 0 0 1-5.444 3l23.619 13.691s1.522-.36 5.646-2.939Z"/>
  <path fill="#FAFAFA" d="M103.916 24.324a5.083 5.083 0 0 0 4.581 0l4.012-2.317c1.259-.75 1.259-1.912 0-2.639L89.032 5.811l-.997.57 23.086 13.414a.84.84 0 0 1 0 1.59l-3.749 2.122a2.998 2.998 0 0 1-2.751 0l-23.05-13.384-1.124.645 23.469 13.556Z"/>
  <path fill="#EBEBEB" d="M80.447 10.76v47.11l23.469 13.55a5.083 5.083 0 0 0 4.581 0l4.012-2.317a1.594 1.594 0 0 0 .944-1.32V20.687a1.605 1.605 0 0 1-.944 1.32l-4.012 2.317a5.036 5.036 0 0 1-4.581 0L80.446 10.76Z"/>
  <path fill="#F0F0F0" d="M106.21 24.871a4.653 4.653 0 0 0 2.25-.547l4.049-2.317a1.606 1.606 0 0 0 .944-1.32V67.79a1.596 1.596 0 0 1-.944 1.32l-4.012 2.317a4.649 4.649 0 0 1-2.249.547l-.038-47.103Z"/>
  <path fill="#E0E0E0" d="M79.855 36.809V39.2l3.637 1.852V38.48l-3.637-1.671Z"/>
  <path fill="#fff" d="m82.99 39.335-4.777-2.377-5.339 3.082 6.179 3.427 3.936-4.132Z"/>
  <path fill="#EBEBEB" d="M75.716 44.284V64.25a2.512 2.512 0 0 0 1.162 1.995l19.068 11.007c.288.152.605.241.93.262L79.053 44.63a2.25 2.25 0 0 1-.923-.263l-1.282-.75c-.63-.352-1.132-.06-1.132.668Z"/>
  <path fill="#F0F0F0" d="m80.41 44.366 2.916-3.217 2.587-1.5c.233-.374.517-.66.368-.967l17.635 32.534v.038c.157.315.195 1.02-.232 1.26L98.18 77.23a2.458 2.458 0 0 1-1.35.262L79.052 44.628c.468.044.94-.047 1.357-.262Z"/>
  <path fill="#FAFAFA" d="M85.912 38.337c.63.368.473.75 0 1.313l-5.503 4.716a2.497 2.497 0 0 1-2.25 0l-4.836-2.797c-.63-.36-.75-.885-.247-1.17a2.25 2.25 0 0 1 2.024.143l3.817 2.25a.854.854 0 0 0 .75 0l3.449-3.54a.232.232 0 0 0 0-.435l-3.87-1.987c-.63-.367-.75-.892-.247-1.17a2.25 2.25 0 0 1 2.025.143l4.888 2.535Z"/>
  <path fill="#E0E0E0" d="m51.459 17.898 27.653 16.068V86.88L51.459 70.82V17.897Z"/>
  <path fill="#fff" d="M78.22 34.844 51.46 19.398a11.195 11.195 0 0 1-6.119 3.359l26.536 15.379s1.71-.383 6.343-3.292Z"/>
  <path fill="#FAFAFA" d="M69.304 38.053a5.699 5.699 0 0 0 5.144 0l4.499-2.602c1.424-.817 1.424-2.144 0-2.999L52.576 17.261l-1.117.637L77.395 32.97a.937.937 0 0 1 0 1.777l-4.184 2.392a3.397 3.397 0 0 1-3.09 0l-25.928-15.04-1.26.749 26.371 15.206Z"/>
  <path fill="#E0E0E0" d="M42.934 22.824v52.914l26.37 15.251a5.699 5.699 0 0 0 5.144 0l4.499-2.602a1.807 1.807 0 0 0 1.057-1.5V34.005a1.807 1.807 0 0 1-1.057 1.5l-4.499 2.609a5.698 5.698 0 0 1-5.144 0l-26.37-15.289Z"/>
  <path fill="#EBEBEB" d="M71.876 38.668a5.315 5.315 0 0 0 2.572-.608l4.499-2.609a1.808 1.808 0 0 0 1.057-1.5v52.915a1.807 1.807 0 0 1-1.057 1.5l-4.5 2.601a5.324 5.324 0 0 1-2.571.615V38.668ZM40.16 24.429l27.645 16.068v52.914L40.16 77.351V24.428Z"/>
  <path fill="#fff" d="M66.912 41.374 40.136 25.928a11.202 11.202 0 0 1-6.11 3.367l26.543 15.379s1.71-.398 6.343-3.3Z"/>
  <path fill="#FAFAFA" d="M57.998 44.584a5.698 5.698 0 0 0 5.143 0l4.5-2.602c1.424-.818 1.424-2.145 0-3l-26.364-15.19-1.125.637 25.936 15.07a.938.938 0 0 1 0 1.778l-4.206 2.392a3.418 3.418 0 0 1-3.09 0L32.894 28.628l-1.267.75 26.37 15.206Z"/>
  <path fill="#EBEBEB" d="M31.627 29.355V82.27l26.37 15.23a5.698 5.698 0 0 0 5.144 0l4.5-2.603a1.807 1.807 0 0 0 1.056-1.5V40.499a1.806 1.806 0 0 1-1.057 1.5L63.141 44.6a5.654 5.654 0 0 1-5.143 0L31.627 29.356Z"/>
  <path fill="#F0F0F0" d="M60.57 45.198a5.248 5.248 0 0 0 2.571-.614l4.5-2.602a1.807 1.807 0 0 0 1.056-1.5v52.914a1.807 1.807 0 0 1-1.057 1.5l-4.499 2.602a5.325 5.325 0 0 1-2.572.614V45.198Z"/>
  <path fill="#71CC9B" d="m53.469 227.312 1.897-1.094-1.373-.615s-1.11.285-1.11.352c.008.252.033.502.076.75l.51.607Z"/>
  <path fill="#000" d="m53.469 227.312 1.897-1.094-1.373-.615s-1.11.285-1.11.352c.008.252.033.502.076.75l.51.607Z" opacity=".5"/>
  <path fill="#71CC9B" d="M125.743 263.723a6.133 6.133 0 0 1-5.549 0l-62.301-35.991 93.254-53.844 2.182-1.259 62.294 35.99c1.499.885 1.499 2.325 0 3.202l-89.88 51.902Z"/>
  <path fill="#71CC9B" d="m102.371 195.776-21.745 12.506-14.066-8.12-16.36 9.455v11.787c0 1.432 1.604 3.464 2.189 3.134 1.077.261 2.125.633 3.126 1.11 1.627.93 3.137 2.05 4.5 3.337l49.914-28.816-7.558-4.393Z"/>
  <path fill="#000" d="m102.371 195.776-21.745 12.506-14.066-8.12-16.36 9.455v11.787c0 1.432 1.604 3.464 2.189 3.134 1.077.261 2.125.633 3.126 1.11 1.627.93 3.137 2.05 4.5 3.337l49.914-28.816-7.558-4.393Z" opacity=".15"/>
  <path fill="#000" d="M50.2 221.404c0 1.342 1.401 3.209 2.061 3.164h.128c.045 0 1.98-1.23 2.19-1.26l1.881-6.216s-.112-7.265 0-7.265a30.42 30.42 0 0 0-1.252-3.075l-5.009 2.895v11.757Z" opacity=".4"/>
  <path fill="#71CC9B" d="m120.186 263.723-3.749-2.182-56.409-32.587a3.658 3.658 0 0 0-.75-2.024 8.301 8.301 0 0 0-2.466-2.167 5.648 5.648 0 0 0-2.662-.833 2.868 2.868 0 0 0-1.755.578 9.75 9.75 0 0 1-1.012-4.634H49.21c0 2.947.974 5.901 2.167 6.583l1.08.63c.607.352 1.094.375 1.094.045v-.577c0-.638.967-.608 2.175.09 1.207.697 2.166 1.769 2.166 2.414v.57c0 .337.833 1.072 1.852 1.657l54.542 31.492 5.901 3.404a5.783 5.783 0 0 0 2.766.652v-2.466a5.628 5.628 0 0 1-2.766-.645Z"/>
  <path fill="#000" d="m120.186 263.723-3.749-2.182-56.409-32.587a3.658 3.658 0 0 0-.75-2.024 8.301 8.301 0 0 0-2.466-2.167 5.648 5.648 0 0 0-2.662-.833 2.868 2.868 0 0 0-1.755.578 9.75 9.75 0 0 1-1.012-4.634H49.21c0 2.947.974 5.901 2.167 6.583l1.08.63c.607.352 1.094.375 1.094.045v-.577c0-.638.967-.608 2.175.09 1.207.697 2.166 1.769 2.166 2.414v.57c0 .337.833 1.072 1.852 1.657l54.542 31.492 5.901 3.404a5.783 5.783 0 0 0 2.766.652v-2.466a5.628 5.628 0 0 1-2.766-.645Z" opacity=".3"/>
  <path fill="#71CC9B" d="M216.761 210.209v2.504a1.895 1.895 0 0 1-1.094 1.582h-.045l-84.009 48.491-5.894 3.404a5.809 5.809 0 0 1-2.766.652v-2.467a5.597 5.597 0 0 0 2.774-.66l3.749-2.167 86.116-49.727a1.883 1.883 0 0 0 1.169-1.612Z"/>
  <path fill="#000" d="M216.761 210.209v2.504a1.895 1.895 0 0 1-1.094 1.582h-.045l-84.009 48.491-5.894 3.404a5.809 5.809 0 0 1-2.766.652v-2.467a5.597 5.597 0 0 0 2.774-.66l3.749-2.167 86.116-49.727a1.883 1.883 0 0 0 1.169-1.612Z" opacity=".2"/>
  <path fill="#EBEBEB" d="M122.968 247.759v14.397a3.69 3.69 0 0 1-1.852-.443l-6.831-3.936-52.052-30.06v-15.034l60.735 35.076Z"/>
  <path fill="#000" d="m91.198 237.78 14.577 8.42s-1.5-1.574-7.288-4.874c-5.609-3.201-7.288-3.546-7.288-3.546Z" opacity=".15"/>
  <path fill="#F5F5F5" d="M214.092 196.96v11.089a4.103 4.103 0 0 1-1.845 3.202l-80.634 46.526-6.823 3.936a3.697 3.697 0 0 1-1.845.443v-12.875l91.147-52.321Z"/>
  <path fill="#37474F" d="M59.181 210.959v12.746a1.44 1.44 0 0 0-.202-.119 5.504 5.504 0 0 0-2.654-.84 2.824 2.824 0 0 0-1.747.577v-14.996l4.603 2.632Z"/>
  <path fill="#E0E0E0" d="M62.226 227.725a3.615 3.615 0 0 0-.75-2.025 7.115 7.115 0 0 0-.75-.877l-.262-.247-.337-.293-.285-.21a5.842 5.842 0 0 0-.615-.412v-12.702l2.999 1.762v15.004Z"/>
  <path fill="#71CC9B" d="m151.146 156.336-93.253 53.873v1.245c0 .697-.968.952-2.167.263-1.2-.69-2.175-1.56-2.175-2.76l-.12-1.184 95.016-54.849.382-.225c.102.176.158.374.165.577v.578c0 .667.96 1.777 2.152 2.482Z"/>
  <path fill="#000" d="m151.146 156.336-93.253 53.873v1.245c0 .697-.968.952-2.167.263-1.2-.69-2.175-1.56-2.175-2.76l-.12-1.184 95.016-54.849.382-.225c.102.176.158.374.165.577v.578c0 .667.96 1.777 2.152 2.482Z" opacity=".1"/>
  <path fill="#71CC9B" d="m120.194 246.155-60.922-35.196c-.75-.405-1.5-.75-1.777-.577l.397-.218 93.254-53.851 1.095-.622c.6-.353 1.912-.158 2.939.435l60.412 34.918c1.5.892 1.5 2.332 0 3.209l-89.849 51.902a6.138 6.138 0 0 1-5.549 0Zm28.665-93.479-.383.225L53.43 207.75a.746.746 0 0 0-.202-.255l-.322-.18-.683-.398-.84-.457a.854.854 0 0 0-1.072.097.336.336 0 0 0-.112.098 1.794 1.794 0 0 0-.285.397 2.682 2.682 0 0 0-.248.533 6.591 6.591 0 0 0-.195.622c-.06.217-.09.465-.135.75a2.852 2.852 0 0 0-.052.442v.353c0 .262-.038.539-.038.832v-2.67c0-1.499 1.253-3.389 2.782-4.273l89.887-51.902c1.538-.885 3.749-1.035 4.949-.353l1.132.66c.075.053.27.158.48.278.16.077.293.199.383.352Z"/>
  <path fill="#71CC9B" d="m120.208 246.2-3.749-2.182-43.331-25.043-13.857-8.016c-.982-.577-1.784-.75-1.837-.487a.065.065 0 0 0 0 .037v.63c0 .69-.974.69-2.174 0s-1.687-1.5-1.702-2.182v-.682a.996.996 0 0 0-.323-.81l-.322-.18-.682-.397-.848-.428a.854.854 0 0 0-1.072.098.333.333 0 0 0-.112.097 1.058 1.058 0 0 0-.188.255.61.61 0 0 0-.097.143 2.648 2.648 0 0 0-.248.532 6.78 6.78 0 0 0-.195.622c-.06.218-.09.465-.135.75a2.864 2.864 0 0 0-.052.443v.352c0 .262-.038.54-.038.832v9.358h2.137v-10.085l.053-.54a.081.081 0 0 1 0-.052c.187 1.702 1.814 3.216 3.224 4.019.783.49 1.68.769 2.602.809a2.858 2.858 0 0 0 1.912-.705l.195.105.375.225 54.541 31.492 5.901 3.405h.037a5.79 5.79 0 0 0 2.73.629v-2.467a5.704 5.704 0 0 1-2.745-.577Z"/>
  <path fill="#000" d="m120.208 246.2-3.749-2.182-43.331-25.043-13.857-8.016c-.982-.577-1.784-.75-1.837-.487a.065.065 0 0 0 0 .037v.63c0 .69-.974.69-2.174 0s-1.687-1.5-1.702-2.182v-.682a.996.996 0 0 0-.323-.81l-.322-.18-.682-.397-.848-.428a.854.854 0 0 0-1.072.098.333.333 0 0 0-.112.097 1.058 1.058 0 0 0-.188.255.61.61 0 0 0-.097.143 2.648 2.648 0 0 0-.248.532 6.78 6.78 0 0 0-.195.622c-.06.218-.09.465-.135.75a2.864 2.864 0 0 0-.052.443v.352c0 .262-.038.54-.038.832v9.358h2.137v-10.085l.053-.54a.081.081 0 0 1 0-.052c.187 1.702 1.814 3.216 3.224 4.019.783.49 1.68.769 2.602.809a2.858 2.858 0 0 0 1.912-.705l.195.105.375.225 54.541 31.492 5.901 3.405h.037a5.79 5.79 0 0 0 2.73.629v-2.467a5.704 5.704 0 0 1-2.745-.577Z" opacity=".3"/>
  <path fill="#000" d="M155.179 156.148c-1.027-.593-2.339-.787-2.939-.435l-1.087.622c-1.2-.705-2.16-1.814-2.16-2.504v-.607a1.238 1.238 0 0 0-.165-.578.897.897 0 0 0-.337-.382c-.21-.12-.405-.225-.48-.278l-1.132-.659c-1.2-.683-3.412-.533-4.949.352l-89.94 51.894-.097.068 63.509 36.665a4.08 4.08 0 0 0 3.697 0l90.494-52.749-54.414-31.409Z" opacity=".1"/>
  <path fill="#71CC9B" d="M216.761 192.618v2.512a1.917 1.917 0 0 1-1.094 1.582h-.045l-84.009 48.506-5.894 3.404a5.816 5.816 0 0 1-2.766.644V246.8a5.607 5.607 0 0 0 2.774-.66l3.749-2.167 86.116-49.72a1.886 1.886 0 0 0 1.169-1.635Z"/>
  <path fill="#000" d="M216.761 192.618v2.512a1.917 1.917 0 0 1-1.094 1.582h-.045l-84.009 48.506-5.894 3.404a5.816 5.816 0 0 1-2.766.644V246.8a5.607 5.607 0 0 0 2.774-.66l3.749-2.167 86.116-49.72a1.886 1.886 0 0 0 1.169-1.635Z" opacity=".2"/>
  <path fill="#000" d="m110.318 235.013 2.407-1.387a3.906 3.906 0 0 0-2.017-.143c-.637.3-.39 1.53-.39 1.53Z"/>
  <path fill="#000" d="M108.67 233.498a2.91 2.91 0 0 1 2.14-.943 2.91 2.91 0 0 1 2.141.943c2.34 2.145 2.459 4.274 3.427 4.237.967-.038.989-17.141.989-17.141l-9.215 8.57.518 4.334Z"/>
  <path fill="#455A64" d="m205.237 171.279.15-.082-1.5-.855-63.591-36.741-92.661 59.993c-1.5.884-1.807 2.159-.608 2.849l2.167 1.245 59.445 34.333.42-.3 96.178-60.442Z"/>
  <path fill="#71CC9B" d="m116.617 212.496-4.604-.952v18.438c2.775 1.177 4.544 2.286 4.837 4.611l-.233-22.097Z"/>
  <path fill="#EBEBEB" d="m109.943 230.221-58.882-33.996a4.098 4.098 0 0 1-1.852-3.209v-18.168l59.459 34.611s.705 2.572 2.812 3.382c2.107.81.503 1.627.503 1.627v15.498c-1.822-.202-2.04.255-2.04.255Z"/>
  <path fill="#37474F" d="M115.38 211.866c-.615-.352-1.095-.375-1.095-.045v.578c0 .637-.967.607-2.174-.09-1.207-.698-2.182-1.77-2.182-2.407v-.577c0-.338-.817-1.073-1.837-1.658l95.81-54.893 1.5.855c.201.22.327.498.36.795v.577c0 .645.975 1.717 2.174 2.414 1.2.698 2.175.75 2.175.083v-.57c0-.338.48-.315 1.087.037l-95.818 54.901Z"/>
  <path fill="#455A64" d="m205.237 153.718.15-.09-1.5-.855-63.591-36.74-92.661 53.536c-1.5.885-1.807 2.16-.608 2.849l2.167 1.253 59.475 35.788 96.568-55.741Zm4.882 2.647-95.751 55.269 3.352 2.624 95.421-55.096a3.672 3.672 0 0 0-1.275-1.777l-1.747-1.02Z"/>
  <path fill="#455A64" d="M212.78 183.913a.891.891 0 0 0 .173-.12.337.337 0 0 0 .112-.097c.075-.075.138-.161.188-.255a.576.576 0 0 0 .097-.142 2.69 2.69 0 0 0 .248-.533 6.78 6.78 0 0 0 .195-.622c.06-.218.089-.465.134-.75.029-.146.047-.294.053-.442v-.353c0-.262.037-.54.037-.832v-15.783a12.993 12.993 0 0 0-.892-4.822l-95.391 55.096-.404 24.744 95.42-55.036.03-.053Z"/>
  <path fill="#000" d="M117.735 214.258s75.153-35.173 81.991-38.398c4.499-2.129 6.749 2.34 5.662 6.966-.938 4.042-4.919 8.203-4.919 8.203l12.282-7.063a.855.855 0 0 0 .172-.12.343.343 0 0 0 .113-.098c.074-.075.138-.161.187-.254a.601.601 0 0 0 .097-.143c.102-.168.185-.346.248-.532.075-.195.135-.405.195-.623.06-.217.09-.464.135-.749.029-.146.046-.294.052-.443v-.352c0-.263.038-.54.038-.833v-15.835a13.013 13.013 0 0 0-.892-4.822l-95.361 55.096Z" opacity=".1"/>
  <path fill="#37474F" d="M118.619 219.079h-2.137a9.746 9.746 0 0 0-1.034-4.664 2.87 2.87 0 0 1-1.755.578 5.58 5.58 0 0 1-2.654-.833 8.122 8.122 0 0 1-2.467-2.167 1.985 1.985 0 0 1-.128-.195 3.495 3.495 0 0 1-.645-1.829l-56.415-32.557-1.912-1.117-2.445-1.41a1.284 1.284 0 0 1-.75-1.094v-2.505a1.318 1.318 0 0 0 .75 1.132l6.479 3.75 54.541 31.492c1.012.584 1.844 1.319 1.844 1.649v.577c.05.387.227.745.503 1.02a5.99 5.99 0 0 0 1.724 1.402c1.208.698 2.182.75 2.182.09v-.577c0-.33.48-.315 1.088.037l1.079.63c1.177.72 2.152 3.644 2.152 6.591Z"/>
  <path fill="#37474F" d="M116.483 219.079v16.481l-.053.532a.119.119 0 0 1 0 .053c-.195-1.695-1.814-3.21-3.224-4.012a5.375 5.375 0 0 0-2.609-.817 2.88 2.88 0 0 0-1.912.705l-.195-.105-.368-.225-54.54-31.492-3.135-1.807c-.285-.165-.6-.338-.892-.518l-2.64-1.499a1.254 1.254 0 0 1-.592-1.027v2.496a1.223 1.223 0 0 0 .547.968c.308.187.638.367.975.57l.608.352 1.042.607c.24.143.45.27.652.375l.457.27.803.465 43.331 25.006 13.827 7.986c.982.577 1.784.749 1.837.479v-.659c0-.698.967-.698 2.167 0 1.199.697 1.687 1.499 1.709 2.174v.682a1.008 1.008 0 0 0 .315.818l.323.18c.195.105.427.247.682.397l.847.487a.866.866 0 0 0 1.08-.097.411.411 0 0 0 .105-.09c.075-.08.14-.168.195-.262a.818.818 0 0 0 .09-.128c.102-.168.185-.346.247-.532.078-.204.143-.411.195-.623.053-.232.098-.472.135-.749.033-.143.051-.289.053-.435v-17.006h-2.062Z"/>
  <path fill="#000" d="m213.156 159.154-90.69 52.367-68.555-39.553c-1.027-.584-1.027-1.544 0-2.137l89.745-51.849 60.24 34.791 1.499.863c.193.207.319.469.36.749v.578c0 .645.975 1.724 2.167 2.414.062.039.127.071.195.098l1.995-1.155.952.547.127.06.705.405a3.753 3.753 0 0 1 1.26 1.822Z" opacity=".1"/>
  <path fill="#71CC9B" d="m59.017 172.336 2.73-1.454-2.49-.6a1.89 1.89 0 0 0-.24 2.054Z"/>
  <path fill="#000" d="m59.017 172.336 2.73-1.454-2.49-.6a1.89 1.89 0 0 0-.24 2.054Z" opacity=".5"/>
  <path fill="#71CC9B" d="M131.298 208.71a6.133 6.133 0 0 1-5.549 0l-62.294-35.991 93.254-52.974 2.182-1.26 62.294 35.099c1.5.884 1.5 2.324 0 3.201l-89.887 51.925Z"/>
  <path fill="#71CC9B" d="m107.913 141.669-21.745 12.507-14.059-8.12-16.346 9.417v10.947c0 1.433 1.605 3.465 2.182 3.135 1.078.26 2.126.632 3.127 1.109a23.487 23.487 0 0 1 4.499 3.337l49.915-27.945-7.573-4.387Z"/>
  <path fill="#000" d="m107.913 141.669-21.745 12.507-14.059-8.12-16.346 9.417v10.947c0 1.433 1.605 3.465 2.182 3.135 1.078.26 2.126.632 3.127 1.109a23.487 23.487 0 0 1 4.499 3.337l49.915-27.945-7.573-4.387Z" opacity=".15"/>
  <path fill="#37474F" d="M64.738 156.815v11.855a1.792 1.792 0 0 0-.188-.12 5.63 5.63 0 0 0-2.669-.833 2.765 2.765 0 0 0-1.755.413v-13.969l4.612 2.654Z"/>
  <path fill="#E0E0E0" d="M67.797 172.718a3.744 3.744 0 0 0-.75-2.024 7 7 0 0 0-.75-.878l-.262-.247-.344-.292-.285-.21a7.267 7.267 0 0 0-.615-.413v-11.779l3.044 1.762v-.06l-.038 14.141Z"/>
  <path fill="#000" d="M55.763 166.42c0 1.432 1.605 3.464 2.182 3.134l2.182-1.424v-8.998l-2.19-3.749-1.191-.42-.99.57.007 10.887Z" opacity=".4"/>
  <path fill="#EBEBEB" d="M128.524 193.645v13.497a3.69 3.69 0 0 1-1.844-.435l-6.838-3.944-52.052-30.045v-14.141l60.734 35.068Z"/>
  <path fill="#000" d="m71.727 167.635 14.568 8.413s-1.5-1.575-7.28-4.867c-5.616-3.201-7.288-3.546-7.288-3.546Z" opacity=".15"/>
  <path fill="#F5F5F5" d="M219.626 142.853v10.213a4.081 4.081 0 0 1-1.852 3.201l-80.575 46.489-6.823 3.944a3.698 3.698 0 0 1-1.852.435v-11.922l91.102-52.36Z"/>
  <path fill="#71CC9B" d="m156.709 102.236-93.254 53.837v1.252c0 .697-.975.952-2.167.255-1.192-.697-2.182-1.56-2.182-2.752l-.112-1.185 95.016-54.856.382-.225c.097.178.151.376.157.578v.577c0 .697.968 1.807 2.16 2.519Z"/>
  <path fill="#000" d="m156.709 102.236-93.254 53.837v1.252c0 .697-.975.952-2.167.255-1.192-.697-2.182-1.56-2.182-2.752l-.112-1.185 95.016-54.856.382-.225c.097.178.151.376.157.578v.577c0 .697.968 1.807 2.16 2.519Z" opacity=".1"/>
  <path fill="#71CC9B" d="m125.751 192.041-60.915-35.166c-.75-.405-1.5-.75-1.777-.577l.398-.225 93.253-53.837 1.087-.63c.608-.344 1.92-.15 2.94.435l60.449 34.904c1.5.885 1.5 2.324 0 3.202l-89.887 51.894a6.133 6.133 0 0 1-5.548 0Z"/>
  <path fill="#fff" d="m159.311 117.233 33.682 19.495c1.424.824 1.424 2.167 0 2.999l-4.537 2.617a5.74 5.74 0 0 1-5.181 0l-33.666-19.48c-1.432-.825-1.432-2.167 0-3l4.499-2.616a5.72 5.72 0 0 1 5.203-.015Z"/>
  <path fill="#fff" d="M123.449 185.795a.592.592 0 0 1-.3-.075L77.41 159.38a.609.609 0 0 1-.302-.522.602.602 0 0 1 .302-.521 2.792 2.792 0 0 0 1.392-2.418 2.8 2.8 0 0 0-1.392-2.418.582.582 0 0 1-.3-.517.595.595 0 0 1 .3-.518l76.391-44.103a.607.607 0 0 1 .6 0 9.583 9.583 0 0 0 9.567 0 .61.61 0 0 1 .6 0l45.686 26.378a.61.61 0 0 1 .3.517.594.594 0 0 1-.3.518 2.793 2.793 0 0 0-1.391 2.418 2.802 2.802 0 0 0 1.391 2.418.595.595 0 0 1 0 1.035l-76.353 44.066a.606.606 0 0 1-.6 0 9.577 9.577 0 0 0-9.552 0 .612.612 0 0 1-.3.082ZM78.76 158.802l44.696 25.726a10.782 10.782 0 0 1 10.138 0l75.25-43.466a4.014 4.014 0 0 1-1.213-2.868 4.001 4.001 0 0 1 1.213-2.868l-44.613-25.756a10.828 10.828 0 0 1-10.16 0L78.76 153.059a3.987 3.987 0 0 1 1.213 2.868 3.997 3.997 0 0 1-1.213 2.868v.007Z"/>
  <path fill="#71CC9B" d="m154.393 98.562-.382.225-95.016 54.856a.746.746 0 0 0-.21-.262l-.315-.18-.682-.397c-.263-.143-.548-.315-.848-.488a.87.87 0 0 0-1.08.098.319.319 0 0 0-.105.097 1.76 1.76 0 0 0-.284.39 2.54 2.54 0 0 0-.248.54 5.05 5.05 0 0 0-.195.615 8.438 8.438 0 0 0-.135.75c-.032.142-.05.288-.052.435v1.184-2.669c0-1.5 1.252-3.382 2.774-4.267L147.51 97.58c1.499-.885 3.749-1.034 4.941-.352l1.132.667h.045c.075.053.27.158.48.278a.912.912 0 0 1 .285.39ZM125.75 208.709l-3.749-2.182-56.371-32.534a3.653 3.653 0 0 0-.75-2.017 8.14 8.14 0 0 0-2.467-2.167 5.62 5.62 0 0 0-2.714-.84 2.854 2.854 0 0 0-1.755.578 9.75 9.75 0 0 1-1.034-4.664h-2.137c0 2.947.974 5.901 2.167 6.583l1.08.63c.607.352 1.087.375 1.087.045v-.577c0-.638.974-.608 2.182.09 1.207.697 2.166 1.814 2.166 2.414v.577c0 .338.833 1.073 1.845 1.657l54.541 31.492 5.909 3.412a5.809 5.809 0 0 0 2.766.652v-2.467a5.6 5.6 0 0 1-2.766-.682Z"/>
  <path fill="#000" d="m125.75 208.709-3.749-2.182-56.371-32.534a3.653 3.653 0 0 0-.75-2.017 8.14 8.14 0 0 0-2.467-2.167 5.62 5.62 0 0 0-2.714-.84 2.854 2.854 0 0 0-1.755.578 9.75 9.75 0 0 1-1.034-4.664h-2.137c0 2.947.974 5.901 2.167 6.583l1.08.63c.607.352 1.087.375 1.087.045v-.577c0-.638.974-.608 2.182.09 1.207.697 2.166 1.814 2.166 2.414v.577c0 .338.833 1.073 1.845 1.657l54.541 31.492 5.909 3.412a5.809 5.809 0 0 0 2.766.652v-2.467a5.6 5.6 0 0 1-2.766-.682Z" opacity=".3"/>
  <path fill="#71CC9B" d="m125.773 192.056-3.749-2.175-43.332-24.998-13.856-8.008c-.982-.577-1.785-.75-1.837-.48v.63c0 .697-.967.697-2.167 0-1.2-.697-1.687-1.5-1.71-2.175v-.682a.987.987 0 0 0-.322-.817l-.315-.18c-.195-.105-.427-.248-.682-.398-.255-.15-.548-.315-.848-.487a.87.87 0 0 0-1.08.098.318.318 0 0 0-.104.097 1.097 1.097 0 0 0-.195.255.611.611 0 0 0-.09.135c-.104.17-.187.351-.248.54a5.05 5.05 0 0 0-.195.615 8.517 8.517 0 0 0-.135.749c-.032.143-.05.289-.052.435v9.673h2.137v-9.14l.052-.533a.127.127 0 0 1 0-.052c.195 1.694 1.815 3.216 3.224 4.011.771.48 1.651.756 2.557.803a2.88 2.88 0 0 0 1.912-.705l.188.105.375.225 54.541 31.492 5.908 3.404h.045a5.833 5.833 0 0 0 2.722.63v-2.467a5.747 5.747 0 0 1-2.744-.6Z"/>
  <path fill="#000" d="m125.773 192.056-3.749-2.175-43.332-24.998-13.856-8.008c-.982-.577-1.785-.75-1.837-.48v.63c0 .697-.967.697-2.167 0-1.2-.697-1.687-1.5-1.71-2.175v-.682a.987.987 0 0 0-.322-.817l-.315-.18c-.195-.105-.427-.248-.682-.398-.255-.15-.548-.315-.848-.487a.87.87 0 0 0-1.08.098.318.318 0 0 0-.104.097 1.097 1.097 0 0 0-.195.255.611.611 0 0 0-.09.135c-.104.17-.187.351-.248.54a5.05 5.05 0 0 0-.195.615 8.517 8.517 0 0 0-.135.749c-.032.143-.05.289-.052.435v9.673h2.137v-9.14l.052-.533a.127.127 0 0 1 0-.052c.195 1.694 1.815 3.216 3.224 4.011.771.48 1.651.756 2.557.803a2.88 2.88 0 0 0 1.912-.705l.188.105.375.225 54.541 31.492 5.908 3.404h.045a5.833 5.833 0 0 0 2.722.63v-2.467a5.747 5.747 0 0 1-2.744-.6Z" opacity=".3"/>
  <path fill="#71CC9B" d="M222.341 138.512v2.504a1.912 1.912 0 0 1-1.103 1.583h-.037l-83.979 48.482-5.893 3.412a5.79 5.79 0 0 1-2.767.652v-2.467a5.627 5.627 0 0 0 2.782-.66l3.749-2.166 86.123-49.743a1.895 1.895 0 0 0 1.125-1.597Z"/>
  <path fill="#000" d="M222.341 138.512v2.504a1.912 1.912 0 0 1-1.103 1.583h-.037l-83.979 48.482-5.893 3.412a5.79 5.79 0 0 1-2.767.652v-2.467a5.627 5.627 0 0 0 2.782-.66l3.749-2.166 86.123-49.743a1.895 1.895 0 0 0 1.125-1.597Z" opacity=".2"/>
  <path fill="#71CC9B" d="M222.341 155.203v2.519a1.91 1.91 0 0 1-1.103 1.582h-.037l-83.979 48.483-5.893 3.412a5.813 5.813 0 0 1-2.767.652v-2.467a5.627 5.627 0 0 0 2.782-.66l3.749-2.167 86.123-49.735a1.905 1.905 0 0 0 1.125-1.619Z"/>
  <path fill="#000" d="M222.341 155.203v2.519a1.91 1.91 0 0 1-1.103 1.582h-.037l-83.979 48.483-5.893 3.412a5.813 5.813 0 0 1-2.767.652v-2.467a5.627 5.627 0 0 0 2.782-.66l3.749-2.167 86.123-49.735a1.905 1.905 0 0 0 1.125-1.619Z" opacity=".2"/>
  <path fill="#71CC9B" d="M74.155 169.037v33.652l4.86-5.609 4.858 11.217v-33.651l-9.718-5.609Z"/>
  <path fill="#000" d="M74.155 169.037v33.652l4.86-5.609 4.858 11.217v-33.651l-9.718-5.609Z" opacity=".5"/>
  <path fill="#71CC9B" d="M93.583 239.144v9.133a8.464 8.464 0 0 1-4.237 7.333L76.6 262.98l12.14-1.402-2.43 7.011 12.747-7.371a8.482 8.482 0 0 0 4.237-7.333v-9.132l-9.71-5.609Z"/>
  <path fill="#000" d="M93.583 239.144v9.133a8.464 8.464 0 0 1-4.237 7.333L76.6 262.98l12.14-1.402-2.43 7.011 12.747-7.371a8.482 8.482 0 0 0 4.237-7.333v-9.132l-9.71-5.609Z" opacity=".5"/>
  <path fill="#71CC9B" d="M276.793 83.986v-8.203l-6.928-.607a.516.516 0 0 0-.285.06l-6.913 3.951a.502.502 0 0 0-.224.35.522.522 0 0 0 .111.4l7.348 7.963 6.891-3.914Z"/>
  <path fill="#71CC9B" d="m269.902 87.93-7.348-7.963a.503.503 0 0 1 .42-.847l6.928.6v8.21Z"/>
  <path fill="#71CC9B" d="m276.793 75.783-6.891 3.959-6.928-.608a.496.496 0 0 0-.24.038c.555-.33 6.591-3.787 6.846-3.921a.523.523 0 0 1 .292-.06l6.921.592Z"/>
  <path fill="#fff" d="m276.793 75.783-6.891 3.959-6.928-.608a.496.496 0 0 0-.24.038c.555-.33 6.591-3.787 6.846-3.921a.523.523 0 0 1 .292-.06l6.921.592Z" opacity=".5"/>
  <path fill="#71CC9B" d="M269.91 70.467a5.521 5.521 0 0 1 2.497-4.326l2.032-1.17a5.483 5.483 0 0 1 4.994 0l21.639 12.522a5.508 5.508 0 0 1 2.497 4.326v25.029a5.53 5.53 0 0 1-2.497 4.311l-2.032 1.17a5.525 5.525 0 0 1-4.994 0l-6.395-3.689-8.316-4.807-6.958-4.011a5.521 5.521 0 0 1-2.497-4.326l.03-25.03Z"/>
  <path fill="#FAFAFA" d="M291.586 92.556a12.305 12.305 0 0 0-1.012-4.784 8.336 8.336 0 0 0-3.052-3.906c-2.084-1.23-3.832 1.267-4.101 4.214-.248-3.254-1.957-7.783-4.049-8.998a2.251 2.251 0 0 0-3.075.308 5.417 5.417 0 0 0-1.057 3.569c0 4.978 2.999 9.5 5.481 14.246l2.64 4.994 2.676-1.867c2.512-1.807 5.527-2.79 5.549-7.776Z"/>
  <path fill="#000" d="M303.598 106.833a5.533 5.533 0 0 1-2.527 4.326l-2.032 1.17a5.598 5.598 0 0 1-4.566.202c1.17.443 2.069-.217 2.069-1.642V85.86a5.041 5.041 0 0 0-.749-2.459l7.025-4.056c.459.74.717 1.588.75 2.459l.03 25.029Z" opacity=".2"/>
  <path fill="#fff" d="M269.992 69.754c.292-1.057 1.26-1.394 2.414-.75l21.67 12.515a4.93 4.93 0 0 1 1.762 1.867l7.018-4.057a5.072 5.072 0 0 0-1.784-1.837L279.44 64.97a5.528 5.528 0 0 0-4.994 0l-2.04 1.178a5.52 5.52 0 0 0-2.414 3.606Z" opacity=".5"/>
  <path fill="#FFA8A7" d="M215.922 124.206c10.55-.353 15.783 5.069 22.172 14.291 6.388 9.223 23.994 34.791 23.994 34.791l-13.7 7.911-29.992-41.142-2.474-15.851Z"/>
  <path fill="#37474F" d="M206.392 56.925c-22.907 1.14-32.174 19.338-28.995 35.991 2.759 14.442 13.616 22.255 28.41 22.255h1.852c16.099 0 26.813-16.496 28.793-25.389 4.634-20.65-9.755-33.861-30.06-32.857Z"/>
  <path fill="#455A64" d="M262.883 272.046c.562 13.849-22.127 16.563-42.057 7.056-15.034-7.169-21.745-12.342-35.429-22.555-16.953-12.679-22.037-31.882-9.942-54.691l57.668-2.999c10.04 11.637 46.203 27.098 58.2 54.601 5.826 14.539-14.187 22.194-28.493 18.588h.053Z"/>
  <path fill="#37474F" d="M262.883 272.046c-1.5-13.055-11.435-19.495-19.96-25.816-8.526-6.321-26.439-17.276-26.439-17.276s8.908 2.077 17.081-6.328a12.416 12.416 0 0 1-5.744 8.84s24.797 14.179 32.242 26.198a20.157 20.157 0 0 1 2.82 14.382Z"/>
  <path fill="#71CC9B" d="M201.953 124.206h-6.606c-6.396.449-12.747.944-12.747.944-10.242 3.697-10.197 11.772-10.707 16.009-.75 5.998.945 9.417 2.917 15.116l9.447 27.323s-3.659 8.158-8.795 18.258c23.709 13.226 52.539 8.81 59.662-.847.3-2.047-.749-23.717-1.904-34.177a16.278 16.278 0 0 0 2.932-22.442c-8.916-12.184-17.029-19.532-20.245-20.184h-13.954Z"/>
  <path fill="#000" d="M201.953 124.206h-6.606c-6.396.449-12.747.944-12.747.944-10.242 3.697-10.197 11.772-10.707 16.009-.75 5.998.945 9.417 2.917 15.116l9.447 27.323s-3.659 8.158-8.795 18.258c23.709 13.226 52.539 8.81 59.662-.847.3-2.047-.749-23.717-1.904-34.177a16.278 16.278 0 0 0 2.932-22.442c-8.916-12.184-17.029-19.532-20.245-20.184h-13.954Z" opacity=".3"/>
  <path fill="#000" d="M182.33 187.759c-.81 1.74-1.859 3.952-3.082 6.456-.209.443-.427.893-.652 1.343-.277.569-.562 1.154-.862 1.747-.75 1.454-1.5 2.999-2.25 4.551.878.487 1.762.937 2.647 1.38 15.866 7.888 33.532 8.285 45.296 4.761a68.765 68.765 0 0 1-23.994-1.042 14.329 14.329 0 0 1-9.002-6.487 14.323 14.323 0 0 1-1.667-10.969c.061-.255.141-.506.24-.75 1.499-3.666 4.806-3.186 4.806-3.186a13.818 13.818 0 0 1-5.961-8.818l-1.245-3.802a44.563 44.563 0 0 1-.42-26.663l.068-.247-10.078-5.744-1.762 1.222a21.93 21.93 0 0 0-.96 5.466v2.1c0 .405.045.802.083 1.2.037.397.06.637.105.952.045.315.09.675.15 1.012.06.337.157.817.247 1.222.06.255.105.518.173.75.172.667.367 1.335.592 1.987l9.448 27.323s-.698 1.635-1.92 4.236Z" opacity=".15"/>
  <path fill="#FFA8A7" d="M225.715 71.09c1.499.749 5.556 8.51 5.166 25.403-.33 14.321-4.972 17.853-7.303 18.872-2.332 1.02-6.824.398-11.195-.33v8.593s6.043 7.018 5.661 10.955c-.382 3.936-8.72 4.874-14.366 1.027a36.614 36.614 0 0 1-9.276-9.71v-20.77s-2.384 2.617-7.213-.584c-4.828-3.202-5.571-9.815-2.766-12.665 2.804-2.849 8.855-1.942 9.979 1.987 0 0 7.079 1.253 16.571-4.858 10.25-6.599 13.407-11.847 14.742-17.92Z"/>
  <path fill="#263238" d="m228.055 87.098-4.004-1.912a2.129 2.129 0 0 1 2.887-1.095 2.327 2.327 0 0 1 1.117 3.007Zm-17.861-2.288-3.749 2.363a2.126 2.126 0 0 1 .615-3 2.317 2.317 0 0 1 3.134.638Z"/>
  <path fill="#37474F" d="m194.237 89.924.248 8.758a4.248 4.248 0 0 0 4.047-2.674 4.265 4.265 0 0 0 .302-1.682 4.61 4.61 0 0 0-4.597-4.402Z"/>
  <path fill="#263238" d="M213.29 92.347a1.806 1.806 0 0 1-1.082 1.662 1.799 1.799 0 1 1-.808-3.447 1.828 1.828 0 0 1 1.89 1.785Z"/>
  <path fill="#F28F8F" d="m214.843 105.018 4.746 1.5a2.44 2.44 0 0 1-2.116 1.8c-.327.033-.658 0-.973-.098a2.606 2.606 0 0 1-1.657-3.202Z"/>
  <path fill="#263238" d="M227.214 91.597a1.799 1.799 0 1 1-1.889-1.785 1.83 1.83 0 0 1 1.889 1.785Z"/>
  <path fill="#F28F8F" d="m218.419 90.562.292 10.842 5.699-1.77-5.991-9.072Zm-6.036 24.474c-4.603-.6-14.073-3.322-15.551-7.071 0 0 .495 2.354 3.322 4.784 2.827 2.429 12.229 5.158 12.229 5.158v-2.871Z"/>
  <path fill="#71CC9B" d="M279.543 154.536s-.18-2.639 3.3-5.211c3.479-2.572 8.022-4.634 9.507-11.023l4.791 2.767-8.068 13.572-9.53-.105Z"/>
  <path fill="#fff" d="M279.543 154.536s-.18-2.639 3.3-5.211c3.479-2.572 8.022-4.634 9.507-11.023l4.791 2.767-8.068 13.572-9.53-.105Z" opacity=".75"/>
  <path fill="#71CC9B" d="M279.544 154.535s-5.249-2.624-16.713-.255c-11.465 2.37-20.852 5.436-42.897 4.949l5.721 3.307 57.233-3.314-3.344-4.687Z"/>
  <path fill="#fff" d="M279.544 154.535s-5.249-2.624-16.713-.255c-11.465 2.37-20.852 5.436-42.897 4.949l5.721 3.307 57.233-3.314-3.344-4.687Z" opacity=".75"/>
  <path fill="#71CC9B" d="m219.934 159.229-20.462 65.856 5.721 3.307 20.462-65.856-5.721-3.307Z"/>
  <path fill="#fff" d="m219.934 159.229-20.462 65.856 5.721 3.307 20.462-65.856-5.721-3.307Z" opacity=".8"/>
  <path fill="#000" d="m219.934 159.229-20.462 65.856 5.721 3.307 20.462-65.856-5.721-3.307Z" opacity=".1"/>
  <g opacity=".1">
    <path fill="#000" d="M292.344 141.842a11.352 11.352 0 0 1-2.354 3.704 34.162 34.162 0 0 1-3.285 2.999 22.805 22.805 0 0 0-3.224 2.932 7.981 7.981 0 0 0-1.154 1.747 4.218 4.218 0 0 0-.413 1.942l-.697.105a4.765 4.765 0 0 1 .555-2.31 8.601 8.601 0 0 1 1.289-1.874 23.12 23.12 0 0 1 3.404-2.857 35.565 35.565 0 0 0 3.375-2.812 11.347 11.347 0 0 0 2.504-3.576Zm-.916 3.711a11.15 11.15 0 0 1-1.762 2.249c-.66.698-1.335 1.365-1.979 2.07a14.812 14.812 0 0 0-1.725 2.249 5.91 5.91 0 0 0-.9 2.542l-.705-.09a6.704 6.704 0 0 1 1.163-2.744 15.198 15.198 0 0 1 1.919-2.175c.69-.667 1.41-1.297 2.1-1.949a11.098 11.098 0 0 0 1.889-2.152Zm-49.449 14.164a84.772 84.772 0 0 0 9.327-1.372c3.09-.622 6.141-1.387 9.208-2.099a43.065 43.065 0 0 1 9.388-1.222c1.589-.05 3.18.012 4.761.187.798.087 1.588.238 2.362.45a5.856 5.856 0 0 1 2.249 1.11l-.487.509a5.286 5.286 0 0 0-1.942-.989 15.825 15.825 0 0 0-2.249-.473 33.363 33.363 0 0 0-4.664-.27c-3.146 0-6.282.35-9.35 1.043-3.075.652-6.149 1.364-9.246 1.927a85.813 85.813 0 0 1-9.357 1.199Z"/>
    <path fill="#000" d="M257.11 159.432c1.777-.24 3.524-.607 5.286-.945 1.762-.337 3.525-.659 5.302-.892a33.995 33.995 0 0 1 5.391-.36 14.923 14.923 0 0 1 5.368.99l-.285.645a14.323 14.323 0 0 0-5.106-1.11 34.17 34.17 0 0 0-5.323.18c-1.777.18-3.547.442-5.317.75-1.769.307-3.531.532-5.316.742Z"/>
  </g>
  <path fill="#71CC9B" d="m297.157 137.778-9.433 16.083-21.954 70.617 2.864 1.65 9.418-19.72 21.954-66.988-2.849-1.642Z"/>
  <path fill="#000" d="m290.581 155.518 9.425-16.099-21.954 66.988-9.418 19.72 21.947-70.609Z" opacity=".2"/>
  <path fill="#71CC9B" d="m278.313 159.297-56.445 3.621-21.955 70.61 2.864 1.649 56.446-3.621 21.947-70.61-2.857-1.649Z"/>
  <path fill="#000" d="m224.725 164.568-21.947 70.61 56.445-3.622 21.947-70.609-56.445 3.621Z" opacity=".2"/>
  <path fill="#FAFAFA" d="M212.714 231.893a.37.37 0 0 1-.278-.135.374.374 0 0 1-.06-.322 3.638 3.638 0 0 0-1.989-4.4 3.647 3.647 0 0 0-1.715-.309.366.366 0 0 1-.372-.288.345.345 0 0 1 .012-.169l16.699-53.709a.353.353 0 0 1 .307-.248 7.66 7.66 0 0 0 6.801-5.346.352.352 0 0 1 .315-.247l38.78-2.49a.378.378 0 0 1 .166.032.377.377 0 0 1 .134.103.359.359 0 0 1 .06.323 3.594 3.594 0 0 0 .615 3.329 3.548 3.548 0 0 0 3.089 1.38.33.33 0 0 1 .167.029c.052.024.098.06.133.106a.349.349 0 0 1 .072.153.346.346 0 0 1-.012.169l-16.691 53.709a.357.357 0 0 1-.315.247 7.685 7.685 0 0 0-6.801 5.346.345.345 0 0 1-.315.248l-38.78 2.489h-.022Zm-3.584-5.878a4.354 4.354 0 0 1 4.041 5.143l38.068-2.444a8.37 8.37 0 0 1 7.108-5.586l16.496-53.019a4.352 4.352 0 0 1-3.192-1.653 4.358 4.358 0 0 1-.857-3.491l-38.06 2.445a8.388 8.388 0 0 1-7.109 5.586l-16.495 53.019Z"/>
  <path fill="#000" d="m221.868 162.918 2.856 1.65-21.947 70.609-2.864-1.649 21.955-70.61Z" opacity=".3"/>
  <path fill="#71CC9B" d="m281.171 160.947 9.403-5.429-21.947 70.61c-1.462 3.809-4.694 5.511-9.41 5.428l21.954-70.609Z"/>
  <path fill="#000" d="m281.171 160.947 9.403-5.429-21.947 70.61c-1.642 4.026-4.964 5.563-9.41 5.428l21.954-70.609Z" opacity=".3"/>
  <path fill="#455A64" d="M287.402 153.681c-1.747-1.028-5.249-.645-7.858.854-2.61 1.5-3.284 3.54-1.537 4.567l3.164 1.844 9.402-5.428-2.856-1.657-.315-.18Z"/>
  <path fill="#E0E0E0" d="M276.154 177.067c3.389.067 7.071-.36 8.713-3.164l2.182-6.988c-2.062 2.819-4.762 4.288-8.998 4.168l-1.897 5.984Z"/>
  <path fill="#71CC9B" d="M287.724 153.86c-.555 2.715-4.019 4.409-9.41 5.437l2.856 1.649c4.634-.532 7.694-2.407 9.411-5.428l-2.857-1.658Z"/>
  <path fill="#FFA8A7" d="M182.601 125.151c-5.864.352-12.095 2.302-14.764 12.911-2.669 10.61-9.935 46.204-10.497 50.988-.563 4.783-.675 8.645 10.819 12.326 12.972 4.147 33.937 5.774 39.86 6.089 10.925.592 18.206-2.625 21.692-8.9 3.487-6.276 4.499-14.629-5.308-10.58-10.408 4.304-14.772 4.409-14.772 4.409l1.995-6.419c-3.262 1.417-5.999 5.879-9.26 6.419-2.894.487-24.931-7.139-24.931-7.139l7.498-31.994s6.845-20.162-2.332-28.11Z"/>
  <path fill="#37474F" d="M183.688 113.311a48.96 48.96 0 0 1-3.899 3.846c-2.632 2.565-4.499 4.807-5.721 8.248-1.222 3.442-1.065 7.581 1.155 10.498 2.219 2.916 5.998 4.273 7.565 7.498.75 1.544.9 3.314 1.148 5.023.524 3.697 1.664 7.401 3.936 10.37 3.682 4.829 11.555 7.266 16.586 2.865a11.93 11.93 0 0 0 3.254-5.587 19.594 19.594 0 0 0-.277-13.181c-1.5-3.704-4.372-6.673-7.019-9.68-2.362-2.685-5.481-6.171-5.998-9.875 0 0-.098-6.891-.045-10.16 0-1.597 0-3.209-1.545-4.049a10.044 10.044 0 0 0-3.884-1.335c-2.114-.105-2.474.158-2.474.158a16.154 16.154 0 0 1-2.782 5.361Z"/>
  <path fill="#FFA8A7" d="M289.029 172.718c-.682-2.249-3.209 1.972-4.319 8.413-1.057 6.164-2.512 12.605-2.512 12.605l-1.702 5.248s4.072-2.519 7.393-9.425c3.322-6.906 3.074-10.49 1.14-16.841Z"/>
</svg>
