<svg width="24" height="24" viewBox="0 0 24 24" fill="none" xmlns="http://www.w3.org/2000/svg">
<g opacity="0.5">
<path d="M15.5 14.0005H14.71L14.43 13.7305C15.0549 13.0044 15.5117 12.1492 15.7675 11.2261C16.0234 10.3029 16.072 9.33462 15.91 8.39046C15.44 5.61046 13.12 3.39046 10.32 3.05046C9.33559 2.92593 8.33576 3.02823 7.397 3.34955C6.45824 3.67087 5.60542 4.20268 4.90381 4.90429C4.20219 5.60591 3.67038 6.45872 3.34906 7.39749C3.02775 8.33625 2.92544 9.33608 3.04997 10.3205C3.38997 13.1205 5.60998 15.4405 8.38998 15.9105C9.33413 16.0725 10.3024 16.0239 11.2256 15.768C12.1487 15.5122 13.0039 15.0554 13.73 14.4305L14 14.7105V15.5005L18.25 19.7505C18.66 20.1605 19.33 20.1605 19.74 19.7505C20.15 19.3405 20.15 18.6705 19.74 18.2605L15.5 14.0005ZM9.49997 14.0005C7.00997 14.0005 4.99997 11.9905 4.99997 9.50046C4.99997 7.01046 7.00997 5.00046 9.49997 5.00046C11.99 5.00046 14 7.01046 14 9.50046C14 11.9905 11.99 14.0005 9.49997 14.0005Z" fill="#243036"/>
</g>
</svg>
