<svg width="25" height="25" viewBox="0 0 25 25" fill="none" xmlns="http://www.w3.org/2000/svg">
<path d="M5.8885 10.213C6.36727 8.76447 7.29126 7.50417 8.52866 6.61186C9.76606 5.71955 11.2537 5.24082 12.7792 5.24395C14.5086 5.24395 16.0721 5.85792 17.3 6.86277L20.8733 3.29052C18.6958 1.39235 15.9053 0.220703 12.7792 0.220703C7.93914 0.220703 3.77237 2.98149 1.7688 7.02547L5.8885 10.213Z" fill="#EA4335"/>
<path d="M16.9133 18.653C15.7979 19.3723 14.3817 19.756 12.7792 19.756C11.2597 19.7592 9.77777 19.2842 8.54313 18.3985C7.30848 17.5128 6.38372 16.2612 5.89977 14.8208L1.76575 17.9592C2.78006 20.0122 4.34979 21.7395 6.29662 22.9451C8.24345 24.1507 10.4894 24.7862 12.7792 24.7793C15.7805 24.7793 18.6477 23.712 20.7956 21.7095L16.9143 18.653H16.9133Z" fill="#34A853"/>
<path d="M20.7956 21.7093C23.0417 19.6137 24.4999 16.4947 24.4999 12.4999C24.4999 11.7733 24.3883 10.9926 24.2215 10.2671H12.7793V15.012H19.3651C19.0407 16.6073 18.1679 17.8424 16.9143 18.6528L20.7956 21.7093Z" fill="#4A90E2"/>
<path d="M5.89981 14.8207C5.64947 14.0726 5.52229 13.2888 5.52325 12.4999C5.52325 11.6997 5.65115 10.9312 5.88855 10.2129L1.76886 7.02539C0.926066 8.72677 0.49161 10.6012 0.499997 12.4999C0.499997 14.4646 0.955354 16.3167 1.76579 17.9591L5.89981 14.8207Z" fill="#FBBC05"/>
</svg>
