<svg width="158" height="194" viewBox="0 0 158 194" fill="none" xmlns="http://www.w3.org/2000/svg">
<path d="M47.6502 24.5968C47.6502 37.7832 36.9834 48.4728 23.8251 48.4728C10.6669 48.4728 0 37.7832 0 24.5968C0 11.4104 10.6669 0.720703 23.8251 0.720703C36.9834 0.720703 47.6502 11.4104 47.6502 24.5968Z" fill="#EFE91B"/>
<path d="M53.8994 40.2532C60.4571 28.2527 57.2152 16.2086 54.3225 9.23622C53.9288 8.28715 54.4881 7.20515 55.5046 7.06867C72.2832 4.81602 108.29 7.5098 133.186 35.1649C152.585 56.1706 179.118 111.881 130.062 166.679C121.078 176.073 93.1914 194.626 53.5089 193.686H7.42094C6.5581 193.686 5.85863 192.985 5.85863 192.121V155.719C5.85863 154.855 6.5581 154.154 7.42094 154.154H53.5089C112.876 156.502 129.807 109.142 114.829 76.263C102.952 50.1914 75.6774 44.1672 59.9876 44.3219C56.9729 44.3516 52.718 44.1499 53.5232 41.2383C53.6246 40.8715 53.7608 40.531 53.8994 40.2532Z" fill="#1EC0C4"/>
<path d="M5.46806 60.2152C5.46806 58.0535 7.21673 56.3011 9.37382 56.3011H39.8387C41.9958 56.3011 43.7445 58.0535 43.7445 60.2152V141.629C43.7445 143.79 41.9958 145.543 39.8387 145.543H9.37382C7.21673 145.543 5.46806 143.79 5.46806 141.629V60.2152Z" fill="#1EC0C4"/>
</svg>
