<svg width="24" height="25" viewBox="0 0 24 25" fill="none" xmlns="http://www.w3.org/2000/svg">
<path d="M3.9799 8.94327C3.05679 10.0345 2.35239 11.3167 1.93433 12.7222C3.22562 17.0587 7.24308 20.2207 11.9991 20.2207C12.9916 20.2207 13.952 20.083 14.8622 19.8256M6.2276 6.94833C7.88385 5.85628 9.86768 5.2207 11.9999 5.2207C16.7559 5.2207 20.7734 8.38275 22.0647 12.7192C21.3528 15.1126 19.8105 17.1484 17.772 18.4927M6.2276 6.94833L2.99997 3.7207M6.2276 6.94833L9.87865 10.5994M17.772 18.4927L21 21.7207M17.772 18.4927L14.1213 14.842M14.1213 14.842C14.6642 14.2991 15 13.5491 15 12.7207C15 11.0638 13.6568 9.7207 12 9.7207C11.1715 9.7207 10.4215 10.0565 9.87865 10.5994M14.1213 14.842L9.87865 10.5994" stroke="#243036" stroke-width="1.5" stroke-linecap="round" stroke-linejoin="round"/>
</svg>
