<svg width="24" height="25" viewBox="0 0 24 25" fill="none" xmlns="http://www.w3.org/2000/svg">
<path d="M2.03556 13.0431C1.96648 12.8358 1.96642 12.6114 2.03538 12.4041C3.42374 8.23043 7.3608 5.2207 12.0008 5.2207C16.6387 5.2207 20.5742 8.22763 21.9643 12.3983C22.0334 12.6056 22.0335 12.83 21.9645 13.0373C20.5762 17.211 16.6391 20.2207 11.9991 20.2207C7.36121 20.2207 3.42565 17.2138 2.03556 13.0431Z" stroke="#243036" stroke-width="1.5" stroke-linecap="round" stroke-linejoin="round"/>
<path d="M15 12.7207C15 14.3776 13.6569 15.7207 12 15.7207C10.3432 15.7207 9.00001 14.3776 9.00001 12.7207C9.00001 11.0638 10.3432 9.7207 12 9.7207C13.6569 9.7207 15 11.0638 15 12.7207Z" stroke="#243036" stroke-width="1.5" stroke-linecap="round" stroke-linejoin="round"/>
</svg>
