<svg width="48" height="49" viewBox="0 0 48 49" fill="none" xmlns="http://www.w3.org/2000/svg">
<path d="M13.0394 33.4471L16.0677 25.8764C16.5505 24.6693 17.2735 23.5728 18.1928 22.6535L34.7989 6.04854C36.7871 4.06031 40.0107 4.06032 41.9989 6.04854C43.9871 8.03677 43.9871 11.2603 41.9989 13.2485L25.3928 29.8535C24.4735 30.7728 23.3771 31.4958 22.17 31.9786L14.5992 35.0069C13.6197 35.3987 12.6476 34.4266 13.0394 33.4471Z" fill="#71CC9B"/>
<path d="M8.40005 13.8468C8.40005 12.19 9.74319 10.8468 11.4 10.8468H24C24.9942 10.8468 25.8 10.0409 25.8 9.04683C25.8 8.05271 24.9942 7.24683 24 7.24683H11.4C7.75497 7.24683 4.80005 10.2017 4.80005 13.8468V36.6468C4.80005 40.2919 7.75497 43.2468 11.4 43.2468H34.2C37.8451 43.2468 40.8 40.2919 40.8 36.6468V24.0468C40.8 23.0527 39.9942 22.2468 39 22.2468C38.0059 22.2468 37.2 23.0527 37.2 24.0468V36.6468C37.2 38.3037 35.8569 39.6468 34.2 39.6468H11.4C9.74319 39.6468 8.40005 38.3037 8.40005 36.6468V13.8468Z" fill="#71CC9B"/>
</svg>
