<svg width="24" height="25" viewBox="0 0 24 25" fill="none" xmlns="http://www.w3.org/2000/svg">
<path d="M14.7404 9.5L14.3942 18.5M9.60577 18.5L9.25962 9.5M19.2276 6.29057C19.5696 6.34221 19.9104 6.39747 20.25 6.45629M19.2276 6.29057L18.1598 20.1726C18.0696 21.3448 17.0921 22.25 15.9164 22.25H8.08357C6.90786 22.25 5.93037 21.3448 5.8402 20.1726L4.77235 6.29057M19.2276 6.29057C18.0812 6.11744 16.9215 5.98485 15.75 5.89432M3.75 6.45629C4.08957 6.39747 4.43037 6.34221 4.77235 6.29057M4.77235 6.29057C5.91878 6.11744 7.07849 5.98485 8.25 5.89432M15.75 5.89432V4.97819C15.75 3.79882 14.8393 2.81423 13.6606 2.77652C13.1092 2.75889 12.5556 2.75 12 2.75C11.4444 2.75 10.8908 2.75889 10.3394 2.77652C9.16065 2.81423 8.25 3.79882 8.25 4.97819V5.89432M15.75 5.89432C14.5126 5.7987 13.262 5.75 12 5.75C10.738 5.75 9.48744 5.7987 8.25 5.89432" stroke="#243036" stroke-width="1.5" stroke-linecap="round" stroke-linejoin="round"/>
</svg>
