<svg width="104" height="28" viewBox="0 0 104 28" fill="none" xmlns="http://www.w3.org/2000/svg">
<rect x="0.75" y="0.75" width="102.5" height="26.5" rx="3.25" fill="white"/>
<rect x="0.75" y="0.75" width="102.5" height="26.5" rx="3.25" stroke="#4D49FF" stroke-width="1.5"/>
<path d="M13.424 21.192C12.6667 21.192 11.9733 21.0533 11.344 20.776C10.7147 20.488 10.1813 20.0987 9.744 19.608C9.30667 19.1173 8.992 18.568 8.8 17.96L10.16 17.4C10.448 18.168 10.8747 18.76 11.44 19.176C12.016 19.5813 12.688 19.784 13.456 19.784C13.9253 19.784 14.336 19.7093 14.688 19.56C15.04 19.4107 15.312 19.2027 15.504 18.936C15.7067 18.6587 15.808 18.3387 15.808 17.976C15.808 17.4747 15.664 17.08 15.376 16.792C15.0987 16.4933 14.688 16.2693 14.144 16.12L11.952 15.448C11.088 15.1813 10.4267 14.76 9.968 14.184C9.50933 13.608 9.28 12.9467 9.28 12.2C9.28 11.5493 9.43467 10.9787 9.744 10.488C10.064 9.98667 10.5013 9.59733 11.056 9.32C11.6213 9.032 12.2613 8.888 12.976 8.888C13.6907 8.888 14.336 9.016 14.912 9.272C15.4987 9.528 15.9947 9.87467 16.4 10.312C16.8053 10.7387 17.104 11.2293 17.296 11.784L15.952 12.344C15.696 11.672 15.312 11.1653 14.8 10.824C14.288 10.472 13.6853 10.296 12.992 10.296C12.5653 10.296 12.1867 10.3707 11.856 10.52C11.536 10.6587 11.2853 10.8667 11.104 11.144C10.9333 11.4107 10.848 11.7307 10.848 12.104C10.848 12.5413 10.9867 12.9307 11.264 13.272C11.5413 13.6133 11.9627 13.8747 12.528 14.056L14.528 14.648C15.4667 14.936 16.176 15.3467 16.656 15.88C17.136 16.4133 17.376 17.0747 17.376 17.864C17.376 18.5147 17.2053 19.0907 16.864 19.592C16.5333 20.0933 16.0693 20.488 15.472 20.776C14.8853 21.0533 14.2027 21.192 13.424 21.192ZM19.4958 21V8.888H20.9838V21H19.4958ZM23.2926 21V12.376H24.7806V21H23.2926ZM23.2926 11V9.08H24.7806V11H23.2926ZM31.0895 21.192C30.2468 21.192 29.4948 20.9947 28.8335 20.6C28.1828 20.2053 27.6708 19.6667 27.2975 18.984C26.9242 18.3013 26.7375 17.5333 26.7375 16.68C26.7375 15.816 26.9242 15.048 27.2975 14.376C27.6708 13.704 28.1828 13.1707 28.8335 12.776C29.4948 12.3813 30.2468 12.184 31.0895 12.184C31.6548 12.184 32.1828 12.2853 32.6735 12.488C33.1642 12.6907 33.5962 12.9627 33.9695 13.304C34.3428 13.6453 34.6148 14.0453 34.7855 14.504L33.4575 15.144C33.2548 14.696 32.9455 14.3333 32.5295 14.056C32.1135 13.768 31.6335 13.624 31.0895 13.624C30.5668 13.624 30.0922 13.7573 29.6655 14.024C29.2495 14.2907 28.9188 14.6533 28.6735 15.112C28.4282 15.5707 28.3055 16.0987 28.3055 16.696C28.3055 17.272 28.4282 17.7947 28.6735 18.264C28.9188 18.7227 29.2495 19.0853 29.6655 19.352C30.0922 19.6187 30.5668 19.752 31.0895 19.752C31.6335 19.752 32.1135 19.6133 32.5295 19.336C32.9455 19.048 33.2548 18.6693 33.4575 18.2L34.7855 18.872C34.6148 19.32 34.3428 19.72 33.9695 20.072C33.5962 20.4133 33.1642 20.6853 32.6735 20.888C32.1828 21.0907 31.6548 21.192 31.0895 21.192ZM40.6981 21.192C39.8661 21.192 39.1248 20.9947 38.4741 20.6C37.8235 20.2053 37.3115 19.6667 36.9381 18.984C36.5648 18.2907 36.3781 17.5173 36.3781 16.664C36.3781 15.8 36.5595 15.032 36.9221 14.36C37.2955 13.688 37.7968 13.16 38.4261 12.776C39.0661 12.3813 39.7808 12.184 40.5701 12.184C41.2101 12.184 41.7755 12.3013 42.2661 12.536C42.7675 12.76 43.1888 13.0693 43.5301 13.464C43.8821 13.848 44.1488 14.2907 44.3301 14.792C44.5221 15.2827 44.6181 15.7947 44.6181 16.328C44.6181 16.4453 44.6075 16.5787 44.5861 16.728C44.5755 16.8667 44.5595 17 44.5381 17.128H37.4661V15.848H43.6741L42.9701 16.424C43.0661 15.8693 43.0128 15.3733 42.8101 14.936C42.6075 14.4987 42.3088 14.152 41.9141 13.896C41.5195 13.64 41.0715 13.512 40.5701 13.512C40.0688 13.512 39.6101 13.64 39.1941 13.896C38.7781 14.152 38.4528 14.52 38.2181 15C37.9941 15.4693 37.9035 16.0293 37.9461 16.68C37.9035 17.3093 37.9995 17.864 38.2341 18.344C38.4795 18.8133 38.8208 19.1813 39.2581 19.448C39.7061 19.704 40.1915 19.832 40.7141 19.832C41.2901 19.832 41.7755 19.6987 42.1701 19.432C42.5648 19.1653 42.8848 18.824 43.1301 18.408L44.3781 19.048C44.2075 19.4427 43.9408 19.8053 43.5781 20.136C43.2261 20.456 42.8048 20.712 42.3141 20.904C41.8341 21.096 41.2955 21.192 40.6981 21.192ZM53.4199 21.192C52.5879 21.192 51.8359 21 51.1639 20.616C50.4919 20.2213 49.9585 19.6827 49.5639 19C49.1692 18.3173 48.9719 17.544 48.9719 16.68C48.9719 15.816 49.1639 15.048 49.5479 14.376C49.9425 13.704 50.4759 13.1707 51.1479 12.776C51.8199 12.3813 52.5772 12.184 53.4199 12.184C54.2519 12.184 55.0039 12.3813 55.6759 12.776C56.3479 13.16 56.8759 13.688 57.2599 14.36C57.6545 15.032 57.8519 15.8053 57.8519 16.68C57.8519 17.5547 57.6492 18.3333 57.2439 19.016C56.8385 19.688 56.2999 20.2213 55.6279 20.616C54.9665 21 54.2305 21.192 53.4199 21.192ZM53.4199 19.752C53.9532 19.752 54.4332 19.6187 54.8599 19.352C55.2972 19.0853 55.6385 18.7173 55.8839 18.248C56.1399 17.7787 56.2679 17.256 56.2679 16.68C56.2679 16.0933 56.1399 15.576 55.8839 15.128C55.6385 14.6693 55.2972 14.3067 54.8599 14.04C54.4332 13.7627 53.9532 13.624 53.4199 13.624C52.8759 13.624 52.3852 13.7627 51.9479 14.04C51.5212 14.3067 51.1799 14.6693 50.9239 15.128C50.6679 15.576 50.5399 16.0933 50.5399 16.68C50.5399 17.256 50.6679 17.7787 50.9239 18.248C51.1799 18.7173 51.5212 19.0853 51.9479 19.352C52.3852 19.6187 52.8759 19.752 53.4199 19.752ZM60.439 21V13.8H58.791V12.376H60.439V11.768C60.439 11.1493 60.5723 10.6267 60.839 10.2C61.1163 9.77333 61.479 9.448 61.927 9.224C62.3857 9 62.8923 8.888 63.447 8.888C63.5643 8.888 63.6923 8.89867 63.831 8.92C63.9803 8.93067 64.103 8.94667 64.199 8.968V10.296C64.1137 10.2747 64.0123 10.264 63.895 10.264C63.7777 10.2533 63.687 10.248 63.623 10.248C63.1323 10.248 62.727 10.3653 62.407 10.6C62.0977 10.8347 61.943 11.224 61.943 11.768V12.376H63.991V13.8H61.943V21H60.439ZM68.828 21V9.08H70.396V19.56H75.628V21H68.828ZM77.2145 21V12.376H78.7025V21H77.2145ZM77.2145 11V9.08H78.7025V11H77.2145ZM81.9234 21V13.8H80.2754V12.376H81.9234V11.768C81.9234 11.1493 82.0567 10.6267 82.3234 10.2C82.6007 9.77333 82.9634 9.448 83.4114 9.224C83.87 9 84.3767 8.888 84.9314 8.888C85.0487 8.888 85.1767 8.89867 85.3154 8.92C85.4647 8.93067 85.5874 8.94667 85.6834 8.968V10.296C85.598 10.2747 85.4967 10.264 85.3794 10.264C85.262 10.2533 85.1714 10.248 85.1074 10.248C84.6167 10.248 84.2114 10.3653 83.8914 10.6C83.582 10.8347 83.4274 11.224 83.4274 11.768V12.376H85.4754V13.8H83.4274V21H81.9234ZM90.9325 21.192C90.1005 21.192 89.3592 20.9947 88.7085 20.6C88.0578 20.2053 87.5458 19.6667 87.1725 18.984C86.7992 18.2907 86.6125 17.5173 86.6125 16.664C86.6125 15.8 86.7938 15.032 87.1565 14.36C87.5298 13.688 88.0312 13.16 88.6605 12.776C89.3005 12.3813 90.0152 12.184 90.8045 12.184C91.4445 12.184 92.0098 12.3013 92.5005 12.536C93.0018 12.76 93.4232 13.0693 93.7645 13.464C94.1165 13.848 94.3832 14.2907 94.5645 14.792C94.7565 15.2827 94.8525 15.7947 94.8525 16.328C94.8525 16.4453 94.8418 16.5787 94.8205 16.728C94.8098 16.8667 94.7938 17 94.7725 17.128H87.7005V15.848H93.9085L93.2045 16.424C93.3005 15.8693 93.2472 15.3733 93.0445 14.936C92.8418 14.4987 92.5432 14.152 92.1485 13.896C91.7538 13.64 91.3058 13.512 90.8045 13.512C90.3032 13.512 89.8445 13.64 89.4285 13.896C89.0125 14.152 88.6872 14.52 88.4525 15C88.2285 15.4693 88.1378 16.0293 88.1805 16.68C88.1378 17.3093 88.2338 17.864 88.4685 18.344C88.7138 18.8133 89.0552 19.1813 89.4925 19.448C89.9405 19.704 90.4258 19.832 90.9485 19.832C91.5245 19.832 92.0098 19.6987 92.4045 19.432C92.7992 19.1653 93.1192 18.824 93.3645 18.408L94.6125 19.048C94.4418 19.4427 94.1752 19.8053 93.8125 20.136C93.4605 20.456 93.0392 20.712 92.5485 20.904C92.0685 21.096 91.5298 21.192 90.9325 21.192Z" fill="#4D49FF"/>
</svg>
