<svg width="66" height="28" viewBox="0 0 66 28" fill="none" xmlns="http://www.w3.org/2000/svg">
<rect x="0.75" y="0.75" width="64.5" height="26.5" rx="3.25" fill="white"/>
<rect x="0.75" y="0.75" width="64.5" height="26.5" rx="3.25" stroke="#A394D5" stroke-width="1.5"/>
<path d="M8.176 21L12.448 9.08H14.304L18.576 21H16.896L15.92 18.2H10.832L9.856 21H8.176ZM11.328 16.76H15.424L13.152 10.216H13.6L11.328 16.76ZM23.5895 21.192C22.7468 21.192 21.9948 20.9947 21.3335 20.6C20.6828 20.2053 20.1708 19.6667 19.7975 18.984C19.4242 18.3013 19.2375 17.5333 19.2375 16.68C19.2375 15.816 19.4242 15.048 19.7975 14.376C20.1708 13.704 20.6828 13.1707 21.3335 12.776C21.9948 12.3813 22.7468 12.184 23.5895 12.184C24.1548 12.184 24.6828 12.2853 25.1735 12.488C25.6642 12.6907 26.0962 12.9627 26.4695 13.304C26.8428 13.6453 27.1148 14.0453 27.2855 14.504L25.9575 15.144C25.7548 14.696 25.4455 14.3333 25.0295 14.056C24.6135 13.768 24.1335 13.624 23.5895 13.624C23.0668 13.624 22.5922 13.7573 22.1655 14.024C21.7495 14.2907 21.4188 14.6533 21.1735 15.112C20.9282 15.5707 20.8055 16.0987 20.8055 16.696C20.8055 17.272 20.9282 17.7947 21.1735 18.264C21.4188 18.7227 21.7495 19.0853 22.1655 19.352C22.5922 19.6187 23.0668 19.752 23.5895 19.752C24.1335 19.752 24.6135 19.6133 25.0295 19.336C25.4455 19.048 25.7548 18.6693 25.9575 18.2L27.2855 18.872C27.1148 19.32 26.8428 19.72 26.4695 20.072C26.0962 20.4133 25.6642 20.6853 25.1735 20.888C24.6828 21.0907 24.1548 21.192 23.5895 21.192ZM32.7341 21.096C31.8915 21.096 31.2408 20.856 30.7821 20.376C30.3341 19.896 30.1101 19.2187 30.1101 18.344V13.8H28.5421V12.376H28.8621C29.2461 12.376 29.5501 12.2587 29.7741 12.024C29.9981 11.7893 30.1101 11.48 30.1101 11.096V10.392H31.5981V12.376H33.5341V13.8H31.5981V18.296C31.5981 18.584 31.6408 18.8347 31.7261 19.048C31.8221 19.2613 31.9768 19.432 32.1901 19.56C32.4035 19.6773 32.6861 19.736 33.0381 19.736C33.1128 19.736 33.2035 19.7307 33.3101 19.72C33.4275 19.7093 33.5341 19.6987 33.6301 19.688V21C33.4915 21.032 33.3368 21.0533 33.1661 21.064C32.9955 21.0853 32.8515 21.096 32.7341 21.096ZM35.5739 21V12.376H37.0619V21H35.5739ZM35.5739 11V9.08H37.0619V11H35.5739ZM43.4668 21.192C42.6348 21.192 41.8828 21 41.2108 20.616C40.5388 20.2213 40.0054 19.6827 39.6108 19C39.2161 18.3173 39.0188 17.544 39.0188 16.68C39.0188 15.816 39.2108 15.048 39.5948 14.376C39.9894 13.704 40.5228 13.1707 41.1948 12.776C41.8668 12.3813 42.6241 12.184 43.4668 12.184C44.2988 12.184 45.0508 12.3813 45.7228 12.776C46.3948 13.16 46.9228 13.688 47.3068 14.36C47.7014 15.032 47.8988 15.8053 47.8988 16.68C47.8988 17.5547 47.6961 18.3333 47.2908 19.016C46.8854 19.688 46.3468 20.2213 45.6748 20.616C45.0134 21 44.2774 21.192 43.4668 21.192ZM43.4668 19.752C44.0001 19.752 44.4801 19.6187 44.9068 19.352C45.3441 19.0853 45.6854 18.7173 45.9308 18.248C46.1868 17.7787 46.3148 17.256 46.3148 16.68C46.3148 16.0933 46.1868 15.576 45.9308 15.128C45.6854 14.6693 45.3441 14.3067 44.9068 14.04C44.4801 13.7627 44.0001 13.624 43.4668 13.624C42.9228 13.624 42.4321 13.7627 41.9948 14.04C41.5681 14.3067 41.2268 14.6693 40.9708 15.128C40.7148 15.576 40.5868 16.0933 40.5868 16.68C40.5868 17.256 40.7148 17.7787 40.9708 18.248C41.2268 18.7173 41.5681 19.0853 41.9948 19.352C42.4321 19.6187 42.9228 19.752 43.4668 19.752ZM49.8395 21V12.376H51.2955V14.056L51.0555 13.912C51.2688 13.368 51.6102 12.9467 52.0795 12.648C52.5595 12.3387 53.1195 12.184 53.7595 12.184C54.3782 12.184 54.9275 12.3227 55.4075 12.6C55.8982 12.8773 56.2822 13.2613 56.5595 13.752C56.8475 14.2427 56.9915 14.7973 56.9915 15.416V21H55.4875V15.896C55.4875 15.416 55.4022 15.0107 55.2315 14.68C55.0608 14.3493 54.8155 14.0933 54.4955 13.912C54.1862 13.72 53.8288 13.624 53.4235 13.624C53.0182 13.624 52.6555 13.72 52.3355 13.912C52.0262 14.0933 51.7808 14.3547 51.5995 14.696C51.4182 15.0267 51.3275 15.4267 51.3275 15.896V21H49.8395Z" fill="#A394D5"/>
</svg>
