<svg width="66" height="28" viewBox="0 0 66 28" fill="none" xmlns="http://www.w3.org/2000/svg">
<rect x="0.75" y="0.75" width="64.5" height="26.5" rx="3.25" fill="white"/>
<rect x="0.75" y="0.75" width="64.5" height="26.5" rx="3.25" stroke="#FF2121" stroke-width="1.5"/>
<path d="M9.328 21V9.08H10.896V14.392H16.864V9.08H18.448V21H16.864V15.832H10.896V21H9.328ZM25.0136 21.192C24.1816 21.192 23.4296 21 22.7576 20.616C22.0856 20.2213 21.5523 19.6827 21.1576 19C20.763 18.3173 20.5656 17.544 20.5656 16.68C20.5656 15.816 20.7576 15.048 21.1416 14.376C21.5363 13.704 22.0696 13.1707 22.7416 12.776C23.4136 12.3813 24.171 12.184 25.0136 12.184C25.8456 12.184 26.5976 12.3813 27.2696 12.776C27.9416 13.16 28.4696 13.688 28.8536 14.36C29.2483 15.032 29.4456 15.8053 29.4456 16.68C29.4456 17.5547 29.243 18.3333 28.8376 19.016C28.4323 19.688 27.8936 20.2213 27.2216 20.616C26.5603 21 25.8243 21.192 25.0136 21.192ZM25.0136 19.752C25.547 19.752 26.027 19.6187 26.4536 19.352C26.891 19.0853 27.2323 18.7173 27.4776 18.248C27.7336 17.7787 27.8616 17.256 27.8616 16.68C27.8616 16.0933 27.7336 15.576 27.4776 15.128C27.2323 14.6693 26.891 14.3067 26.4536 14.04C26.027 13.7627 25.547 13.624 25.0136 13.624C24.4696 13.624 23.979 13.7627 23.5416 14.04C23.115 14.3067 22.7736 14.6693 22.5176 15.128C22.2616 15.576 22.1336 16.0933 22.1336 16.68C22.1336 17.256 22.2616 17.7787 22.5176 18.248C22.7736 18.7173 23.115 19.0853 23.5416 19.352C23.979 19.6187 24.4696 19.752 25.0136 19.752ZM31.3864 21V12.376H32.8424V13.96L32.6824 13.736C32.885 13.2453 33.1944 12.8827 33.6104 12.648C34.0264 12.4027 34.533 12.28 35.1304 12.28H35.6584V13.688H34.9064C34.2984 13.688 33.8077 13.88 33.4344 14.264C33.061 14.6373 32.8744 15.1707 32.8744 15.864V21H31.3864ZM36.9801 21V12.376H38.4361V13.96L38.2761 13.736C38.4788 13.2453 38.7881 12.8827 39.2041 12.648C39.6201 12.4027 40.1268 12.28 40.7241 12.28H41.2521V13.688H40.5001C39.8921 13.688 39.4015 13.88 39.0281 14.264C38.6548 14.6373 38.4681 15.1707 38.4681 15.864V21H36.9801ZM46.6699 21.192C45.8379 21.192 45.0859 21 44.4139 20.616C43.7419 20.2213 43.2085 19.6827 42.8139 19C42.4192 18.3173 42.2219 17.544 42.2219 16.68C42.2219 15.816 42.4139 15.048 42.7979 14.376C43.1925 13.704 43.7259 13.1707 44.3979 12.776C45.0699 12.3813 45.8272 12.184 46.6699 12.184C47.5019 12.184 48.2539 12.3813 48.9259 12.776C49.5979 13.16 50.1259 13.688 50.5099 14.36C50.9045 15.032 51.1019 15.8053 51.1019 16.68C51.1019 17.5547 50.8992 18.3333 50.4939 19.016C50.0885 19.688 49.5499 20.2213 48.8779 20.616C48.2165 21 47.4805 21.192 46.6699 21.192ZM46.6699 19.752C47.2032 19.752 47.6832 19.6187 48.1099 19.352C48.5472 19.0853 48.8885 18.7173 49.1339 18.248C49.3899 17.7787 49.5179 17.256 49.5179 16.68C49.5179 16.0933 49.3899 15.576 49.1339 15.128C48.8885 14.6693 48.5472 14.3067 48.1099 14.04C47.6832 13.7627 47.2032 13.624 46.6699 13.624C46.1259 13.624 45.6352 13.7627 45.1979 14.04C44.7712 14.3067 44.4299 14.6693 44.1739 15.128C43.9179 15.576 43.7899 16.0933 43.7899 16.68C43.7899 17.256 43.9179 17.7787 44.1739 18.248C44.4299 18.7173 44.7712 19.0853 45.1979 19.352C45.6352 19.6187 46.1259 19.752 46.6699 19.752ZM53.0426 21V12.376H54.4986V13.96L54.3386 13.736C54.5413 13.2453 54.8506 12.8827 55.2666 12.648C55.6826 12.4027 56.1893 12.28 56.7866 12.28H57.3146V13.688H56.5626C55.9546 13.688 55.464 13.88 55.0906 14.264C54.7173 14.6373 54.5306 15.1707 54.5306 15.864V21H53.0426Z" fill="#FF2121"/>
</svg>
