<svg width="89" height="28" viewBox="0 0 89 28" fill="none" xmlns="http://www.w3.org/2000/svg">
<rect x="0.75" y="0.75" width="87.5" height="26.5" rx="3.25" fill="white"/>
<rect x="0.75" y="0.75" width="87.5" height="26.5" rx="3.25" stroke="#FF786E" stroke-width="1.5"/>
<path d="M9.328 21V9.08H13.536C14.3253 9.08 15.0187 9.22933 15.616 9.528C16.2133 9.82667 16.6773 10.2533 17.008 10.808C17.3493 11.3627 17.52 12.0133 17.52 12.76C17.52 13.6027 17.3067 14.3173 16.88 14.904C16.4533 15.4907 15.8773 15.912 15.152 16.168L17.92 21H16.096L13.184 15.832L14.224 16.44H10.896V21H9.328ZM10.896 15H13.584C14.0533 15 14.464 14.9093 14.816 14.728C15.168 14.5467 15.44 14.2853 15.632 13.944C15.8347 13.6027 15.936 13.208 15.936 12.76C15.936 12.3013 15.8347 11.9067 15.632 11.576C15.44 11.2347 15.168 10.9733 14.816 10.792C14.464 10.6107 14.0533 10.52 13.584 10.52H10.896V15ZM23.1386 21.192C22.3066 21.192 21.5546 21 20.8826 20.616C20.2106 20.2213 19.6773 19.6827 19.2826 19C18.888 18.3173 18.6906 17.544 18.6906 16.68C18.6906 15.816 18.8826 15.048 19.2666 14.376C19.6613 13.704 20.1946 13.1707 20.8666 12.776C21.5386 12.3813 22.296 12.184 23.1386 12.184C23.9706 12.184 24.7226 12.3813 25.3946 12.776C26.0666 13.16 26.5946 13.688 26.9786 14.36C27.3733 15.032 27.5706 15.8053 27.5706 16.68C27.5706 17.5547 27.368 18.3333 26.9626 19.016C26.5573 19.688 26.0186 20.2213 25.3466 20.616C24.6853 21 23.9493 21.192 23.1386 21.192ZM23.1386 19.752C23.672 19.752 24.152 19.6187 24.5786 19.352C25.016 19.0853 25.3573 18.7173 25.6026 18.248C25.8586 17.7787 25.9866 17.256 25.9866 16.68C25.9866 16.0933 25.8586 15.576 25.6026 15.128C25.3573 14.6693 25.016 14.3067 24.5786 14.04C24.152 13.7627 23.672 13.624 23.1386 13.624C22.5946 13.624 22.104 13.7627 21.6666 14.04C21.24 14.3067 20.8986 14.6693 20.6426 15.128C20.3866 15.576 20.2586 16.0933 20.2586 16.68C20.2586 17.256 20.3866 17.7787 20.6426 18.248C20.8986 18.7173 21.24 19.0853 21.6666 19.352C22.104 19.6187 22.5946 19.752 23.1386 19.752ZM29.5114 21V12.376H30.9674V14.136L30.7594 13.864C30.9727 13.32 31.314 12.904 31.7834 12.616C32.2527 12.328 32.7807 12.184 33.3674 12.184C34.0394 12.184 34.642 12.3707 35.1754 12.744C35.7194 13.1173 36.0927 13.608 36.2954 14.216L35.8794 14.232C36.1034 13.56 36.482 13.0533 37.0154 12.712C37.5487 12.36 38.1407 12.184 38.7914 12.184C39.3887 12.184 39.9274 12.3227 40.4074 12.6C40.898 12.8773 41.2874 13.2613 41.5754 13.752C41.8634 14.2427 42.0074 14.7973 42.0074 15.416V21H40.5034V15.896C40.5034 15.416 40.418 15.0107 40.2474 14.68C40.0767 14.3493 39.842 14.0933 39.5434 13.912C39.2554 13.72 38.914 13.624 38.5194 13.624C38.1354 13.624 37.7887 13.72 37.4794 13.912C37.1807 14.0933 36.9407 14.3547 36.7594 14.696C36.5887 15.0267 36.5034 15.4267 36.5034 15.896V21H34.9994V15.896C34.9994 15.416 34.914 15.0107 34.7434 14.68C34.5727 14.3493 34.338 14.0933 34.0394 13.912C33.7514 13.72 33.41 13.624 33.0154 13.624C32.6314 13.624 32.2847 13.72 31.9754 13.912C31.6767 14.0933 31.4367 14.3547 31.2554 14.696C31.0847 15.0267 30.9994 15.4267 30.9994 15.896V21H29.5114ZM46.6488 21.192C46.0834 21.192 45.5821 21.0907 45.1448 20.888C44.7181 20.6747 44.3821 20.3867 44.1368 20.024C43.8914 19.6507 43.7688 19.224 43.7688 18.744C43.7688 18.2853 43.8648 17.8747 44.0568 17.512C44.2594 17.1387 44.5688 16.824 44.9848 16.568C45.4114 16.312 45.9448 16.1307 46.5848 16.024L49.7848 15.496V16.744L46.9208 17.224C46.3661 17.32 45.9608 17.496 45.7048 17.752C45.4594 18.008 45.3368 18.3227 45.3368 18.696C45.3368 19.048 45.4754 19.3413 45.7528 19.576C46.0408 19.8107 46.3981 19.928 46.8248 19.928C47.3688 19.928 47.8381 19.816 48.2328 19.592C48.6381 19.3573 48.9528 19.0427 49.1768 18.648C49.4114 18.2533 49.5288 17.816 49.5288 17.336V15.144C49.5288 14.6747 49.3528 14.296 49.0008 14.008C48.6594 13.7093 48.2061 13.56 47.6408 13.56C47.1501 13.56 46.7128 13.688 46.3288 13.944C45.9554 14.1893 45.6781 14.52 45.4968 14.936L44.2008 14.264C44.3608 13.8693 44.6168 13.5173 44.9688 13.208C45.3208 12.888 45.7314 12.6373 46.2008 12.456C46.6701 12.2747 47.1608 12.184 47.6727 12.184C48.3341 12.184 48.9154 12.312 49.4168 12.568C49.9181 12.8133 50.3074 13.16 50.5848 13.608C50.8728 14.0453 51.0168 14.5573 51.0168 15.144V21H49.5608V19.368L49.8328 19.464C49.6514 19.8053 49.4061 20.104 49.0968 20.36C48.7874 20.616 48.4248 20.8187 48.0088 20.968C47.5928 21.1173 47.1394 21.192 46.6488 21.192ZM53.3239 21V12.376H54.7799V14.056L54.5399 13.912C54.7532 13.368 55.0945 12.9467 55.5639 12.648C56.0439 12.3387 56.6039 12.184 57.2439 12.184C57.8625 12.184 58.4119 12.3227 58.8919 12.6C59.3825 12.8773 59.7665 13.2613 60.0439 13.752C60.3319 14.2427 60.4759 14.7973 60.4759 15.416V21H58.9719V15.896C58.9719 15.416 58.8865 15.0107 58.7159 14.68C58.5452 14.3493 58.2999 14.0933 57.9799 13.912C57.6705 13.72 57.3132 13.624 56.9079 13.624C56.5025 13.624 56.1399 13.72 55.8199 13.912C55.5105 14.0933 55.2652 14.3547 55.0839 14.696C54.9025 15.0267 54.8119 15.4267 54.8119 15.896V21H53.3239ZM66.6051 21.192C65.7625 21.192 65.0105 20.9947 64.3491 20.6C63.6985 20.2053 63.1865 19.6667 62.8131 18.984C62.4398 18.3013 62.2531 17.5333 62.2531 16.68C62.2531 15.816 62.4398 15.048 62.8131 14.376C63.1865 13.704 63.6985 13.1707 64.3491 12.776C65.0105 12.3813 65.7625 12.184 66.6051 12.184C67.1705 12.184 67.6985 12.2853 68.1891 12.488C68.6798 12.6907 69.1118 12.9627 69.4851 13.304C69.8585 13.6453 70.1305 14.0453 70.3011 14.504L68.9731 15.144C68.7705 14.696 68.4611 14.3333 68.0451 14.056C67.6291 13.768 67.1491 13.624 66.6051 13.624C66.0825 13.624 65.6078 13.7573 65.1811 14.024C64.7651 14.2907 64.4345 14.6533 64.1891 15.112C63.9438 15.5707 63.8211 16.0987 63.8211 16.696C63.8211 17.272 63.9438 17.7947 64.1891 18.264C64.4345 18.7227 64.7651 19.0853 65.1811 19.352C65.6078 19.6187 66.0825 19.752 66.6051 19.752C67.1491 19.752 67.6291 19.6133 68.0451 19.336C68.4611 19.048 68.7705 18.6693 68.9731 18.2L70.3011 18.872C70.1305 19.32 69.8585 19.72 69.4851 20.072C69.1118 20.4133 68.6798 20.6853 68.1891 20.888C67.6985 21.0907 67.1705 21.192 66.6051 21.192ZM76.2138 21.192C75.3818 21.192 74.6404 20.9947 73.9898 20.6C73.3391 20.2053 72.8271 19.6667 72.4538 18.984C72.0804 18.2907 71.8938 17.5173 71.8938 16.664C71.8938 15.8 72.0751 15.032 72.4378 14.36C72.8111 13.688 73.3124 13.16 73.9418 12.776C74.5818 12.3813 75.2964 12.184 76.0858 12.184C76.7258 12.184 77.2911 12.3013 77.7818 12.536C78.2831 12.76 78.7044 13.0693 79.0458 13.464C79.3978 13.848 79.6644 14.2907 79.8458 14.792C80.0378 15.2827 80.1337 15.7947 80.1337 16.328C80.1337 16.4453 80.1231 16.5787 80.1018 16.728C80.0911 16.8667 80.0751 17 80.0538 17.128H72.9818V15.848H79.1898L78.4858 16.424C78.5818 15.8693 78.5284 15.3733 78.3258 14.936C78.1231 14.4987 77.8244 14.152 77.4298 13.896C77.0351 13.64 76.5871 13.512 76.0858 13.512C75.5844 13.512 75.1258 13.64 74.7098 13.896C74.2938 14.152 73.9684 14.52 73.7338 15C73.5098 15.4693 73.4191 16.0293 73.4618 16.68C73.4191 17.3093 73.5151 17.864 73.7498 18.344C73.9951 18.8133 74.3364 19.1813 74.7738 19.448C75.2218 19.704 75.7071 19.832 76.2298 19.832C76.8058 19.832 77.2911 19.6987 77.6858 19.432C78.0804 19.1653 78.4004 18.824 78.6458 18.408L79.8938 19.048C79.7231 19.4427 79.4564 19.8053 79.0938 20.136C78.7418 20.456 78.3204 20.712 77.8298 20.904C77.3498 21.096 76.8111 21.192 76.2138 21.192Z" fill="#FF786E"/>
</svg>
