<svg width="83" height="28" viewBox="0 0 83 28" fill="none" xmlns="http://www.w3.org/2000/svg">
<rect x="0.75" y="0.75" width="81.5" height="26.5" rx="3.25" fill="white"/>
<rect x="0.75" y="0.75" width="81.5" height="26.5" rx="3.25" stroke="#EFA71B" stroke-width="1.5"/>
<path d="M14.816 21.192C13.9733 21.192 13.1947 21.0427 12.48 20.744C11.776 20.4347 11.1573 20.0027 10.624 19.448C10.1013 18.8933 9.696 18.2427 9.408 17.496C9.12 16.7493 8.976 15.9333 8.976 15.048C8.976 14.152 9.12 13.3307 9.408 12.584C9.696 11.8373 10.1013 11.1867 10.624 10.632C11.1467 10.0773 11.7653 9.65067 12.48 9.352C13.1947 9.04267 13.9733 8.888 14.816 8.888C15.6373 8.888 16.3733 9.032 17.024 9.32C17.6853 9.608 18.24 9.98133 18.688 10.44C19.1467 10.8987 19.472 11.3893 19.664 11.912L18.224 12.568C17.9467 11.9067 17.5147 11.3733 16.928 10.968C16.3413 10.552 15.6373 10.344 14.816 10.344C13.984 10.344 13.2427 10.5413 12.592 10.936C11.952 11.3307 11.4507 11.88 11.088 12.584C10.7253 13.288 10.544 14.1093 10.544 15.048C10.544 15.976 10.7253 16.792 11.088 17.496C11.4507 18.2 11.952 18.7493 12.592 19.144C13.2427 19.5387 13.984 19.736 14.816 19.736C15.6373 19.736 16.3413 19.5333 16.928 19.128C17.5147 18.712 17.9467 18.1733 18.224 17.512L19.664 18.168C19.472 18.6907 19.1467 19.1813 18.688 19.64C18.24 20.0987 17.6853 20.472 17.024 20.76C16.3733 21.048 15.6373 21.192 14.816 21.192ZM25.5605 21.192C24.7285 21.192 23.9765 21 23.3045 20.616C22.6325 20.2213 22.0992 19.6827 21.7045 19C21.3098 18.3173 21.1125 17.544 21.1125 16.68C21.1125 15.816 21.3045 15.048 21.6885 14.376C22.0832 13.704 22.6165 13.1707 23.2885 12.776C23.9605 12.3813 24.7178 12.184 25.5605 12.184C26.3925 12.184 27.1445 12.3813 27.8165 12.776C28.4885 13.16 29.0165 13.688 29.4005 14.36C29.7952 15.032 29.9925 15.8053 29.9925 16.68C29.9925 17.5547 29.7898 18.3333 29.3845 19.016C28.9792 19.688 28.4405 20.2213 27.7685 20.616C27.1072 21 26.3712 21.192 25.5605 21.192ZM25.5605 19.752C26.0938 19.752 26.5738 19.6187 27.0005 19.352C27.4378 19.0853 27.7792 18.7173 28.0245 18.248C28.2805 17.7787 28.4085 17.256 28.4085 16.68C28.4085 16.0933 28.2805 15.576 28.0245 15.128C27.7792 14.6693 27.4378 14.3067 27.0005 14.04C26.5738 13.7627 26.0938 13.624 25.5605 13.624C25.0165 13.624 24.5258 13.7627 24.0885 14.04C23.6618 14.3067 23.3205 14.6693 23.0645 15.128C22.8085 15.576 22.6805 16.0933 22.6805 16.68C22.6805 17.256 22.8085 17.7787 23.0645 18.248C23.3205 18.7173 23.6618 19.0853 24.0885 19.352C24.5258 19.6187 25.0165 19.752 25.5605 19.752ZM31.9333 21V12.376H33.3893V14.136L33.1813 13.864C33.3946 13.32 33.7359 12.904 34.2053 12.616C34.6746 12.328 35.2026 12.184 35.7893 12.184C36.4613 12.184 37.0639 12.3707 37.5973 12.744C38.1413 13.1173 38.5146 13.608 38.7173 14.216L38.3013 14.232C38.5253 13.56 38.9039 13.0533 39.4373 12.712C39.9706 12.36 40.5626 12.184 41.2133 12.184C41.8106 12.184 42.3493 12.3227 42.8293 12.6C43.3199 12.8773 43.7093 13.2613 43.9973 13.752C44.2853 14.2427 44.4293 14.7973 44.4293 15.416V21H42.9253V15.896C42.9253 15.416 42.8399 15.0107 42.6693 14.68C42.4986 14.3493 42.2639 14.0933 41.9653 13.912C41.6773 13.72 41.3359 13.624 40.9413 13.624C40.5573 13.624 40.2106 13.72 39.9013 13.912C39.6026 14.0933 39.3626 14.3547 39.1813 14.696C39.0106 15.0267 38.9253 15.4267 38.9253 15.896V21H37.4213V15.896C37.4213 15.416 37.3359 15.0107 37.1653 14.68C36.9946 14.3493 36.7599 14.0933 36.4613 13.912C36.1733 13.72 35.8319 13.624 35.4373 13.624C35.0533 13.624 34.7066 13.72 34.3973 13.912C34.0986 14.0933 33.8586 14.3547 33.6773 14.696C33.5066 15.0267 33.4213 15.4267 33.4213 15.896V21H31.9333ZM50.5106 21.192C49.6786 21.192 48.9373 20.9947 48.2866 20.6C47.636 20.2053 47.124 19.6667 46.7506 18.984C46.3773 18.2907 46.1906 17.5173 46.1906 16.664C46.1906 15.8 46.372 15.032 46.7346 14.36C47.108 13.688 47.6093 13.16 48.2386 12.776C48.8786 12.3813 49.5933 12.184 50.3826 12.184C51.0226 12.184 51.588 12.3013 52.0786 12.536C52.58 12.76 53.0013 13.0693 53.3426 13.464C53.6946 13.848 53.9613 14.2907 54.1426 14.792C54.3346 15.2827 54.4306 15.7947 54.4306 16.328C54.4306 16.4453 54.42 16.5787 54.3986 16.728C54.388 16.8667 54.372 17 54.3506 17.128H47.2786V15.848H53.4866L52.7826 16.424C52.8786 15.8693 52.8253 15.3733 52.6226 14.936C52.42 14.4987 52.1213 14.152 51.7266 13.896C51.332 13.64 50.884 13.512 50.3826 13.512C49.8813 13.512 49.4226 13.64 49.0066 13.896C48.5906 14.152 48.2653 14.52 48.0306 15C47.8066 15.4693 47.716 16.0293 47.7586 16.68C47.716 17.3093 47.812 17.864 48.0466 18.344C48.292 18.8133 48.6333 19.1813 49.0706 19.448C49.5186 19.704 50.004 19.832 50.5266 19.832C51.1026 19.832 51.588 19.6987 51.9826 19.432C52.3773 19.1653 52.6973 18.824 52.9426 18.408L54.1906 19.048C54.02 19.4427 53.7533 19.8053 53.3906 20.136C53.0386 20.456 52.6173 20.712 52.1266 20.904C51.6466 21.096 51.108 21.192 50.5106 21.192ZM60.2908 21.192C59.4801 21.192 58.7494 20.9947 58.0988 20.6C57.4588 20.2053 56.9521 19.6667 56.5788 18.984C56.2054 18.3013 56.0188 17.5387 56.0188 16.696C56.0188 15.832 56.2054 15.064 56.5788 14.392C56.9521 13.7093 57.4588 13.1707 58.0988 12.776C58.7494 12.3813 59.4801 12.184 60.2908 12.184C61.0054 12.184 61.6401 12.3387 62.1948 12.648C62.7494 12.9467 63.1868 13.352 63.5068 13.864L63.2668 14.232V8.888H64.7708V21H63.3148V19.16L63.5068 19.416C63.2081 19.9813 62.7708 20.4187 62.1948 20.728C61.6294 21.0373 60.9948 21.192 60.2908 21.192ZM60.4188 19.752C60.9628 19.752 61.4481 19.6187 61.8748 19.352C62.3014 19.0853 62.6374 18.7227 62.8828 18.264C63.1388 17.7947 63.2668 17.272 63.2668 16.696C63.2668 16.1093 63.1388 15.5867 62.8828 15.128C62.6374 14.6587 62.3014 14.2907 61.8748 14.024C61.4481 13.7573 60.9628 13.624 60.4188 13.624C59.8854 13.624 59.4001 13.7627 58.9628 14.04C58.5361 14.3067 58.2001 14.6693 57.9548 15.128C57.7094 15.576 57.5868 16.0987 57.5868 16.696C57.5868 17.272 57.7094 17.7947 57.9548 18.264C58.2001 18.7227 58.5361 19.0853 58.9628 19.352C59.3894 19.6187 59.8748 19.752 60.4188 19.752ZM67.5379 24.52C67.3459 24.52 67.1539 24.504 66.9619 24.472C66.7699 24.4507 66.5885 24.4027 66.4179 24.328V23C66.5352 23.0107 66.6792 23.032 66.8499 23.064C67.0312 23.096 67.2072 23.112 67.3779 23.112C67.8792 23.112 68.2579 23 68.5139 22.776C68.7805 22.552 69.0312 22.1733 69.2659 21.64L69.8099 20.344L69.7779 21.64L66.0979 12.376H67.7139L70.5779 19.736H70.0979L72.9459 12.376H74.5939L70.7059 22.024C70.5245 22.4827 70.2899 22.904 70.0019 23.288C69.7245 23.672 69.3832 23.9707 68.9779 24.184C68.5725 24.408 68.0925 24.52 67.5379 24.52Z" fill="#EFA71B"/>
</svg>
