<svg width="361" height="323" viewBox="0 0 361 323" fill="none" xmlns="http://www.w3.org/2000/svg">
<path d="M311.1 36.3637C305.041 33.0532 302.294 35.8104 300.09 33.0532C297.886 30.2959 306.148 23.1405 289.595 15.985C289.595 15.985 288.498 0.56739 265.915 0.0140352C243.333 -0.53932 249.42 15.4317 243.361 19.2861C237.303 23.1405 235.653 17.1203 229.594 20.9366C223.536 24.7528 226.293 32.4998 221.342 33.597C216.39 34.6941 209.769 28.6454 203.711 32.4998C197.652 36.3542 197.652 39.6553 194.905 39.6553C192.157 39.6553 186.642 37.4514 183.341 39.6553C180.04 41.8591 176.176 44.6164 176.176 44.6164H315.469C315.469 44.6164 317.158 39.6648 311.1 36.3637Z" fill="#1EC0C4"/>
<path opacity="0.5" d="M311.1 36.3637C305.041 33.0532 302.294 35.8104 300.09 33.0532C297.886 30.2959 306.148 23.1405 289.595 15.985C289.595 15.985 288.498 0.56739 265.915 0.0140352C243.333 -0.53932 249.42 15.4317 243.361 19.2861C237.303 23.1405 235.653 17.1203 229.594 20.9366C223.536 24.7528 226.293 32.4998 221.342 33.597C216.39 34.6941 209.769 28.6454 203.711 32.4998C197.652 36.3542 197.652 39.6553 194.905 39.6553C192.157 39.6553 186.642 37.4514 183.341 39.6553C180.04 41.8591 176.176 44.6164 176.176 44.6164H315.469C315.469 44.6164 317.158 39.6648 311.1 36.3637Z" fill="white"/>
<path d="M153.136 160.134C148.881 157.816 146.944 159.743 145.398 157.816C143.853 155.888 149.654 150.851 138.052 145.823C138.052 145.823 137.279 134.994 121.413 134.603C105.547 134.212 109.812 145.432 105.557 148.141C101.302 150.851 100.147 146.596 95.8923 149.305C91.6371 152.015 93.5644 157.424 90.0916 158.197C86.6188 158.97 81.963 154.715 77.6888 157.424C73.4146 160.134 73.4337 162.452 71.5065 162.452C69.5793 162.452 65.6962 160.907 63.3779 162.452C61.0595 163.998 58.35 165.935 58.35 165.935H156.227C156.227 165.935 157.391 162.452 153.136 160.134Z" fill="white"/>
<path opacity="0.5" d="M153.136 160.134C148.881 157.816 146.944 159.743 145.398 157.816C143.853 155.888 149.654 150.851 138.052 145.823C138.052 145.823 137.279 134.994 121.413 134.603C105.547 134.212 109.812 145.432 105.557 148.141C101.302 150.851 100.147 146.596 95.8923 149.305C91.6371 152.015 93.5644 157.424 90.0916 158.197C86.6188 158.97 81.963 154.715 77.6888 157.424C73.4146 160.134 73.4337 162.452 71.5065 162.452C69.5793 162.452 65.6962 160.907 63.3779 162.452C61.0595 163.998 58.35 165.935 58.35 165.935H156.227C156.227 165.935 157.391 162.452 153.136 160.134Z" fill="white"/>
<path d="M274.101 321.342H334.398C333.244 313.967 328.502 315.264 327.872 303.835C327.557 298.11 332.891 290.955 332.423 283.399C332.041 277.169 325.907 270.786 325.43 263.659C325 257.229 330.2 250.092 329.733 243.166C329.246 236.621 323.054 230.334 322.472 223.522C321.938 216.843 327.071 209.678 326.46 202.962C325.85 196.245 319.524 190.073 318.828 183.451C318.131 176.649 323.102 169.322 322.339 162.815C321.537 155.898 315.011 149.926 314.124 143.553C313.17 136.464 317.759 128.889 316.681 122.764C315.355 115.265 308.371 109.836 306.902 104.302C304.164 93.9891 304.507 84.0573 301.273 83.4085C297.829 82.7216 297.037 92.4626 294.423 103.348C293.106 108.815 286.285 114.358 285.159 121.867C284.252 127.944 289.08 135.338 288.288 142.398C287.582 148.724 281.219 154.801 280.598 161.68C280.016 168.148 285.178 175.275 284.672 182.039C284.176 188.613 277.994 194.881 277.584 201.559C277.173 208.238 282.478 215.222 282.115 221.814C281.743 228.569 275.685 234.952 275.37 241.449C275.046 248.327 280.474 255.264 280.207 261.637C279.912 268.706 273.939 275.175 273.72 281.357C273.453 288.856 278.957 295.773 278.786 301.488C278.423 313.891 272.747 311.305 272.546 321.285L274.101 321.342Z" fill="#1EC0C4"/>
<path d="M299.985 103.224V318.556" stroke="black" stroke-width="1.24967" stroke-miterlimit="10"/>
<path d="M309.402 125.797L299.584 134.279L291.551 123.565" stroke="black" stroke-width="1.24967" stroke-miterlimit="10"/>
<path d="M309.402 163.283L299.584 171.755L291.551 161.05" stroke="black" stroke-width="1.24967" stroke-miterlimit="10"/>
<path d="M309.402 198.525L299.584 207.007L291.551 196.293" stroke="black" stroke-width="1.24967" stroke-miterlimit="10"/>
<path d="M309.402 240.475L299.584 248.947L291.551 238.243" stroke="black" stroke-width="1.24967" stroke-miterlimit="10"/>
<path d="M309.402 282.864L299.584 291.336L291.551 280.632" stroke="black" stroke-width="1.24967" stroke-miterlimit="10"/>
<path d="M233.029 321.342H279.578C278.681 315.617 275.027 316.648 274.54 307.832C274.292 303.386 278.404 297.891 278.051 292.052C277.755 287.282 273.023 282.311 272.651 276.787C272.317 271.826 276.362 266.292 275.971 260.969C275.599 255.912 270.8 251.065 270.371 245.809C269.942 240.552 273.92 235.114 273.453 229.933C272.985 224.752 268.091 219.982 267.576 214.878C267.041 209.621 270.877 203.973 270.285 198.936C269.665 193.602 264.627 188.994 263.95 184.081C263.187 178.605 266.755 172.756 265.915 168.034C264.895 162.242 259.504 158.045 258.378 153.78C256.26 145.823 256.527 138.143 254.028 137.647C251.366 137.112 250.755 144.63 248.742 153.045C247.731 157.262 242.455 161.546 241.587 167.356C240.89 172.05 244.611 177.755 244.001 183.203C243.457 188.088 238.553 192.744 238.066 198.086C237.618 203.076 241.606 208.581 241.215 213.8C240.833 218.875 236.072 223.713 235.739 228.864C235.405 234.016 239.555 239.416 239.24 244.502C238.925 249.587 234.279 254.643 234.04 259.662C233.783 264.966 237.971 270.318 237.771 275.241C237.542 280.699 232.934 285.736 232.762 290.506C232.552 296.288 236.807 301.64 236.673 306.038C236.387 315.579 232.008 313.623 231.855 321.303L233.029 321.342Z" fill="#1EC0C4"/>
<path d="M253.017 152.979V319.195" stroke="black" stroke-width="1.24967" stroke-miterlimit="10"/>
<path d="M260.277 170.4L252.702 176.945L246.5 168.673" stroke="black" stroke-width="1.24967" stroke-miterlimit="10"/>
<path d="M260.277 199.327L252.702 205.872L246.5 197.609" stroke="black" stroke-width="1.24967" stroke-miterlimit="10"/>
<path d="M260.277 226.537L252.702 233.081L246.5 224.819" stroke="black" stroke-width="1.24967" stroke-miterlimit="10"/>
<path d="M260.277 258.918L252.702 265.462L246.5 257.191" stroke="black" stroke-width="1.24967" stroke-miterlimit="10"/>
<path d="M260.277 291.642L252.702 298.177L246.5 289.915" stroke="black" stroke-width="1.24967" stroke-miterlimit="10"/>
<path d="M191.537 320.893V128.001H201.717V320.893" fill="#2E353A"/>
<path d="M191.537 320.893V128.001H201.717V320.893" stroke="#2E353A" stroke-width="1.24967" stroke-linecap="round" stroke-linejoin="round"/>
<path d="M186.452 320.893V128.001H196.632V320.893" fill="#1EC0C4"/>
<path d="M186.452 320.893V128.001H196.632V320.893" stroke="#2E353A" stroke-width="1.24967" stroke-linecap="round" stroke-linejoin="round"/>
<g style="mix-blend-mode:multiply" opacity="0.3">
<path d="M196.632 128.001H186.452V150.899H196.632V128.001Z" fill="#2E353A"/>
</g>
<path d="M229.89 52.6973H154.462L187.339 133.449H262.777V85.5742C262.777 81.2559 261.926 76.98 260.273 72.9905C258.62 69.0011 256.198 65.3764 253.144 62.3233C250.09 59.2703 246.464 56.8488 242.474 55.1971C238.485 53.5455 234.208 52.696 229.89 52.6973Z" fill="#1EC0C4" stroke="#2E353A" stroke-width="1.24967" stroke-linecap="round" stroke-linejoin="round"/>
<g style="mix-blend-mode:multiply" opacity="0.3">
<path d="M181.586 119.31L187.31 133.449H262.777V85.5742C262.777 84.8491 262.777 84.124 262.7 83.4084H181.605L181.586 119.31Z" fill="black"/>
</g>
<path d="M229.337 83.4084H221.399" stroke="#2E353A" stroke-width="1.24967" stroke-linecap="round" stroke-linejoin="round"/>
<path d="M262.7 83.4084H238.677" stroke="#2E353A" stroke-width="1.24967" stroke-linecap="round" stroke-linejoin="round"/>
<path d="M154.462 52.6973C163.184 52.6973 171.549 56.1621 177.716 62.3295C183.884 68.4969 187.349 76.8617 187.349 85.5837V133.459H121.576V85.5742C121.578 76.8538 125.044 68.4915 131.211 62.3261C137.378 56.1608 145.742 52.6973 154.462 52.6973Z" fill="#2E353A" stroke="#2E353A" stroke-width="1.24967" stroke-linecap="round" stroke-linejoin="round"/>
<path d="M187.339 128.001H130.668V133.449H187.339V128.001Z" fill="#1EC0C4" stroke="#2E353A" stroke-width="1.24967" stroke-linecap="round" stroke-linejoin="round"/>
<path d="M187.339 128.001H70.0563V133.449H187.339V128.001Z" fill="#1EC0C4" stroke="#2E353A" stroke-width="1.24967" stroke-linecap="round" stroke-linejoin="round"/>
<path opacity="0.3" d="M187.339 128.001H130.668V133.449H187.339V128.001Z" fill="black"/>
<path d="M234.794 33.2344H211.257V49.7682H234.794V33.2344Z" fill="#2E353A" stroke="#2E353A" stroke-width="1.24967" stroke-linecap="round" stroke-linejoin="round"/>
<path d="M213.165 33.2344H208.08V84.7537H213.165V33.2344Z" fill="white" stroke="#2E353A" stroke-width="1.24967" stroke-linecap="round" stroke-linejoin="round"/>
<path d="M210.618 91.7468C213.78 91.7468 216.342 89.1839 216.342 86.0225C216.342 82.861 213.78 80.2981 210.618 80.2981C207.457 80.2981 204.894 82.861 204.894 86.0225C204.894 89.1839 207.457 91.7468 210.618 91.7468Z" fill="#2E353A" stroke="#2E353A" stroke-width="1.24967" stroke-linecap="round" stroke-linejoin="round"/>
<path d="M126.67 65.9207C139.951 72.6659 163.039 83.4754 184.334 88.9135" stroke="white" stroke-width="1.24967" stroke-linecap="round" stroke-linejoin="round" stroke-dasharray="2.5 5"/>
<path d="M115.527 60.0532C115.527 60.0532 119.782 62.4575 126.67 65.9589" stroke="#2E353A" stroke-width="1.24967" stroke-linecap="round" stroke-linejoin="round" stroke-dasharray="2.5 5"/>
<path d="M110.747 59.7002L120.297 37.0126L51.0419 20.1162L110.747 59.7002Z" fill="white" stroke="#2E353A" stroke-width="1.57821" stroke-linecap="round" stroke-linejoin="round"/>
<path d="M115.403 39.7603L110.747 59.7002L51.0419 20.1162L115.403 39.7603Z" fill="#1EC0C4" stroke="#2E353A" stroke-width="1.57821" stroke-linecap="round" stroke-linejoin="round"/>
<path d="M115.403 39.7603L104.536 49.072L51.0419 20.1162L115.403 39.7603Z" fill="white" stroke="#2E353A" stroke-width="1.57821" stroke-linecap="round" stroke-linejoin="round"/>
<path d="M120.297 37.0126L129.971 33.0819L51.0419 20.1162L120.297 37.0126Z" fill="white" stroke="#2E353A" stroke-width="1.57821" stroke-linecap="round" stroke-linejoin="round"/>
<path d="M97.2947 56.1704L99.5368 57.5443" stroke="#2E353A" stroke-width="1.24967" stroke-linecap="round" stroke-linejoin="round"/>
<path d="M85.0637 48.6714L92.5722 53.27" stroke="#2E353A" stroke-width="1.24967" stroke-linecap="round" stroke-linejoin="round"/>
<path d="M76.6298 103.129V78.5237L147.02 89.8388L76.6298 103.129Z" fill="white" stroke="#2E353A" stroke-width="1.57821" stroke-linecap="round" stroke-linejoin="round"/>
<path d="M80.0739 82.9507L76.6298 103.129L147.02 89.839L80.0739 82.9507Z" fill="#1EC0C4" stroke="#2E353A" stroke-width="1.57821" stroke-linecap="round" stroke-linejoin="round"/>
<path d="M80.0739 82.9507L86.4757 95.7446L147.02 89.839L80.0739 82.9507Z" fill="white" stroke="#2E353A" stroke-width="1.57821" stroke-linecap="round" stroke-linejoin="round"/>
<path d="M76.6298 78.5236L69.2453 71.1392L147.02 89.8388L76.6298 78.5236Z" fill="white" stroke="#2E353A" stroke-width="1.57821" stroke-linecap="round" stroke-linejoin="round"/>
<path d="M101.836 102.671L107.942 101.431" stroke="#2E353A" stroke-width="1.24967" stroke-linecap="round" stroke-linejoin="round"/>
<path d="M80.3888 107.031L95.7396 103.911" stroke="#2E353A" stroke-width="1.24967" stroke-linecap="round" stroke-linejoin="round"/>
<path d="M68.1482 101.612C68.1482 101.612 12.8127 111.153 2.31798 160.764C-8.17668 210.375 47.1588 213.237 56.6994 189.386C66.24 165.534 24.2614 155.994 14.7208 178.891C5.18017 201.789 33.802 240.905 72.9185 242.813C105.423 244.397 196.555 206.454 253.236 196.866C253.236 196.866 295.215 185.245 360.091 187.793" stroke="#2E353A" stroke-width="1.24967" stroke-linecap="round" stroke-linejoin="round" stroke-dasharray="2.5 5"/>
<path d="M341.324 257.124H357.229" stroke="#2E353A" stroke-width="1.24967" stroke-linecap="round" stroke-linejoin="round"/>
<path d="M341.324 280.651H357.229" stroke="#2E353A" stroke-width="1.24967" stroke-linecap="round" stroke-linejoin="round"/>
<path d="M6.44904 280.021H339.416V257.754H6.44904" fill="white"/>
<path d="M6.44904 280.021H339.416V257.754H6.44904" stroke="#2E353A" stroke-width="1.24967" stroke-linecap="round" stroke-linejoin="round"/>
<path d="M29.5945 321.046V209.02C29.5947 208.745 29.6506 208.474 29.7589 208.221C29.8671 207.969 30.0254 207.741 30.2242 207.551L38.9253 199.356C39.3171 198.989 39.8379 198.793 40.374 198.809C40.9102 198.825 41.4183 199.052 41.7874 199.441L49.4199 207.56C49.7662 207.938 49.96 208.431 49.9637 208.944V321.046" fill="#2E353A"/>
<path d="M29.5945 321.046V209.02C29.5947 208.745 29.6506 208.474 29.7589 208.221C29.8671 207.969 30.0254 207.741 30.2242 207.551L38.9253 199.356C39.3171 198.989 39.8379 198.793 40.374 198.809C40.9102 198.825 41.4183 199.052 41.7874 199.441L49.4199 207.56C49.7662 207.938 49.96 208.431 49.9637 208.944V321.046" stroke="#2E353A" stroke-width="1.24967" stroke-linecap="round" stroke-linejoin="round"/>
<path d="M27.1235 322V209.02C27.1233 208.745 27.1799 208.472 27.2899 208.219C27.3999 207.966 27.5609 207.739 27.7628 207.551L36.4638 199.356C36.6572 199.173 36.8848 199.03 37.1334 198.936C37.382 198.841 37.6468 198.797 37.9127 198.805C38.1786 198.813 38.4402 198.873 38.6827 198.982C38.9252 199.092 39.1438 199.248 39.326 199.441L46.9585 207.561C47.3087 207.936 47.5032 208.43 47.5023 208.944V322" fill="white"/>
<path d="M27.1235 322V209.02C27.1233 208.745 27.1799 208.472 27.2899 208.219C27.3999 207.966 27.5609 207.739 27.7628 207.551L36.4638 199.356C36.6572 199.173 36.8848 199.03 37.1334 198.936C37.382 198.841 37.6468 198.797 37.9127 198.805C38.1786 198.813 38.4402 198.873 38.6827 198.982C38.9252 199.092 39.1438 199.248 39.326 199.441L46.9585 207.561C47.3087 207.936 47.5032 208.43 47.5023 208.944V322" stroke="#2E353A" stroke-width="1.24967" stroke-linecap="round" stroke-linejoin="round"/>
<path d="M102.962 321.046V209.02C102.962 208.746 103.018 208.474 103.126 208.221C103.234 207.969 103.393 207.741 103.591 207.551L112.302 199.356C112.496 199.173 112.723 199.03 112.972 198.936C113.22 198.841 113.485 198.797 113.751 198.805C114.017 198.813 114.279 198.873 114.521 198.982C114.764 199.092 114.982 199.248 115.164 199.441L122.797 207.561C123.147 207.936 123.341 208.43 123.341 208.944V321.046" fill="#2E353A"/>
<path d="M102.962 321.046V209.02C102.962 208.746 103.018 208.474 103.126 208.221C103.234 207.969 103.393 207.741 103.591 207.551L112.302 199.356C112.496 199.173 112.723 199.03 112.972 198.936C113.22 198.841 113.485 198.797 113.751 198.805C114.017 198.813 114.279 198.873 114.521 198.982C114.764 199.092 114.982 199.248 115.164 199.441L122.797 207.561C123.147 207.936 123.341 208.43 123.341 208.944V321.046" stroke="#2E353A" stroke-width="1.24967" stroke-linecap="round" stroke-linejoin="round"/>
<path d="M100.901 322V209.02C100.901 208.745 100.957 208.472 101.067 208.219C101.177 207.966 101.338 207.739 101.54 207.551L110.241 199.356C110.633 198.989 111.154 198.793 111.69 198.809C112.226 198.825 112.734 199.052 113.103 199.441L120.736 207.56C121.089 207.935 121.287 208.429 121.289 208.944V322" fill="white"/>
<path d="M100.901 322V209.02C100.901 208.745 100.957 208.472 101.067 208.219C101.177 207.966 101.338 207.739 101.54 207.551L110.241 199.356C110.633 198.989 111.154 198.793 111.69 198.809C112.226 198.825 112.734 199.052 113.103 199.441L120.736 207.56C121.089 207.935 121.287 208.429 121.289 208.944V322" stroke="#2E353A" stroke-width="1.24967" stroke-linecap="round" stroke-linejoin="round"/>
<path d="M176.739 321.046V209.02C176.739 208.745 176.796 208.472 176.906 208.219C177.016 207.966 177.177 207.739 177.379 207.551L186.08 199.356C186.471 198.989 186.992 198.793 187.528 198.809C188.065 198.825 188.573 199.052 188.942 199.441L196.574 207.56C196.927 207.935 197.125 208.429 197.128 208.944V322" fill="#2E353A"/>
<path d="M176.739 321.046V209.02C176.739 208.745 176.796 208.472 176.906 208.219C177.016 207.966 177.177 207.739 177.379 207.551L186.08 199.356C186.471 198.989 186.992 198.793 187.528 198.809C188.065 198.825 188.573 199.052 188.942 199.441L196.574 207.56C196.927 207.935 197.125 208.429 197.128 208.944V322" stroke="#2E353A" stroke-width="1.24967" stroke-linecap="round" stroke-linejoin="round"/>
<path d="M174.688 322V209.02C174.688 208.746 174.744 208.474 174.852 208.221C174.961 207.969 175.119 207.741 175.318 207.551L184.028 199.356C184.222 199.173 184.449 199.03 184.698 198.936C184.947 198.841 185.211 198.797 185.477 198.805C185.743 198.813 186.005 198.873 186.247 198.982C186.49 199.092 186.708 199.248 186.891 199.441L194.523 207.561C194.873 207.936 195.068 208.43 195.067 208.944V322" fill="white"/>
<path d="M174.688 322V209.02C174.688 208.746 174.744 208.474 174.852 208.221C174.961 207.969 175.119 207.741 175.318 207.551L184.028 199.356C184.222 199.173 184.449 199.03 184.698 198.936C184.947 198.841 185.211 198.797 185.477 198.805C185.743 198.813 186.005 198.873 186.247 198.982C186.49 199.092 186.708 199.248 186.891 199.441L194.523 207.561C194.873 207.936 195.068 208.43 195.067 208.944V322" stroke="#2E353A" stroke-width="1.24967" stroke-linecap="round" stroke-linejoin="round"/>
<path d="M250.526 321.046V209.02C250.527 208.745 250.582 208.474 250.691 208.221C250.799 207.969 250.957 207.741 251.156 207.551L259.857 199.356C260.249 198.989 260.77 198.793 261.306 198.809C261.842 198.825 262.35 199.052 262.719 199.441L270.352 207.56C270.698 207.938 270.892 208.431 270.896 208.944V321.046" fill="#2E353A"/>
<path d="M250.526 321.046V209.02C250.527 208.745 250.582 208.474 250.691 208.221C250.799 207.969 250.957 207.741 251.156 207.551L259.857 199.356C260.249 198.989 260.77 198.793 261.306 198.809C261.842 198.825 262.35 199.052 262.719 199.441L270.352 207.56C270.698 207.938 270.892 208.431 270.896 208.944V321.046" stroke="#2E353A" stroke-width="1.24967" stroke-linecap="round" stroke-linejoin="round"/>
<path d="M248.466 322V209.02C248.465 208.745 248.522 208.472 248.632 208.219C248.742 207.966 248.903 207.739 249.105 207.551L257.806 199.356C257.999 199.173 258.227 199.03 258.476 198.936C258.724 198.841 258.989 198.797 259.255 198.805C259.521 198.813 259.782 198.873 260.025 198.982C260.267 199.092 260.486 199.248 260.668 199.441L268.301 207.561C268.651 207.936 268.845 208.43 268.844 208.944V322" fill="white"/>
<path d="M248.466 322V209.02C248.465 208.745 248.522 208.472 248.632 208.219C248.742 207.966 248.903 207.739 249.105 207.551L257.806 199.356C257.999 199.173 258.227 199.03 258.476 198.936C258.724 198.841 258.989 198.797 259.255 198.805C259.521 198.813 259.782 198.873 260.025 198.982C260.267 199.092 260.486 199.248 260.668 199.441L268.301 207.561C268.651 207.936 268.845 208.43 268.844 208.944V322" stroke="#2E353A" stroke-width="1.24967" stroke-linecap="round" stroke-linejoin="round"/>
<path d="M324.304 321.046V209.02C324.304 208.746 324.36 208.474 324.468 208.221C324.576 207.969 324.735 207.741 324.934 207.551L333.644 199.356C333.838 199.173 334.065 199.03 334.314 198.936C334.562 198.841 334.827 198.797 335.093 198.805C335.359 198.813 335.621 198.873 335.863 198.982C336.106 199.092 336.324 199.248 336.506 199.441L344.139 207.561C344.489 207.936 344.684 208.43 344.683 208.944V321.046" fill="#2E353A"/>
<path d="M324.304 321.046V209.02C324.304 208.746 324.36 208.474 324.468 208.221C324.576 207.969 324.735 207.741 324.934 207.551L333.644 199.356C333.838 199.173 334.065 199.03 334.314 198.936C334.562 198.841 334.827 198.797 335.093 198.805C335.359 198.813 335.621 198.873 335.863 198.982C336.106 199.092 336.324 199.248 336.506 199.441L344.139 207.561C344.489 207.936 344.684 208.43 344.683 208.944V321.046" stroke="#2E353A" stroke-width="1.24967" stroke-linecap="round" stroke-linejoin="round"/>
<path d="M322.243 322V209.02C322.243 208.745 322.3 208.472 322.41 208.219C322.52 207.966 322.68 207.739 322.882 207.551L331.583 199.356C331.975 198.989 332.496 198.793 333.032 198.809C333.568 198.825 334.076 199.052 334.446 199.441L342.078 207.56C342.431 207.935 342.629 208.429 342.631 208.944V322" fill="white"/>
<path d="M322.243 322V209.02C322.243 208.745 322.3 208.472 322.41 208.219C322.52 207.966 322.68 207.739 322.882 207.551L331.583 199.356C331.975 198.989 332.496 198.793 333.032 198.809C333.568 198.825 334.076 199.052 334.446 199.441L342.078 207.56C342.431 207.935 342.629 208.429 342.631 208.944V322" stroke="#2E353A" stroke-width="1.24967" stroke-linecap="round" stroke-linejoin="round"/>
<path d="M39.3164 199.441V207.608" stroke="#2E353A" stroke-width="1.24967" stroke-linecap="round" stroke-linejoin="round"/>
<path d="M42.5889 203.658V222.987" stroke="#2E353A" stroke-width="1.24967" stroke-linecap="round" stroke-linejoin="round"/>
<path d="M104.918 205.242V229.695" stroke="#2E353A" stroke-width="1.24967" stroke-linecap="round" stroke-linejoin="round"/>
<path d="M108.076 202.084V212.731" stroke="#2E353A" stroke-width="1.24967" stroke-linecap="round" stroke-linejoin="round"/>
<path d="M184.028 199.355V223.388" stroke="#2E353A" stroke-width="1.24967" stroke-linecap="round" stroke-linejoin="round"/>
<path d="M188.56 201.292V236.802" stroke="#2E353A" stroke-width="1.24967" stroke-linecap="round" stroke-linejoin="round"/>
<path d="M252.072 205.242V232.061" stroke="#2E353A" stroke-width="1.24967" stroke-linecap="round" stroke-linejoin="round"/>
<path d="M262.328 202.084V208.791" stroke="#2E353A" stroke-width="1.24967" stroke-linecap="round" stroke-linejoin="round"/>
<path d="M328.998 201.683V215.889" stroke="#2E353A" stroke-width="1.24967" stroke-linecap="round" stroke-linejoin="round"/>
<path d="M337.68 203.267V244.292" stroke="#2E353A" stroke-width="1.24967" stroke-linecap="round" stroke-linejoin="round"/>
<path d="M321.9 263.23H313.218" stroke="#2E353A" stroke-width="1.24967" stroke-linecap="round" stroke-linejoin="round"/>
<path d="M321.9 269.937H291.522" stroke="#2E353A" stroke-width="1.24967" stroke-linecap="round" stroke-linejoin="round"/>
<path d="M208.672 269.937H194.866" stroke="#2E353A" stroke-width="1.24967" stroke-linecap="round" stroke-linejoin="round"/>
<path d="M136.087 269.937H122.282" stroke="#2E353A" stroke-width="1.24967" stroke-linecap="round" stroke-linejoin="round"/>
<path d="M26.8087 266.388H13.0034" stroke="#2E353A" stroke-width="1.24967" stroke-linecap="round" stroke-linejoin="round"/>
<path d="M26.8087 272.694H21.2847" stroke="#2E353A" stroke-width="1.24967" stroke-linecap="round" stroke-linejoin="round"/>
<path d="M201.574 266.388H194.866" stroke="#2E353A" stroke-width="1.24967" stroke-linecap="round" stroke-linejoin="round"/>
<path d="M128.197 273.877H121.49" stroke="#2E353A" stroke-width="1.24967" stroke-linecap="round" stroke-linejoin="round"/>
<path d="M100.185 273.877H93.4785" stroke="#2E353A" stroke-width="1.24967" stroke-linecap="round" stroke-linejoin="round"/>
<path d="M348.718 269.937H342.803" stroke="#2E353A" stroke-width="1.24967" stroke-linecap="round" stroke-linejoin="round"/>
<path d="M356.608 269.937H353.059" stroke="#2E353A" stroke-width="1.24967" stroke-linecap="round" stroke-linejoin="round"/>
<path d="M47.1588 228.922C47.1588 228.922 44.7737 249.424 41.9115 270.404C39.0493 291.384 44.2967 312.85 45.7278 314.758" stroke="#2E353A" stroke-width="1.24967" stroke-linecap="round" stroke-linejoin="round"/>
<path d="M37.7232 270.424C38.1811 266.331 38.5627 263.745 38.5627 263.745" stroke="#2E353A" stroke-width="1.24967" stroke-linecap="round" stroke-linejoin="round"/>
<path d="M44.7641 312.373C44.7641 312.373 36.1776 310.465 36.1776 295.2C36.1776 288.932 36.5783 282.511 37.0553 277.073" stroke="#2E353A" stroke-width="1.24967" stroke-linecap="round" stroke-linejoin="round"/>
<path d="M116.805 204.593C116.805 204.593 118.713 206.024 115.374 222.243C112.035 238.462 112.512 262.314 116.805 275.671" stroke="#2E353A" stroke-width="1.24967" stroke-linecap="round" stroke-linejoin="round"/>
<path d="M121.576 234.646C121.576 234.646 116.805 248.957 120.144 268.992" stroke="#2E353A" stroke-width="1.24967" stroke-linecap="round" stroke-linejoin="round"/>
<path d="M175.957 243.7C175.957 243.7 178.342 257.534 180.727 271.835C183.112 286.137 181.204 306.182 179.296 311.419C177.388 316.657 175.48 320.96 175.48 320.96" stroke="#2E353A" stroke-width="1.24967" stroke-linecap="round" stroke-linejoin="round"/>
<path d="M184.944 313.948C182.817 320.474 180.174 312.851 180.174 312.851" stroke="#2E353A" stroke-width="1.24967" stroke-linecap="round" stroke-linejoin="round"/>
<path d="M184.858 265.176C184.858 265.176 189.352 288.369 186.814 305.829" stroke="#2E353A" stroke-width="1.24967" stroke-linecap="round" stroke-linejoin="round"/>
<path d="M175.003 272.809C175.003 272.809 179.773 282.826 175.48 292.367" stroke="#2E353A" stroke-width="1.24967" stroke-linecap="round" stroke-linejoin="round"/>
<path d="M264.017 274.22C264.655 277.137 265.494 280.006 266.526 282.807" stroke="#2E353A" stroke-width="1.24967" stroke-linecap="round" stroke-linejoin="round"/>
<path d="M267.957 224.629C264.93 234.237 263.009 244.16 262.233 254.205C261.948 259.286 262.233 264.384 263.082 269.403" stroke="#2E353A" stroke-width="1.24967" stroke-linecap="round" stroke-linejoin="round"/>
<path d="M258.893 268.496C258.893 268.496 263.187 284.715 265.572 290.44C267.957 296.164 267.003 309.988 264.141 316.667" stroke="#2E353A" stroke-width="1.24967" stroke-linecap="round" stroke-linejoin="round"/>
<path d="M323.274 231.784C323.274 231.784 332.814 248.957 323.751 277.093" stroke="#2E353A" stroke-width="1.24967" stroke-linecap="round" stroke-linejoin="round"/>
<path d="M332.041 261.112C332.099 266.474 331.622 273.267 329.475 278.991C325.182 290.44 323.274 294.256 323.274 294.256" stroke="#2E353A" stroke-width="1.24967" stroke-linecap="round" stroke-linejoin="round"/>
<path d="M331.383 251.819C331.383 251.819 331.698 253.87 331.889 257.028" stroke="#2E353A" stroke-width="1.24967" stroke-linecap="round" stroke-linejoin="round"/>
</svg>
