<svg width="240" height="207" viewBox="0 0 240 207" fill="none" xmlns="http://www.w3.org/2000/svg">
<path d="M120.434 206.03C186.287 206.03 239.672 204.543 239.672 202.708C239.672 200.874 186.287 199.386 120.434 199.386C54.5803 199.386 1.19566 200.874 1.19566 202.708C1.19566 204.543 54.5803 206.03 120.434 206.03Z" fill="#2E353A"/>
<path d="M180.84 199.681H169.808V0.871094L180.84 13.6989V199.681Z" stroke="#2E353A" stroke-width="0.38436" stroke-linecap="round" stroke-linejoin="round"/>
<path d="M169.912 152.868H180.736L169.912 142.406H180.736L169.912 152.868Z" stroke="#2E353A" stroke-width="0.38436" stroke-linecap="round" stroke-linejoin="round"/>
<path d="M169.912 142.142H180.736L169.912 131.68H180.736L169.912 142.142Z" stroke="#2E353A" stroke-width="0.38436" stroke-linecap="round" stroke-linejoin="round"/>
<path d="M169.912 174.227H180.736L169.912 163.765H180.736L169.912 174.227Z" stroke="#2E353A" stroke-width="0.38436" stroke-linecap="round" stroke-linejoin="round"/>
<path d="M169.912 163.502H180.736L169.912 153.04H180.736L169.912 163.502Z" stroke="#2E353A" stroke-width="0.38436" stroke-linecap="round" stroke-linejoin="round"/>
<path d="M169.912 131.417H180.736L169.912 120.955H180.736L169.912 131.417Z" stroke="#2E353A" stroke-width="0.38436" stroke-linecap="round" stroke-linejoin="round"/>
<path d="M169.912 120.691H180.736L169.912 110.229H180.736L169.912 120.691Z" stroke="#2E353A" stroke-width="0.38436" stroke-linecap="round" stroke-linejoin="round"/>
<path d="M169.912 109.966H180.736L169.912 99.5037H180.736L169.912 109.966Z" stroke="#2E353A" stroke-width="0.38436" stroke-linecap="round" stroke-linejoin="round"/>
<path d="M169.912 99.2399H180.736L169.912 88.7778H180.736L169.912 99.2399Z" stroke="#2E353A" stroke-width="0.38436" stroke-linecap="round" stroke-linejoin="round"/>
<path d="M169.912 88.5145H180.736L169.912 78.0525H180.736L169.912 88.5145Z" stroke="#2E353A" stroke-width="0.38436" stroke-linecap="round" stroke-linejoin="round"/>
<path d="M169.912 77.789H180.736L169.912 67.3269H180.736L169.912 77.789Z" stroke="#2E353A" stroke-width="0.38436" stroke-linecap="round" stroke-linejoin="round"/>
<path d="M169.912 67.0631H180.736L169.912 56.6011H180.736L169.912 67.0631Z" stroke="#2E353A" stroke-width="0.38436" stroke-linecap="round" stroke-linejoin="round"/>
<path d="M169.912 56.3375H180.736L169.912 45.8755H180.736L169.912 56.3375Z" stroke="#2E353A" stroke-width="0.38436" stroke-linecap="round" stroke-linejoin="round"/>
<path d="M169.912 45.6122H180.736L169.912 35.1501H180.736L169.912 45.6122Z" stroke="#2E353A" stroke-width="0.38436" stroke-linecap="round" stroke-linejoin="round"/>
<path d="M169.912 34.8866H180.736L169.912 24.4246H180.736L169.912 34.8866Z" stroke="#2E353A" stroke-width="0.38436" stroke-linecap="round" stroke-linejoin="round"/>
<path d="M169.912 24.1608H180.736L169.912 13.6987H180.736L169.912 24.1608Z" stroke="#2E353A" stroke-width="0.38436" stroke-linecap="round" stroke-linejoin="round"/>
<path d="M232.053 24.449L226.709 21.0842H188.575L183.917 24.449H232.053Z" stroke="#2E353A" stroke-width="0.38436" stroke-linecap="round" stroke-linejoin="round"/>
<path d="M232.936 24.1609H139.776V26.6125H232.936V24.1609Z" fill="#2E353A" stroke="#2E353A" stroke-width="0.38436" stroke-linecap="round" stroke-linejoin="round"/>
<path d="M226.709 21.0842L169.808 0.871094L188.575 21.0842" stroke="#2E353A" stroke-width="0.38436" stroke-linecap="round" stroke-linejoin="round"/>
<path d="M169.808 0.871094L139.776 24.161" stroke="#2E353A" stroke-width="0.38436" stroke-linecap="round" stroke-linejoin="round"/>
<path d="M188.808 29.3706H165.824V44.08H188.808V29.3706Z" fill="#2E353A" stroke="#2E353A" stroke-width="0.38436" stroke-linecap="round" stroke-linejoin="round"/>
<path d="M188.808 185.266H165.824V199.975H188.808V185.266Z" fill="#2E353A" stroke="#2E353A" stroke-width="0.38436" stroke-linecap="round" stroke-linejoin="round"/>
<path d="M184.015 32.4351H170.611V36.7253H184.015V32.4351Z" fill="white" stroke="#2E353A" stroke-width="0.38436" stroke-linecap="round" stroke-linejoin="round"/>
<path d="M232.936 26.6125V53.0404" stroke="#2E353A" stroke-width="0.38436" stroke-linecap="round" stroke-linejoin="round"/>
<path d="M236.436 62.0623H229.626V69.7786H236.436V62.0623Z" fill="#2E353A" stroke="#2E353A" stroke-width="0.38436" stroke-linecap="round" stroke-linejoin="round"/>
<path d="M229.626 62.0619L233.028 52.5376L236.436 62.0619" stroke="#2E353A" stroke-width="0.38436" stroke-linecap="round" stroke-linejoin="round"/>
<path d="M142.179 183.39V169.759H102.004V183.402C101.997 187.855 100.485 192.175 97.7139 195.66L95.9549 197.879H148.204L146.439 195.66C143.678 192.166 142.177 187.843 142.179 183.39Z" fill="white" stroke="#2E353A" stroke-width="0.421039" stroke-linecap="round" stroke-linejoin="round"/>
<g style="mix-blend-mode:multiply">
<path d="M99.5344 192.945H144.649C143.036 190.019 142.192 186.731 142.198 183.39V169.759H102.004V183.402C102.002 186.741 101.152 190.024 99.5344 192.945Z" fill="#1EC0C4"/>
</g>
<path d="M142.179 171.8H102.004V177.561H142.179V171.8Z" fill="#2E353A" stroke="#2E353A" stroke-width="0.421039" stroke-linecap="round" stroke-linejoin="round"/>
<path d="M197.137 52.9424H47.0462C43.9016 52.9424 41.3524 55.4916 41.3524 58.6361V168.356C41.3524 171.5 43.9016 174.05 47.0462 174.05H197.137C200.282 174.05 202.831 171.5 202.831 168.356V58.6361C202.831 55.4916 200.282 52.9424 197.137 52.9424Z" fill="#2E353A" stroke="#2E353A" stroke-width="0.421039" stroke-linecap="round" stroke-linejoin="round"/>
<path d="M41.3525 155.228H202.831V168.356C202.831 169.866 202.231 171.314 201.163 172.382C200.096 173.45 198.647 174.05 197.137 174.05H47.0769C45.5669 174.05 44.1186 173.45 43.0508 172.382C41.9831 171.314 41.3832 169.866 41.3832 168.356V155.228H41.3525Z" fill="white" stroke="#2E353A" stroke-width="0.421039" stroke-linecap="round" stroke-linejoin="round"/>
<path d="M194.704 60.481H49.4733V146.041H194.704V60.481Z" fill="#1EC0C4" stroke="#2E353A" stroke-width="0.421039" stroke-linecap="round" stroke-linejoin="round"/>
<path d="M125.067 164.642C125.068 164.052 124.895 163.476 124.568 162.985C124.242 162.495 123.777 162.112 123.233 161.885C122.689 161.659 122.089 161.599 121.511 161.713C120.933 161.828 120.402 162.111 119.985 162.527C119.567 162.944 119.283 163.474 119.168 164.052C119.052 164.63 119.111 165.229 119.336 165.774C119.561 166.319 119.943 166.784 120.433 167.112C120.923 167.439 121.499 167.614 122.089 167.614C122.479 167.615 122.867 167.539 123.228 167.39C123.589 167.241 123.918 167.022 124.194 166.746C124.471 166.47 124.691 166.142 124.84 165.781C124.99 165.42 125.067 165.033 125.067 164.642Z" fill="#2E353A" stroke="#2E353A" stroke-width="0.421039" stroke-linecap="round" stroke-linejoin="round"/>
<path d="M148.216 197.873H95.9732V200.306H148.216V197.873Z" fill="white" stroke="#2E353A" stroke-width="0.421039" stroke-linecap="round" stroke-linejoin="round"/>
<path d="M169.355 81.9199C171.037 80.2344 172.28 78.1612 172.974 75.8828C173.667 73.6043 173.79 71.1903 173.332 68.8531L164.219 77.9668C163.701 78.4818 163 78.7709 162.27 78.7709C161.539 78.7709 160.839 78.4818 160.321 77.9668L152.745 70.3915C152.489 70.1353 152.285 69.831 152.146 69.4961C152.007 69.1611 151.936 68.802 151.936 68.4394C151.936 68.0768 152.007 67.7177 152.146 67.3827C152.285 67.0478 152.489 66.7435 152.745 66.4873L161.853 57.3798C159.3 56.8813 156.661 57.077 154.21 57.9463C151.759 58.8157 149.586 60.3268 147.918 62.3222C146.25 64.3176 145.148 66.724 144.727 69.2904C144.307 71.8568 144.582 74.489 145.525 76.9126L122.009 99.8899L119.741 97.6161L123.418 93.9387C123.606 93.7474 123.712 93.4899 123.712 93.2217C123.712 92.9534 123.606 92.696 123.418 92.5046L120.55 89.6362C120.361 89.4472 120.104 89.3411 119.836 89.3411C119.568 89.3411 119.312 89.4472 119.122 89.6362L117.688 91.0704L114.581 87.9692L115.776 86.774C116.029 86.5202 116.171 86.1763 116.171 85.8179C116.171 85.4595 116.029 85.1157 115.776 84.8618L90.1139 59.2001C89.5026 58.5878 88.7765 58.102 87.9772 57.7706C87.178 57.4392 86.3212 57.2686 85.4559 57.2686C84.5907 57.2686 83.7339 57.4392 82.9347 57.7706C82.1354 58.102 81.4093 58.5878 80.798 59.2001L78.1748 61.8232C77.5627 62.4341 77.0771 63.1596 76.7458 63.9584C76.4144 64.7572 76.2439 65.6134 76.2439 66.4781C76.2439 67.3429 76.4144 68.1991 76.7458 68.9979C77.0771 69.7967 77.5627 70.5222 78.1748 71.1331L103.837 96.8009C104.09 97.0539 104.434 97.196 104.793 97.196C105.151 97.196 105.495 97.0539 105.749 96.8009L106.944 95.6058L110.045 98.7132L108.617 100.141C108.523 100.235 108.448 100.347 108.396 100.47C108.345 100.593 108.319 100.725 108.319 100.858C108.319 100.992 108.345 101.124 108.396 101.247C108.448 101.37 108.523 101.481 108.617 101.575L111.479 104.444C111.671 104.632 111.928 104.737 112.196 104.737C112.465 104.737 112.722 104.632 112.913 104.444L116.591 100.766L118.822 102.997L99.3196 121.997C96.8957 121.054 94.2633 120.779 91.697 121.2C89.1306 121.621 86.7241 122.723 84.7285 124.391C82.7328 126.058 81.221 128.231 80.3508 130.681C79.4805 133.132 79.2836 135.772 79.7806 138.324L88.8943 129.217C89.1504 128.96 89.4547 128.756 89.7897 128.618C90.1246 128.479 90.4837 128.407 90.8463 128.407C91.209 128.407 91.568 128.479 91.903 128.618C92.2379 128.756 92.5422 128.96 92.7984 129.217L100.398 136.743C100.655 136.999 100.859 137.304 100.997 137.638C101.136 137.973 101.208 138.332 101.208 138.695C101.208 139.058 101.136 139.417 100.997 139.752C100.859 140.087 100.655 140.391 100.398 140.647L91.2907 149.755C93.8432 150.252 96.4824 150.056 98.9333 149.187C101.384 148.317 103.557 146.806 105.225 144.811C106.894 142.816 107.996 140.411 108.418 137.844C108.84 135.278 108.566 132.646 107.624 130.222L127.126 111.222L153.72 137.785C153.338 138.77 153.25 139.845 153.468 140.878C153.685 141.912 154.199 142.86 154.946 143.607L161.363 150.024L169.06 142.32L162.643 135.91C161.896 135.163 160.948 134.649 159.914 134.432C158.881 134.214 157.806 134.302 156.821 134.684L130.271 108.133L153.812 85.1805C156.44 86.2029 159.308 86.4391 162.068 85.8602C164.827 85.2812 167.359 83.9122 169.355 81.9199Z" fill="#2E353A" stroke="#2E353A" stroke-width="0.421039" stroke-linecap="round" stroke-linejoin="round"/>
<path d="M106.006 126.955L152.175 81.9137C154.6 82.8584 157.235 83.1344 159.803 82.7129C162.372 82.2913 164.78 81.1877 166.776 79.5174C168.772 77.847 170.283 75.6712 171.15 73.2174C172.018 70.7635 172.211 68.1217 171.708 65.5679L162.601 74.6754C162.344 74.9321 162.04 75.1357 161.705 75.2746C161.37 75.4136 161.011 75.4851 160.648 75.4851C160.286 75.4851 159.927 75.4136 159.592 75.2746C159.257 75.1357 158.953 74.9321 158.696 74.6754L151.121 67.1001C150.865 66.8445 150.661 66.5407 150.522 66.2062C150.383 65.8718 150.312 65.5132 150.312 65.1511C150.312 64.789 150.383 64.4304 150.522 64.096C150.661 63.7615 150.865 63.4578 151.121 63.2021L160.229 54.0884C157.675 53.5907 155.034 53.7878 152.583 54.659C150.131 55.5302 147.959 57.0436 146.292 59.0412C144.625 61.0388 143.525 63.4473 143.106 66.0152C142.688 68.5831 142.967 71.2163 143.913 73.6396L97.7444 118.681C95.3208 117.738 92.6885 117.462 90.1221 117.883C87.5558 118.304 85.1493 119.406 83.154 121.074C81.1586 122.742 79.6474 124.914 78.7781 127.366C77.9087 129.817 77.7131 132.456 78.2115 135.008L87.3191 125.901C87.5753 125.644 87.8796 125.441 88.2145 125.302C88.5495 125.163 88.9085 125.091 89.2712 125.091C89.6338 125.091 89.9929 125.163 90.3278 125.302C90.6628 125.441 90.9671 125.644 91.2232 125.901L98.7986 133.476C99.055 133.732 99.2585 134.036 99.3974 134.37C99.5362 134.705 99.6077 135.063 99.6077 135.425C99.6077 135.787 99.5362 136.146 99.3974 136.48C99.2585 136.815 99.055 137.119 98.7986 137.374L89.6726 146.47C92.2251 146.967 94.8644 146.771 97.3153 145.902C99.7662 145.032 101.939 143.521 103.607 141.526C105.275 139.531 106.378 137.125 106.8 134.559C107.222 131.993 106.948 129.361 106.006 126.937V126.955Z" fill="white" stroke="#2E353A" stroke-width="0.38436" stroke-miterlimit="10"/>
<path d="M102.451 122.23C102.098 121.876 101.9 121.396 101.9 120.897C101.9 120.397 102.098 119.917 102.451 119.563L143.962 79.1801C144.317 78.8268 144.798 78.6284 145.299 78.6284C145.799 78.6284 146.28 78.8268 146.635 79.1801C146.988 79.535 147.186 80.0154 147.186 80.5162C147.186 81.017 146.988 81.4974 146.635 81.8523L105.124 122.23C104.769 122.583 104.288 122.781 103.787 122.781C103.287 122.781 102.806 122.583 102.451 122.23Z" fill="white" stroke="#2E353A" stroke-width="0.38436" stroke-miterlimit="10"/>
<path d="M114.763 90.9749L111.66 94.0779L156.432 138.85L159.535 135.747L114.763 90.9749Z" fill="white" stroke="#2E353A" stroke-width="0.38436" stroke-miterlimit="10"/>
<path d="M167.436 139.053L159.738 146.751L153.321 140.34C152.3 139.319 151.726 137.933 151.726 136.488C151.726 135.044 152.3 133.658 153.321 132.636C153.827 132.131 154.427 131.73 155.087 131.456C155.748 131.183 156.455 131.042 157.17 131.042C157.885 131.042 158.593 131.183 159.253 131.456C159.914 131.73 160.514 132.131 161.019 132.636L167.436 139.053Z" fill="white" stroke="#2E353A" stroke-width="0.38436" stroke-miterlimit="10"/>
<path d="M110.586 82.2621L102.946 89.9026L109.152 96.1086L116.792 88.4681L110.586 82.2621Z" fill="white" stroke="#2E353A" stroke-width="0.38436" stroke-miterlimit="10"/>
<path d="M76.5647 58.5059L79.191 55.8796C79.8022 55.2684 80.5279 54.7835 81.3265 54.4527C82.1251 54.1219 82.9811 53.9517 83.8455 53.9517C84.7099 53.9517 85.5659 54.1219 86.3645 54.4527C87.1631 54.7835 87.8887 55.2684 88.5 55.8796L114.165 81.5444C114.418 81.7972 114.56 82.1402 114.56 82.4978C114.56 82.8554 114.418 83.1984 114.165 83.4512L104.136 93.4796C103.883 93.7325 103.54 93.8746 103.183 93.8746C102.825 93.8746 102.482 93.7325 102.229 93.4796L76.5647 67.8149C75.3303 66.5804 74.6368 64.9062 74.6368 63.1604C74.6368 61.4146 75.3303 59.7404 76.5647 58.5059Z" fill="white" stroke="#2E353A" stroke-width="0.38436" stroke-miterlimit="10"/>
<path d="M117.507 86.325L107.002 96.8301C106.607 97.225 106.607 97.8653 107.002 98.2602L109.871 101.129C110.265 101.524 110.906 101.524 111.301 101.129L121.806 90.6241C122.201 90.2292 122.201 89.5889 121.806 89.1939L118.937 86.325C118.542 85.9301 117.902 85.93 117.507 86.325Z" fill="white" stroke="#2E353A" stroke-width="0.38436" stroke-miterlimit="10"/>
<path d="M105.571 89.6669L103.463 91.7813L78.2605 66.5792C77.9802 66.2988 77.8227 65.9185 77.8227 65.522C77.8227 65.1255 77.9802 64.7452 78.2605 64.4648C78.3989 64.3252 78.5636 64.2145 78.7451 64.1389C78.9265 64.0633 79.1211 64.0244 79.3177 64.0244C79.5143 64.0244 79.7089 64.0633 79.8904 64.1389C80.0718 64.2145 80.2365 64.3252 80.375 64.4648L105.571 89.6669Z" fill="white" stroke="#2E353A" stroke-width="0.38436" stroke-miterlimit="10"/>
<path d="M109.169 86.069L107.048 88.1834L81.846 62.9813C81.5656 62.7009 81.4082 62.3206 81.4082 61.9241C81.4082 61.5276 81.5656 61.1473 81.846 60.8669C81.9844 60.7273 82.1491 60.6166 82.3306 60.541C82.512 60.4654 82.7066 60.4265 82.9032 60.4265C83.0998 60.4265 83.2944 60.4654 83.4758 60.541C83.6573 60.6166 83.822 60.7273 83.9604 60.8669L109.169 86.069Z" fill="white" stroke="#2E353A" stroke-width="0.38436" stroke-miterlimit="10"/>
<path d="M112.766 82.4715L110.646 84.5676L85.4437 59.3839C85.1634 59.1035 85.0059 58.7232 85.0059 58.3267C85.0059 57.9302 85.1634 57.5499 85.4437 57.2695C85.5822 57.1299 85.7469 57.0192 85.9283 56.9436C86.1098 56.868 86.3044 56.8291 86.501 56.8291C86.6975 56.8291 86.8921 56.868 87.0736 56.9436C87.2551 57.0192 87.4198 57.1299 87.5582 57.2695L112.766 82.4715Z" fill="white" stroke="#2E353A" stroke-width="0.38436" stroke-miterlimit="10"/>
<path d="M197.125 201.06H195.084L181.888 92.7864H183.935L197.125 201.06Z" fill="white" stroke="#2E353A" stroke-width="0.38436" stroke-miterlimit="10"/>
<path d="M213.06 201.06H211.019L197.824 92.7864H199.871L213.06 201.06Z" fill="white" stroke="#2E353A" stroke-width="0.38436" stroke-miterlimit="10"/>
<path d="M199.999 101.759H184.07L183.66 98.4187H199.595L199.999 101.759Z" fill="white" stroke="#2E353A" stroke-width="0.38436" stroke-miterlimit="10"/>
<path d="M201.501 114.09H185.572L185.167 110.75H201.096L201.501 114.09Z" fill="white" stroke="#2E353A" stroke-width="0.38436" stroke-miterlimit="10"/>
<path d="M203.009 126.422H187.073L186.669 123.082H202.598L203.009 126.422Z" fill="white" stroke="#2E353A" stroke-width="0.38436" stroke-miterlimit="10"/>
<path d="M204.51 138.759H188.581L188.17 135.419H204.099L204.51 138.759Z" fill="white" stroke="#2E353A" stroke-width="0.38436" stroke-miterlimit="10"/>
<path d="M206.012 151.091H190.083L189.672 147.75H205.601L206.012 151.091Z" fill="white" stroke="#2E353A" stroke-width="0.38436" stroke-miterlimit="10"/>
<path d="M207.513 163.422H191.584L191.18 160.082H207.109L207.513 163.422Z" fill="white" stroke="#2E353A" stroke-width="0.38436" stroke-miterlimit="10"/>
<path d="M209.015 175.759H193.086L192.681 172.419H208.61L209.015 175.759Z" fill="white" stroke="#2E353A" stroke-width="0.38436" stroke-miterlimit="10"/>
<path d="M210.523 188.091H194.588L194.183 184.751H210.112L210.523 188.091Z" fill="white" stroke="#2E353A" stroke-width="0.38436" stroke-miterlimit="10"/>
<path d="M183.825 99.7305H185.909" stroke="#2E353A" stroke-width="0.19218" stroke-miterlimit="10"/>
<path d="M184.315 100.711H188.361" stroke="#2E353A" stroke-width="0.19218" stroke-miterlimit="10"/>
<path d="M199.754 100.711H196.812" stroke="#2E353A" stroke-width="0.19218" stroke-miterlimit="10"/>
<path d="M201.225 112.595H198.528" stroke="#2E353A" stroke-width="0.19218" stroke-miterlimit="10"/>
<path d="M185.786 113.208H192.038" stroke="#2E353A" stroke-width="0.19218" stroke-miterlimit="10"/>
<path d="M186.89 124.724H192.283" stroke="#2E353A" stroke-width="0.19218" stroke-miterlimit="10"/>
<path d="M187.135 125.705H190.077" stroke="#2E353A" stroke-width="0.19218" stroke-miterlimit="10"/>
<path d="M204.406 136.853H201.103" stroke="#2E353A" stroke-width="0.19218" stroke-miterlimit="10"/>
<path d="M204.167 137.834H198.651" stroke="#2E353A" stroke-width="0.19218" stroke-miterlimit="10"/>
<path d="M208.966 174.503H203.91" stroke="#2E353A" stroke-width="0.19218" stroke-miterlimit="10"/>
<path d="M192.877 173.583H195.942" stroke="#2E353A" stroke-width="0.19218" stroke-miterlimit="10"/>
<path d="M203.144 174.503H199.16" stroke="#2E353A" stroke-width="0.19218" stroke-miterlimit="10"/>
<path d="M194.41 186.301H198.7" stroke="#2E353A" stroke-width="0.19218" stroke-miterlimit="10"/>
<path d="M195.329 187.374H200.232" stroke="#2E353A" stroke-width="0.19218" stroke-miterlimit="10"/>
<path d="M190.426 149.987H191.805" stroke="#2E353A" stroke-width="0.19218" stroke-miterlimit="10"/>
<path d="M205.442 149.681H200.385" stroke="#2E353A" stroke-width="0.19218" stroke-miterlimit="10"/>
<path d="M77.703 136.32L75.276 139.482L22.4815 98.2655L24.9147 95.103L77.703 136.32Z" fill="#2E353A" stroke="#2E353A" stroke-width="0.421039" stroke-linecap="round" stroke-linejoin="round"/>
<path d="M22.4815 136.32L24.9147 139.482L77.703 98.2655L75.276 95.103L22.4815 136.32Z" fill="#2E353A" stroke="#2E353A" stroke-width="0.421039" stroke-linecap="round" stroke-linejoin="round"/>
<path d="M77.703 182.618L76.2015 186.694L22.4815 144.563L24.0199 140.451L77.703 182.618Z" fill="#2E353A" stroke="#2E353A" stroke-width="0.421039" stroke-linecap="round" stroke-linejoin="round"/>
<path d="M22.4815 182.618L22.8493 187.398L77.703 144.563L75.276 141.407L22.4815 182.618Z" fill="#2E353A" stroke="#2E353A" stroke-width="0.421039" stroke-linecap="round" stroke-linejoin="round"/>
<path d="M23.7257 94.6677H21.5806V201.066H23.7257V94.6677Z" fill="#2E353A" stroke="#2E353A" stroke-width="0.421039" stroke-linecap="round" stroke-linejoin="round"/>
<path d="M77.9973 94.6677H75.8522V201.066H77.9973V94.6677Z" fill="#2E353A" stroke="#2E353A" stroke-width="0.421039" stroke-linecap="round" stroke-linejoin="round"/>
<path d="M67.3758 136.32L64.9426 139.482L12.1543 98.2655L14.5813 95.103L67.3758 136.32Z" fill="white" stroke="#2E353A" stroke-width="0.421039" stroke-linecap="round" stroke-linejoin="round"/>
<path d="M12.1543 136.32L14.5813 139.482L67.3758 98.2655L64.9426 95.103L12.1543 136.32Z" fill="white" stroke="#2E353A" stroke-width="0.421039" stroke-linecap="round" stroke-linejoin="round"/>
<path d="M67.3758 182.618L65.868 186.694L12.1543 144.563L12.9265 140.451L67.3758 182.618Z" fill="white" stroke="#2E353A" stroke-width="0.421039" stroke-linecap="round" stroke-linejoin="round"/>
<path d="M12.1543 182.618L12.522 187.398L67.3758 144.563L64.9426 141.407L12.1543 182.618Z" fill="white" stroke="#2E353A" stroke-width="0.421039" stroke-linecap="round" stroke-linejoin="round"/>
<path d="M13.3922 94.6677H11.2471V201.066H13.3922V94.6677Z" fill="white" stroke="#2E353A" stroke-width="0.421039" stroke-linecap="round" stroke-linejoin="round"/>
<path d="M67.6638 94.6677H65.5186V201.066H67.6638V94.6677Z" fill="white" stroke="#2E353A" stroke-width="0.421039" stroke-linecap="round" stroke-linejoin="round"/>
<path d="M70.4279 93.6809H8.48915V97.0518H70.4279V93.6809Z" fill="white" stroke="#2E353A" stroke-width="0.421039" stroke-linecap="round" stroke-linejoin="round"/>
<path d="M79.9706 93.6809H62.779V97.0518H79.9706V93.6809Z" fill="#2E353A" stroke="#2E353A" stroke-width="0.421039" stroke-linecap="round" stroke-linejoin="round"/>
<path d="M70.4279 137.834H8.48915V141.205H70.4279V137.834Z" fill="white" stroke="#2E353A" stroke-width="0.421039" stroke-linecap="round" stroke-linejoin="round"/>
<path d="M79.9706 137.834H62.779V141.205H79.9706V137.834Z" fill="#2E353A" stroke="#2E353A" stroke-width="0.421039" stroke-linecap="round" stroke-linejoin="round"/>
<path d="M147.609 201.06H142.761L149.227 163.177H154.082L147.609 201.06Z" fill="#2E353A" stroke="#2E353A" stroke-width="0.373879" stroke-miterlimit="10"/>
<path d="M157.311 201.06H162.166L155.693 163.177H150.845L157.311 201.06Z" fill="white" stroke="#2E353A" stroke-width="0.373879" stroke-miterlimit="10"/>
<path d="M216.449 201.06H211.601L218.067 163.177H222.915L216.449 201.06Z" fill="#2E353A" stroke="#2E353A" stroke-width="0.373879" stroke-miterlimit="10"/>
<path d="M226.151 201.06H231.005L224.533 163.177H219.685L226.151 201.06Z" fill="white" stroke="#2E353A" stroke-width="0.373879" stroke-miterlimit="10"/>
<path d="M229.547 152.224H137.019V165.077H229.547V152.224Z" fill="#1EC0C4" stroke="#2E353A" stroke-width="0.373879" stroke-miterlimit="10"/>
<path d="M231.802 152.224H139.274V165.077H231.802V152.224Z" fill="#1EC0C4" stroke="#2E353A" stroke-width="0.373879" stroke-miterlimit="10"/>
<path d="M140.788 165.077H148.639L152.696 152.224H144.845L140.788 165.077Z" fill="#2E353A"/>
<path d="M171.874 152.224H164.016L159.959 165.077H167.816L171.874 152.224Z" fill="#2E353A"/>
<path d="M229.394 152.224H221.536L217.479 165.077H225.336L229.394 152.224Z" fill="#2E353A"/>
<path d="M210.216 152.224H202.365L198.308 165.077H206.159L210.216 152.224Z" fill="#2E353A"/>
<path d="M191.045 152.224H183.188L179.13 165.077H186.988L191.045 152.224Z" fill="#2E353A"/>
<path d="M231.294 157.931H215.984" stroke="#2E353A" stroke-width="0.38436" stroke-miterlimit="10"/>
<path d="M231.024 160.075H228.609" stroke="#2E353A" stroke-width="0.38436" stroke-miterlimit="10"/>
<path d="M138.882 159.542H154.192" stroke="#2E353A" stroke-width="0.38436" stroke-miterlimit="10"/>
<path d="M139.145 157.122H158.488" stroke="#2E353A" stroke-width="0.38436" stroke-miterlimit="10"/>
</svg>
